<svg width="30" height="30" viewBox="0 0 30 30" fill="none" xmlns="http://www.w3.org/2000/svg">
<path d="M14.9989 28.9978C24.3333 28.9978 28.9978 22.7303 28.9978 14.9989C28.9978 7.26751 24.3333 1 14.9989 1C5.66443 1 1 7.26751 1 14.9989C1 22.7303 5.66443 28.9978 14.9989 28.9978Z" fill="url(#paint0_radial_854_825)"/>
<path d="M14.9989 28.9978C24.3333 28.9978 28.9978 22.7303 28.9978 14.9989C28.9978 7.26751 24.3333 1 14.9989 1C5.66443 1 1 7.26751 1 14.9989C1 22.7303 5.66443 28.9978 14.9989 28.9978Z" fill="url(#paint1_radial_854_825)"/>
<path d="M14.9989 28.9978C24.3333 28.9978 28.9978 22.7303 28.9978 14.9989C28.9978 7.26751 24.3333 1 14.9989 1C5.66443 1 1 7.26751 1 14.9989C1 22.7303 5.66443 28.9978 14.9989 28.9978Z" fill="url(#paint2_radial_854_825)"/>
<path d="M14.9989 28.9978C24.3333 28.9978 28.9978 22.7303 28.9978 14.9989C28.9978 7.26751 24.3333 1 14.9989 1C5.66443 1 1 7.26751 1 14.9989C1 22.7303 5.66443 28.9978 14.9989 28.9978Z" fill="url(#paint3_radial_854_825)" fill-opacity="0.6"/>
<path d="M14.9989 28.9978C24.3333 28.9978 28.9978 22.7303 28.9978 14.9989C28.9978 7.26751 24.3333 1 14.9989 1C5.66443 1 1 7.26751 1 14.9989C1 22.7303 5.66443 28.9978 14.9989 28.9978Z" fill="url(#paint4_radial_854_825)"/>
<path d="M14.9989 28.9978C24.3333 28.9978 28.9978 22.7303 28.9978 14.9989C28.9978 7.26751 24.3333 1 14.9989 1C5.66443 1 1 7.26751 1 14.9989C1 22.7303 5.66443 28.9978 14.9989 28.9978Z" fill="url(#paint5_radial_854_825)"/>
<path d="M14.9989 28.9978C24.3333 28.9978 28.9978 22.7303 28.9978 14.9989C28.9978 7.26751 24.3333 1 14.9989 1C5.66443 1 1 7.26751 1 14.9989C1 22.7303 5.66443 28.9978 14.9989 28.9978Z" fill="url(#paint6_radial_854_825)"/>
<path d="M14.9989 28.9978C24.3333 28.9978 28.9978 22.7303 28.9978 14.9989C28.9978 7.26751 24.3333 1 14.9989 1C5.66443 1 1 7.26751 1 14.9989C1 22.7303 5.66443 28.9978 14.9989 28.9978Z" fill="url(#paint7_radial_854_825)"/>
<path d="M9.50016 14.5C9.50016 14.5 6.49998 14 4.4501 11.6342C2.35976 9.22172 4.31118 5.7673 8.00012 7.50002C9.5771 4.92775 13.4903 5.87914 12.97 9C12.4698 12 9.50016 14.5 9.50016 14.5Z" fill="url(#paint8_radial_854_825)"/>
<path d="M18.5172 14.5C18.5172 14.5 21.5174 14 23.5672 11.6342C25.6576 9.22172 23.7062 5.7673 20.0172 7.50002C18.4402 4.92775 14.527 5.87914 15.0473 9C15.5475 12 18.5172 14.5 18.5172 14.5Z" fill="url(#paint9_radial_854_825)"/>
<path d="M9.59278 13.2704C8.54671 12.9405 6.7854 12.1917 5.43594 10.6342C3.3456 8.22172 5.29702 4.7673 8.98596 6.50002C10.5629 3.92775 14.4761 4.87914 13.9558 8C13.6074 10.0898 12.0607 11.937 11.1542 12.8655C10.745 13.2846 10.1514 13.4466 9.59278 13.2704Z" fill="url(#paint10_linear_854_825)"/>
<path d="M20.4104 13.2704C21.4565 12.9405 23.2178 12.1917 24.5672 10.6342C26.6576 8.22172 24.7062 4.7673 21.0172 6.50002C19.4402 3.92775 15.527 4.87914 16.0473 8C16.3957 10.0898 17.9425 11.937 18.849 12.8655C19.2582 13.2846 19.8518 13.4466 20.4104 13.2704Z" fill="url(#paint11_linear_854_825)"/>
<ellipse cx="8.43198" cy="8.31066" rx="1.5" ry="3" transform="rotate(-45 8.43198 8.31066)" fill="url(#paint12_radial_854_825)"/>
<ellipse cx="19.9192" cy="8.19846" rx="2" ry="3" transform="rotate(-12.9659 19.9192 8.19846)" fill="url(#paint13_radial_854_825)"/>
<circle cx="12.0784" cy="6.62382" r="1.5" transform="rotate(45 12.0784 6.62382)" fill="url(#paint14_radial_854_825)"/>
<ellipse cx="23.3713" cy="7.62382" rx="1" ry="2" transform="rotate(45 23.3713 7.62382)" fill="url(#paint15_radial_854_825)"/>
<path d="M15 24C6 24 6 15 6 15H24C24 15 24 24 15 24Z" fill="url(#paint16_radial_854_825)"/>
<path d="M7 15.5V15H23V15.5C23 16.0523 22.5523 16.5 22 16.5H8C7.44772 16.5 7 16.0523 7 15.5Z" fill="url(#paint17_linear_854_825)"/>
<defs>
<radialGradient id="paint0_radial_854_825" cx="0" cy="0" r="1" gradientUnits="userSpaceOnUse" gradientTransform="translate(24.5 8) rotate(132.839) scale(37.5033)">
<stop stop-color="#FFF478"/>
<stop offset="0.474827" stop-color="#FFB02E"/>
<stop offset="1" stop-color="#F70A8D"/>
</radialGradient>
<radialGradient id="paint1_radial_854_825" cx="0" cy="0" r="1" gradientUnits="userSpaceOnUse" gradientTransform="translate(24.5 8) rotate(131.878) scale(38.9487)">
<stop stop-color="#FFF478"/>
<stop offset="0.474827" stop-color="#FFB02E"/>
<stop offset="1" stop-color="#F70A8D"/>
</radialGradient>
<radialGradient id="paint2_radial_854_825" cx="0" cy="0" r="1" gradientUnits="userSpaceOnUse" gradientTransform="translate(15 11.5) rotate(101.31) scale(17.8466 22.8581)">
<stop offset="0.787821" stop-color="#F59639" stop-opacity="0"/>
<stop offset="0.972509" stop-color="#FF7DCE"/>
</radialGradient>
<radialGradient id="paint3_radial_854_825" cx="0" cy="0" r="1" gradientUnits="userSpaceOnUse" gradientTransform="translate(17 13) rotate(135) scale(41.0122)">
<stop offset="0.314853" stop-opacity="0"/>
<stop offset="1"/>
</radialGradient>
<radialGradient id="paint4_radial_854_825" cx="0" cy="0" r="1" gradientUnits="userSpaceOnUse" gradientTransform="translate(15 16) rotate(77.692) scale(28.1469)">
<stop offset="0.507903" stop-color="#7D6133" stop-opacity="0"/>
<stop offset="1" stop-color="#715B32"/>
</radialGradient>
<radialGradient id="paint5_radial_854_825" cx="0" cy="0" r="1" gradientUnits="userSpaceOnUse" gradientTransform="translate(15.5 15.5) rotate(55.7131) scale(13.3135 9.65032)">
<stop stop-color="#FFB849"/>
<stop offset="1" stop-color="#FFB847" stop-opacity="0"/>
</radialGradient>
<radialGradient id="paint6_radial_854_825" cx="0" cy="0" r="1" gradientUnits="userSpaceOnUse" gradientTransform="translate(19.5 17) rotate(9.86581) scale(11.6726)">
<stop stop-color="#FFA64B"/>
<stop offset="0.900412" stop-color="#FFAE46" stop-opacity="0"/>
</radialGradient>
<radialGradient id="paint7_radial_854_825" cx="0" cy="0" r="1" gradientUnits="userSpaceOnUse" gradientTransform="translate(16.5 14) rotate(43.9708) scale(59.0529)">
<stop offset="0.185425" stop-opacity="0"/>
<stop offset="1" stop-opacity="0.4"/>
</radialGradient>
<radialGradient id="paint8_radial_854_825" cx="0" cy="0" r="1" gradientUnits="userSpaceOnUse" gradientTransform="translate(13 13) rotate(-155.376) scale(13.2004 5.48694)">
<stop stop-color="#CC7521"/>
<stop offset="1" stop-color="#E6872B" stop-opacity="0"/>
</radialGradient>
<radialGradient id="paint9_radial_854_825" cx="0" cy="0" r="1" gradientUnits="userSpaceOnUse" gradientTransform="translate(19 10) rotate(122.005) scale(4.71699)">
<stop stop-color="#EC812A"/>
<stop offset="1" stop-color="#FBA84C" stop-opacity="0"/>
</radialGradient>
<linearGradient id="paint10_linear_854_825" x1="11.9858" y1="6" x2="8.98584" y2="13" gradientUnits="userSpaceOnUse">
<stop stop-color="#CA0B4A"/>
<stop offset="1" stop-color="#F70A8D"/>
</linearGradient>
<linearGradient id="paint11_linear_854_825" x1="23" y1="6" x2="18" y2="14" gradientUnits="userSpaceOnUse">
<stop stop-color="#CA0B4A"/>
<stop offset="1" stop-color="#F70A8D"/>
</linearGradient>
<radialGradient id="paint12_radial_854_825" cx="0" cy="0" r="1" gradientUnits="userSpaceOnUse" gradientTransform="translate(8.43198 8.31066) rotate(90) scale(3.10148 1.5764)">
<stop stop-color="#EC6686"/>
<stop offset="1" stop-color="#EC6686" stop-opacity="0"/>
</radialGradient>
<radialGradient id="paint13_radial_854_825" cx="0" cy="0" r="1" gradientUnits="userSpaceOnUse" gradientTransform="translate(20.0425 8.02318) rotate(81.1645) scale(2.69258 1.82475)">
<stop stop-color="#EC6686"/>
<stop offset="0.259696" stop-color="#EC6686"/>
<stop offset="1" stop-color="#EC6686" stop-opacity="0"/>
</radialGradient>
<radialGradient id="paint14_radial_854_825" cx="0" cy="0" r="1" gradientUnits="userSpaceOnUse" gradientTransform="translate(12.0784 6.62382) rotate(90) scale(1.5)">
<stop stop-color="#EC6686"/>
<stop offset="1" stop-color="#EC6686" stop-opacity="0"/>
</radialGradient>
<radialGradient id="paint15_radial_854_825" cx="0" cy="0" r="1" gradientUnits="userSpaceOnUse" gradientTransform="translate(23.3713 7.62382) rotate(90) scale(2 1)">
<stop stop-color="#EC6686"/>
<stop offset="1" stop-color="#EC6686" stop-opacity="0"/>
</radialGradient>
<radialGradient id="paint16_radial_854_825" cx="0" cy="0" r="1" gradientUnits="userSpaceOnUse" gradientTransform="translate(15 26) rotate(-90) scale(11 22)">
<stop stop-color="#F70A8D"/>
<stop offset="1" stop-color="#89029C"/>
</radialGradient>
<linearGradient id="paint17_linear_854_825" x1="15" y1="15" x2="15" y2="16.5" gradientUnits="userSpaceOnUse">
<stop stop-color="#ECCDFF"/>
<stop offset="1" stop-color="white"/>
</linearGradient>
</defs>
</svg>
