<svg width="30" height="30" viewBox="0 0 30 30" fill="none" xmlns="http://www.w3.org/2000/svg">
<g filter="url(#filter0_iii_854_854)">
<path d="M14.7399 10.6883C14.5695 11.3502 13.9908 11.8439 13.3068 12.1858C11.3679 12.8567 9.8363 13.5021 8.56899 14.1286C7.44708 14.6832 7.45791 16.4358 8.58346 16.983C9.89857 17.6224 11.5497 18.2355 13.3835 18.9625C13.8766 19.1579 14.5734 19.7101 14.7468 20.3889C15.2813 22.4806 16.0085 24.695 16.8093 26.7391C17.4309 28.326 18.9677 28.3248 19.5924 26.7391C20.4033 24.6808 21.0193 22.4574 21.7146 20.3419C21.881 19.6888 22.3737 19.1723 23.009 18.9472C24.726 18.339 26.3811 17.6526 27.7302 17.0583C28.9901 16.5034 29.0161 14.7019 27.772 14.1125C26.4434 13.4831 24.7908 12.7542 23.0007 12.1038C22.3707 11.8748 21.886 11.3917 21.662 10.7059C20.9075 8.39491 20.4294 6.43564 19.6278 4.40097C19.0031 2.81532 17.3632 2.86413 16.7385 4.44978C15.9399 6.47693 15.3824 8.4947 14.7399 10.6883Z" fill="url(#paint0_linear_854_854)"/>
</g>
<path d="M14.7399 10.6883C14.5695 11.3502 13.9908 11.8439 13.3068 12.1858C11.3679 12.8567 9.8363 13.5021 8.56899 14.1286C7.44708 14.6832 7.45791 16.4358 8.58346 16.983C9.89857 17.6224 11.5497 18.2355 13.3835 18.9625C13.8766 19.1579 14.5734 19.7101 14.7468 20.3889C15.2813 22.4806 16.0085 24.695 16.8093 26.7391C17.4309 28.326 18.9677 28.3248 19.5924 26.7391C20.4033 24.6808 21.0193 22.4574 21.7146 20.3419C21.881 19.6888 22.3737 19.1723 23.009 18.9472C24.726 18.339 26.3811 17.6526 27.7302 17.0583C28.9901 16.5034 29.0161 14.7019 27.772 14.1125C26.4434 13.4831 24.7908 12.7542 23.0007 12.1038C22.3707 11.8748 21.886 11.3917 21.662 10.7059C20.9075 8.39491 20.4294 6.43564 19.6278 4.40097C19.0031 2.81532 17.3632 2.86413 16.7385 4.44978C15.9399 6.47693 15.3824 8.4947 14.7399 10.6883Z" fill="url(#paint1_linear_854_854)"/>
<g filter="url(#filter1_ii_854_854)">
<path d="M6.68672 5.39864C6.63187 5.61165 6.44564 5.77055 6.22549 5.88062C5.60142 6.09654 5.10847 6.30426 4.70058 6.5059C4.33949 6.6844 4.34297 7.2485 4.70524 7.42462C5.12852 7.6304 5.65995 7.82776 6.25017 8.06173C6.40886 8.12463 6.63313 8.30237 6.68896 8.52083C6.86099 9.19406 7.09505 9.90677 7.35279 10.5647C7.55286 11.0754 8.04749 11.075 8.24855 10.5647C8.50953 9.9022 8.70781 9.18658 8.9316 8.50571C8.98515 8.29549 9.14371 8.12925 9.34819 8.05682C9.90082 7.86105 10.4335 7.64012 10.8678 7.44887C11.2733 7.27026 11.2816 6.69042 10.8812 6.50071C10.4536 6.29813 9.9217 6.06355 9.34554 5.8542C9.14275 5.78051 8.98675 5.62501 8.91467 5.40427C8.67181 4.66048 8.51793 4.02987 8.25993 3.375C8.05887 2.86465 7.53107 2.88036 7.33001 3.39071C7.07297 4.04316 6.89352 4.6926 6.68672 5.39864Z" fill="url(#paint2_linear_854_854)"/>
</g>
<path d="M6.68672 5.39864C6.63187 5.61165 6.44564 5.77055 6.22549 5.88062C5.60142 6.09654 5.10847 6.30426 4.70058 6.5059C4.33949 6.6844 4.34297 7.2485 4.70524 7.42462C5.12852 7.6304 5.65995 7.82776 6.25017 8.06173C6.40886 8.12463 6.63313 8.30237 6.68896 8.52083C6.86099 9.19406 7.09505 9.90677 7.35279 10.5647C7.55286 11.0754 8.04749 11.075 8.24855 10.5647C8.50953 9.9022 8.70781 9.18658 8.9316 8.50571C8.98515 8.29549 9.14371 8.12925 9.34819 8.05682C9.90082 7.86105 10.4335 7.64012 10.8678 7.44887C11.2733 7.27026 11.2816 6.69042 10.8812 6.50071C10.4536 6.29813 9.9217 6.06355 9.34554 5.8542C9.14275 5.78051 8.98675 5.62501 8.91467 5.40427C8.67181 4.66048 8.51793 4.02987 8.25993 3.375C8.05887 2.86465 7.53107 2.88036 7.33001 3.39071C7.07297 4.04316 6.89352 4.6926 6.68672 5.39864Z" fill="url(#paint3_linear_854_854)"/>
<g filter="url(#filter2_i_854_854)">
<path d="M4.14461 19.648C4.06812 19.945 3.80843 20.1666 3.50144 20.3201C2.6312 20.6212 1.94381 20.9109 1.37503 21.192C0.871495 21.4409 0.876355 22.2276 1.38152 22.4731C1.97176 22.7601 2.71282 23.0353 3.53585 23.3616C3.75714 23.4493 4.06987 23.6971 4.14772 24.0018C4.38762 24.9406 4.714 25.9344 5.0734 26.8518C5.35239 27.564 6.04214 27.5635 6.32249 26.8518C6.68642 25.928 6.96292 24.9301 7.27498 23.9807C7.34966 23.6875 7.57076 23.4557 7.8559 23.3547C8.62652 23.0817 9.36936 22.7737 9.97488 22.507C10.5403 22.2579 10.552 21.4493 9.9936 21.1848C9.39734 20.9023 8.65563 20.5752 7.8522 20.2833C7.56942 20.1805 7.35188 19.9637 7.25138 19.6559C6.91272 18.6187 6.69814 17.7393 6.33837 16.8261C6.058 16.1145 5.32201 16.1364 5.04164 16.848C4.68321 17.7579 4.43297 18.6635 4.14461 19.648Z" fill="url(#paint4_radial_854_854)"/>
</g>
<defs>
<filter id="filter0_iii_854_854" x="7.3334" y="2.98586" width="21.6068" height="25.193" filterUnits="userSpaceOnUse" color-interpolation-filters="sRGB">
<feFlood flood-opacity="0" result="BackgroundImageFix"/>
<feBlend mode="normal" in="SourceGraphic" in2="BackgroundImageFix" result="shape"/>
<feColorMatrix in="SourceAlpha" type="matrix" values="0 0 0 0 0 0 0 0 0 0 0 0 0 0 0 0 0 0 127 0" result="hardAlpha"/>
<feOffset dx="0.25" dy="-0.25"/>
<feGaussianBlur stdDeviation="0.25"/>
<feComposite in2="hardAlpha" operator="arithmetic" k2="-1" k3="1"/>
<feColorMatrix type="matrix" values="0 0 0 0 0.937255 0 0 0 0 0.482353 0 0 0 0 0.329412 0 0 0 1 0"/>
<feBlend mode="normal" in2="shape" result="effect1_innerShadow_854_854"/>
<feColorMatrix in="SourceAlpha" type="matrix" values="0 0 0 0 0 0 0 0 0 0 0 0 0 0 0 0 0 0 127 0" result="hardAlpha"/>
<feOffset dx="0.25" dy="0.25"/>
<feGaussianBlur stdDeviation="0.5"/>
<feComposite in2="hardAlpha" operator="arithmetic" k2="-1" k3="1"/>
<feColorMatrix type="matrix" values="0 0 0 0 0.737255 0 0 0 0 0.615686 0 0 0 0 0.415686 0 0 0 1 0"/>
<feBlend mode="normal" in2="effect1_innerShadow_854_854" result="effect2_innerShadow_854_854"/>
<feColorMatrix in="SourceAlpha" type="matrix" values="0 0 0 0 0 0 0 0 0 0 0 0 0 0 0 0 0 0 127 0" result="hardAlpha"/>
<feOffset dx="-0.4" dy="0.25"/>
<feGaussianBlur stdDeviation="0.2"/>
<feComposite in2="hardAlpha" operator="arithmetic" k2="-1" k3="1"/>
<feColorMatrix type="matrix" values="0 0 0 0 1 0 0 0 0 0.901961 0 0 0 0 0.458824 0 0 0 1 0"/>
<feBlend mode="normal" in2="effect2_innerShadow_854_854" result="effect3_innerShadow_854_854"/>
</filter>
<filter id="filter1_ii_854_854" x="4.33164" y="3" width="6.94512" height="8.0476" filterUnits="userSpaceOnUse" color-interpolation-filters="sRGB">
<feFlood flood-opacity="0" result="BackgroundImageFix"/>
<feBlend mode="normal" in="SourceGraphic" in2="BackgroundImageFix" result="shape"/>
<feColorMatrix in="SourceAlpha" type="matrix" values="0 0 0 0 0 0 0 0 0 0 0 0 0 0 0 0 0 0 127 0" result="hardAlpha"/>
<feOffset dx="0.1" dy="0.1"/>
<feGaussianBlur stdDeviation="0.1"/>
<feComposite in2="hardAlpha" operator="arithmetic" k2="-1" k3="1"/>
<feColorMatrix type="matrix" values="0 0 0 0 0.803922 0 0 0 0 0.6 0 0 0 0 0.262745 0 0 0 1 0"/>
<feBlend mode="normal" in2="shape" result="effect1_innerShadow_854_854"/>
<feColorMatrix in="SourceAlpha" type="matrix" values="0 0 0 0 0 0 0 0 0 0 0 0 0 0 0 0 0 0 127 0" result="hardAlpha"/>
<feOffset dx="-0.1" dy="0.1"/>
<feGaussianBlur stdDeviation="0.1"/>
<feComposite in2="hardAlpha" operator="arithmetic" k2="-1" k3="1"/>
<feColorMatrix type="matrix" values="0 0 0 0 1 0 0 0 0 0.882353 0 0 0 0 0.423529 0 0 0 1 0"/>
<feBlend mode="normal" in2="effect1_innerShadow_854_854" result="effect2_innerShadow_854_854"/>
</filter>
<filter id="filter2_i_854_854" x="1" y="16.1532" width="9.55576" height="11.2326" filterUnits="userSpaceOnUse" color-interpolation-filters="sRGB">
<feFlood flood-opacity="0" result="BackgroundImageFix"/>
<feBlend mode="normal" in="SourceGraphic" in2="BackgroundImageFix" result="shape"/>
<feColorMatrix in="SourceAlpha" type="matrix" values="0 0 0 0 0 0 0 0 0 0 0 0 0 0 0 0 0 0 127 0" result="hardAlpha"/>
<feOffset dx="0.15" dy="-0.15"/>
<feGaussianBlur stdDeviation="0.15"/>
<feComposite in2="hardAlpha" operator="arithmetic" k2="-1" k3="1"/>
<feColorMatrix type="matrix" values="0 0 0 0 1 0 0 0 0 0.458824 0 0 0 0 0.462745 0 0 0 1 0"/>
<feBlend mode="normal" in2="shape" result="effect1_innerShadow_854_854"/>
</filter>
<linearGradient id="paint0_linear_854_854" x1="25.0474" y1="10.8536" x2="13.9711" y2="22.5137" gradientUnits="userSpaceOnUse">
<stop stop-color="#FFCF5A"/>
<stop offset="1" stop-color="#FEA254"/>
</linearGradient>
<linearGradient id="paint1_linear_854_854" x1="13.6724" y1="28.8726" x2="19.7103" y2="16.1364" gradientUnits="userSpaceOnUse">
<stop stop-color="#FF886D"/>
<stop offset="1" stop-color="#FF886D" stop-opacity="0"/>
</linearGradient>
<linearGradient id="paint2_linear_854_854" x1="10.0043" y1="5.45183" x2="6.43929" y2="9.20472" gradientUnits="userSpaceOnUse">
<stop stop-color="#FFDA72"/>
<stop offset="1" stop-color="#F7A967"/>
</linearGradient>
<linearGradient id="paint3_linear_854_854" x1="7.8042" y1="11.5627" x2="7.8042" y2="7.43766" gradientUnits="userSpaceOnUse">
<stop stop-color="#FDA071"/>
<stop offset="1" stop-color="#FDA071" stop-opacity="0"/>
</linearGradient>
<radialGradient id="paint4_radial_854_854" cx="0" cy="0" r="1" gradientUnits="userSpaceOnUse" gradientTransform="translate(8.93211 18.1494) rotate(127.221) scale(7.07598 6.89067)">
<stop offset="0.364601" stop-color="#FFBC64"/>
<stop offset="1" stop-color="#FF8F6B"/>
</radialGradient>
</defs>
</svg>
