<svg width="30" height="30" viewBox="0 0 30 30" fill="none" xmlns="http://www.w3.org/2000/svg">
<g clip-path="url(#clip0_854_839)">
<g filter="url(#filter0_i_854_839)">
<path d="M12.8281 15.0134L4.00317 14.3801C4.00317 14.3801 4.00317 17.9762 4.37498 20.99C5.15623 26.1463 8.95751 28.865 13.0781 28.865C20.7656 28.865 23.5798 22.959 23.2042 18.9096C22.8287 14.8602 22.7199 14.0761 23.2042 12.7167L25.0531 7.03833C25.3656 6.19458 25.4735 4.26085 23.4735 3.58585C21.4735 2.91085 20.4212 4.56973 20.1347 5.35098L18.2319 11.0174C18.0522 11.3064 17.8335 11.1033 17.8335 10.9627C17.7397 9.23351 17.5464 5.30462 17.3464 3.30462C17.1577 1.41769 15.4034 0.934026 14.57 1.00694C12.845 1.13194 12.1105 2.78797 12.1886 3.53798L12.8281 15.0134Z" fill="#FFBB44"/>
<path d="M12.8281 15.0134L4.00317 14.3801C4.00317 14.3801 4.00317 17.9762 4.37498 20.99C5.15623 26.1463 8.95751 28.865 13.0781 28.865C20.7656 28.865 23.5798 22.959 23.2042 18.9096C22.8287 14.8602 22.7199 14.0761 23.2042 12.7167L25.0531 7.03833C25.3656 6.19458 25.4735 4.26085 23.4735 3.58585C21.4735 2.91085 20.4212 4.56973 20.1347 5.35098L18.2319 11.0174C18.0522 11.3064 17.8335 11.1033 17.8335 10.9627C17.7397 9.23351 17.5464 5.30462 17.3464 3.30462C17.1577 1.41769 15.4034 0.934026 14.57 1.00694C12.845 1.13194 12.1105 2.78797 12.1886 3.53798L12.8281 15.0134Z" fill="url(#paint0_radial_854_839)"/>
</g>
<g filter="url(#filter1_f_854_839)">
<path d="M7.71898 13.208C7.71898 11.3773 8.65055 10.7637 9.79971 10.7637C10.9489 10.7637 11.8804 11.642 11.8804 13.208V15.1719C11.8804 16.5218 10.9489 17.4417 9.79971 17.4417C8.65055 17.4417 7.71898 16.5218 7.71898 15.1719V13.208Z" fill="#CD6322"/>
<path d="M5.16992 13.1341C5.16992 11.3588 6.07332 10.7637 7.18773 10.7637C8.30213 10.7637 9.20553 11.6155 9.20553 13.1341V15.0385C9.20553 16.3477 8.30213 17.2398 7.18773 17.2398C6.07332 17.2398 5.16992 16.3477 5.16992 15.0385V13.1341Z" fill="#CD6322"/>
</g>
<path d="M4 12.327C4 10.4776 5.20323 9.52905 6.6875 9.52905C8.17177 9.52905 9.10938 10.7817 9.10938 12.327V14.5749C9.10938 16.1201 8.17177 17.0212 6.6875 17.0212C5.20323 17.0212 4 16.1201 4 14.5749V12.327Z" fill="url(#paint1_radial_854_839)"/>
<path d="M4 12.327C4 10.4776 5.20323 9.52905 6.6875 9.52905C8.17177 9.52905 9.10938 10.7817 9.10938 12.327V14.5749C9.10938 16.1201 8.17177 17.0212 6.6875 17.0212C5.20323 17.0212 4 16.1201 4 14.5749V12.327Z" fill="url(#paint2_radial_854_839)"/>
<path d="M4 12.327C4 10.4776 5.20323 9.52905 6.6875 9.52905C8.17177 9.52905 9.10938 10.7817 9.10938 12.327V14.5749C9.10938 16.1201 8.17177 17.0212 6.6875 17.0212C5.20323 17.0212 4 16.1201 4 14.5749V12.327Z" fill="url(#paint3_radial_854_839)"/>
<path d="M4 12.327C4 10.4776 5.20323 9.52905 6.6875 9.52905C8.17177 9.52905 9.10938 10.7817 9.10938 12.327V14.5749C9.10938 16.1201 8.17177 17.0212 6.6875 17.0212C5.20323 17.0212 4 16.1201 4 14.5749V12.327Z" fill="url(#paint4_linear_854_839)"/>
<path d="M8.07617 11.6485C8.07617 9.27124 9.28588 8.47437 10.7781 8.47437C12.2704 8.47437 13.4801 9.61499 13.4801 11.6485V14.1987C13.4801 15.9517 12.2704 17.1462 10.7781 17.1462C9.28588 17.1462 8.07617 15.9517 8.07617 14.1987V11.6485Z" fill="url(#paint5_radial_854_839)"/>
<path d="M8.07617 11.6485C8.07617 9.27124 9.28588 8.47437 10.7781 8.47437C12.2704 8.47437 13.4801 9.61499 13.4801 11.6485V14.1987C13.4801 15.9517 12.2704 17.1462 10.7781 17.1462C9.28588 17.1462 8.07617 15.9517 8.07617 14.1987V11.6485Z" fill="url(#paint6_radial_854_839)"/>
<path d="M8.07617 11.6485C8.07617 9.27124 9.28588 8.47437 10.7781 8.47437C12.2704 8.47437 13.4801 9.61499 13.4801 11.6485V14.1987C13.4801 15.9517 12.2704 17.1462 10.7781 17.1462C9.28588 17.1462 8.07617 15.9517 8.07617 14.1987V11.6485Z" fill="url(#paint7_radial_854_839)"/>
<g filter="url(#filter2_f_854_839)">
<path d="M15.2658 20.8313C17.1544 20.8313 19.3108 20.788 19.7919 22.9246C20.2422 24.9238 22.1154 23.4257 21.6571 20.8313C21.0788 17.5579 18.5197 15.9953 15.2658 16.1327C13.54 16.2056 13.0491 17.6461 13.0491 18.3667C13.0491 19.0874 13.3772 20.8313 15.2658 20.8313Z" fill="#EB872F"/>
</g>
<path d="M16.1562 19.7869C18.2062 19.7869 19.3201 21.4711 19.8424 23.7873C20.3311 25.9547 23.5912 22.5994 23.0938 19.7869C22.4661 16.2381 19.6882 14.5442 16.1562 14.6931C14.2828 14.7721 13.75 16.3337 13.75 17.115C13.75 17.8962 14.1062 19.7869 16.1562 19.7869Z" fill="#FFBB44"/>
<path d="M16.1562 19.7869C18.2062 19.7869 19.3201 21.4711 19.8424 23.7873C20.3311 25.9547 23.5912 22.5994 23.0938 19.7869C22.4661 16.2381 19.6882 14.5442 16.1562 14.6931C14.2828 14.7721 13.75 16.3337 13.75 17.115C13.75 17.8962 14.1062 19.7869 16.1562 19.7869Z" fill="url(#paint8_radial_854_839)"/>
<path d="M16.1562 19.7869C18.2062 19.7869 19.3201 21.4711 19.8424 23.7873C20.3311 25.9547 23.5912 22.5994 23.0938 19.7869C22.4661 16.2381 19.6882 14.5442 16.1562 14.6931C14.2828 14.7721 13.75 16.3337 13.75 17.115C13.75 17.8962 14.1062 19.7869 16.1562 19.7869Z" fill="url(#paint9_radial_854_839)"/>
<path d="M16.1562 19.7869C18.2062 19.7869 19.3201 21.4711 19.8424 23.7873C20.3311 25.9547 23.5912 22.5994 23.0938 19.7869C22.4661 16.2381 19.6882 14.5442 16.1562 14.6931C14.2828 14.7721 13.75 16.3337 13.75 17.115C13.75 17.8962 14.1062 19.7869 16.1562 19.7869Z" fill="url(#paint10_radial_854_839)"/>
<path d="M12.8281 15.0134L4.00317 14.3801C4.00317 14.3801 4.00317 17.9762 4.37498 20.99C5.15623 26.1463 8.95751 28.865 13.0781 28.865C20.7656 28.865 23.5798 22.959 23.2042 18.9096C22.8287 14.8602 22.7199 14.0761 23.2042 12.7167L25.0531 7.03833C25.3656 6.19458 25.4735 4.26085 23.4735 3.58585C21.4735 2.91085 20.4212 4.56973 20.1347 5.35098L18.2319 11.0174C18.0522 11.3064 17.8335 11.1033 17.8335 10.9627C17.7397 9.23351 17.5464 5.30462 17.3464 3.30462C17.1577 1.41769 15.4034 0.934026 14.57 1.00694C12.845 1.13194 12.1105 2.78797 12.1886 3.53798L12.8281 15.0134Z" fill="url(#paint11_radial_854_839)"/>
<path d="M12.8281 15.0134L4.00317 14.3801C4.00317 14.3801 4.00317 17.9762 4.37498 20.99C5.15623 26.1463 8.95751 28.865 13.0781 28.865C20.7656 28.865 23.5798 22.959 23.2042 18.9096C22.8287 14.8602 22.7199 14.0761 23.2042 12.7167L25.0531 7.03833C25.3656 6.19458 25.4735 4.26085 23.4735 3.58585C21.4735 2.91085 20.4212 4.56973 20.1347 5.35098L18.2319 11.0174C18.0522 11.3064 17.8335 11.1033 17.8335 10.9627C17.7397 9.23351 17.5464 5.30462 17.3464 3.30462C17.1577 1.41769 15.4034 0.934026 14.57 1.00694C12.845 1.13194 12.1105 2.78797 12.1886 3.53798L12.8281 15.0134Z" fill="url(#paint12_radial_854_839)"/>
<path d="M12.8281 15.0134L4.00317 14.3801C4.00317 14.3801 4.00317 17.9762 4.37498 20.99C5.15623 26.1463 8.95751 28.865 13.0781 28.865C20.7656 28.865 23.5798 22.959 23.2042 18.9096C22.8287 14.8602 22.7199 14.0761 23.2042 12.7167L25.0531 7.03833C25.3656 6.19458 25.4735 4.26085 23.4735 3.58585C21.4735 2.91085 20.4212 4.56973 20.1347 5.35098L18.2319 11.0174C18.0522 11.3064 17.8335 11.1033 17.8335 10.9627C17.7397 9.23351 17.5464 5.30462 17.3464 3.30462C17.1577 1.41769 15.4034 0.934026 14.57 1.00694C12.845 1.13194 12.1105 2.78797 12.1886 3.53798L12.8281 15.0134Z" fill="url(#paint13_radial_854_839)"/>
<path d="M12.8281 15.0134L4.00317 14.3801C4.00317 14.3801 4.00317 17.9762 4.37498 20.99C5.15623 26.1463 8.95751 28.865 13.0781 28.865C20.7656 28.865 23.5798 22.959 23.2042 18.9096C22.8287 14.8602 22.7199 14.0761 23.2042 12.7167L25.0531 7.03833C25.3656 6.19458 25.4735 4.26085 23.4735 3.58585C21.4735 2.91085 20.4212 4.56973 20.1347 5.35098L18.2319 11.0174C18.0522 11.3064 17.8335 11.1033 17.8335 10.9627C17.7397 9.23351 17.5464 5.30462 17.3464 3.30462C17.1577 1.41769 15.4034 0.934026 14.57 1.00694C12.845 1.13194 12.1105 2.78797 12.1886 3.53798L12.8281 15.0134Z" fill="url(#paint14_radial_854_839)"/>
<path d="M12.8281 15.0134L4.00317 14.3801C4.00317 14.3801 4.00317 17.9762 4.37498 20.99C5.15623 26.1463 8.95751 28.865 13.0781 28.865C20.7656 28.865 23.5798 22.959 23.2042 18.9096C22.8287 14.8602 22.7199 14.0761 23.2042 12.7167L25.0531 7.03833C25.3656 6.19458 25.4735 4.26085 23.4735 3.58585C21.4735 2.91085 20.4212 4.56973 20.1347 5.35098L18.2319 11.0174C18.0522 11.3064 17.8335 11.1033 17.8335 10.9627C17.7397 9.23351 17.5464 5.30462 17.3464 3.30462C17.1577 1.41769 15.4034 0.934026 14.57 1.00694C12.845 1.13194 12.1105 2.78797 12.1886 3.53798L12.8281 15.0134Z" fill="url(#paint15_radial_854_839)"/>
<path d="M12.8281 15.0134L4.00317 14.3801C4.00317 14.3801 4.00317 17.9762 4.37498 20.99C5.15623 26.1463 8.95751 28.865 13.0781 28.865C20.7656 28.865 23.5798 22.959 23.2042 18.9096C22.8287 14.8602 22.7199 14.0761 23.2042 12.7167L25.0531 7.03833C25.3656 6.19458 25.4735 4.26085 23.4735 3.58585C21.4735 2.91085 20.4212 4.56973 20.1347 5.35098L18.2319 11.0174C18.0522 11.3064 17.8335 11.1033 17.8335 10.9627C17.7397 9.23351 17.5464 5.30462 17.3464 3.30462C17.1577 1.41769 15.4034 0.934026 14.57 1.00694C12.845 1.13194 12.1105 2.78797 12.1886 3.53798L12.8281 15.0134Z" fill="url(#paint16_radial_854_839)"/>
<path d="M12.8281 15.0134L4.00317 14.3801C4.00317 14.3801 4.00317 17.9762 4.37498 20.99C5.15623 26.1463 8.95751 28.865 13.0781 28.865C20.7656 28.865 23.5798 22.959 23.2042 18.9096C22.8287 14.8602 22.7199 14.0761 23.2042 12.7167L25.0531 7.03833C25.3656 6.19458 25.4735 4.26085 23.4735 3.58585C21.4735 2.91085 20.4212 4.56973 20.1347 5.35098L18.2319 11.0174C18.0522 11.3064 17.8335 11.1033 17.8335 10.9627C17.7397 9.23351 17.5464 5.30462 17.3464 3.30462C17.1577 1.41769 15.4034 0.934026 14.57 1.00694C12.845 1.13194 12.1105 2.78797 12.1886 3.53798L12.8281 15.0134Z" fill="url(#paint17_radial_854_839)"/>
<g filter="url(#filter3_f_854_839)">
<path d="M15.6438 2.61804L16.5055 11.935" stroke="#FFE746" stroke-width="1.5" stroke-linecap="round"/>
</g>
<g filter="url(#filter4_f_854_839)">
<path d="M23.9231 5.69785L20.948 13.819" stroke="#FFE746" stroke-linecap="round"/>
</g>
<g filter="url(#filter5_f_854_839)">
<path d="M16.6863 16.0302C18.0532 15.9364 20.9961 16.5689 21.8324 19.8495" stroke="url(#paint18_linear_854_839)" stroke-linecap="round"/>
</g>
</g>
<defs>
<filter id="filter0_i_854_839" x="4.00317" y="0" width="21.7249" height="28.865" filterUnits="userSpaceOnUse" color-interpolation-filters="sRGB">
<feFlood flood-opacity="0" result="BackgroundImageFix"/>
<feBlend mode="normal" in="SourceGraphic" in2="BackgroundImageFix" result="shape"/>
<feColorMatrix in="SourceAlpha" type="matrix" values="0 0 0 0 0 0 0 0 0 0 0 0 0 0 0 0 0 0 127 0" result="hardAlpha"/>
<feOffset dx="0.5" dy="-1"/>
<feGaussianBlur stdDeviation="1"/>
<feComposite in2="hardAlpha" operator="arithmetic" k2="-1" k3="1"/>
<feColorMatrix type="matrix" values="0 0 0 0 0.976471 0 0 0 0 0.501961 0 0 0 0 0.443137 0 0 0 1 0"/>
<feBlend mode="normal" in2="shape" result="effect1_innerShadow_854_839"/>
</filter>
<filter id="filter1_f_854_839" x="4.16992" y="9.76367" width="8.71045" height="8.67806" filterUnits="userSpaceOnUse" color-interpolation-filters="sRGB">
<feFlood flood-opacity="0" result="BackgroundImageFix"/>
<feBlend mode="normal" in="SourceGraphic" in2="BackgroundImageFix" result="shape"/>
<feGaussianBlur stdDeviation="0.5" result="effect1_foregroundBlur_854_839"/>
</filter>
<filter id="filter2_f_854_839" x="12.0491" y="15.1244" width="10.6797" height="9.72371" filterUnits="userSpaceOnUse" color-interpolation-filters="sRGB">
<feFlood flood-opacity="0" result="BackgroundImageFix"/>
<feBlend mode="normal" in="SourceGraphic" in2="BackgroundImageFix" result="shape"/>
<feGaussianBlur stdDeviation="0.5" result="effect1_foregroundBlur_854_839"/>
</filter>
<filter id="filter3_f_854_839" x="12.8938" y="-0.132004" width="6.36182" height="14.8171" filterUnits="userSpaceOnUse" color-interpolation-filters="sRGB">
<feFlood flood-opacity="0" result="BackgroundImageFix"/>
<feBlend mode="normal" in="SourceGraphic" in2="BackgroundImageFix" result="shape"/>
<feGaussianBlur stdDeviation="1" result="effect1_foregroundBlur_854_839"/>
</filter>
<filter id="filter4_f_854_839" x="18.4478" y="3.19771" width="7.97534" height="13.1214" filterUnits="userSpaceOnUse" color-interpolation-filters="sRGB">
<feFlood flood-opacity="0" result="BackgroundImageFix"/>
<feBlend mode="normal" in="SourceGraphic" in2="BackgroundImageFix" result="shape"/>
<feGaussianBlur stdDeviation="1" result="effect1_foregroundBlur_854_839"/>
</filter>
<filter id="filter5_f_854_839" x="14.6863" y="14.0216" width="9.14624" height="7.82807" filterUnits="userSpaceOnUse" color-interpolation-filters="sRGB">
<feFlood flood-opacity="0" result="BackgroundImageFix"/>
<feBlend mode="normal" in="SourceGraphic" in2="BackgroundImageFix" result="shape"/>
<feGaussianBlur stdDeviation="0.75" result="effect1_foregroundBlur_854_839"/>
</filter>
<radialGradient id="paint0_radial_854_839" cx="0" cy="0" r="1" gradientUnits="userSpaceOnUse" gradientTransform="translate(4.50345 19.6462) scale(6.46875 17.6975)">
<stop stop-color="#FFBF36"/>
<stop offset="1" stop-color="#FFC736" stop-opacity="0"/>
</radialGradient>
<radialGradient id="paint1_radial_854_839" cx="0" cy="0" r="1" gradientUnits="userSpaceOnUse" gradientTransform="translate(7.36092 13.514) rotate(-180) scale(2.40393 8.45019)">
<stop stop-color="#FFD237"/>
<stop offset="1" stop-color="#FFBA32"/>
</radialGradient>
<radialGradient id="paint2_radial_854_839" cx="0" cy="0" r="1" gradientUnits="userSpaceOnUse" gradientTransform="translate(7.66148 14.8004) rotate(-117.91) scale(5.9652 9.82892)">
<stop offset="0.663957" stop-color="#F2AF43" stop-opacity="0"/>
<stop offset="0.96714" stop-color="#F2AF43"/>
</radialGradient>
<radialGradient id="paint3_radial_854_839" cx="0" cy="0" r="1" gradientUnits="userSpaceOnUse" gradientTransform="translate(6.55469 9.73999) rotate(90) scale(7.59375 6.05121)">
<stop offset="0.773663" stop-color="#F58E33" stop-opacity="0"/>
<stop offset="1" stop-color="#F58E33"/>
</radialGradient>
<linearGradient id="paint4_linear_854_839" x1="8.92212" y1="13.2751" x2="7.57537" y2="13.2751" gradientUnits="userSpaceOnUse">
<stop stop-color="#C3832A"/>
<stop offset="1" stop-color="#C3832A" stop-opacity="0"/>
</linearGradient>
<radialGradient id="paint5_radial_854_839" cx="0" cy="0" r="1" gradientUnits="userSpaceOnUse" gradientTransform="translate(13.0361 12.2481) rotate(-180) scale(4.39249 12.4392)">
<stop stop-color="#FFE73F"/>
<stop offset="1" stop-color="#EDA220"/>
</radialGradient>
<radialGradient id="paint6_radial_854_839" cx="0" cy="0" r="1" gradientUnits="userSpaceOnUse" gradientTransform="translate(11.8759 13.8527) rotate(-119.055) scale(5.8514 5.77771)">
<stop offset="0.689644" stop-color="#DE9E44" stop-opacity="0"/>
<stop offset="1" stop-color="#DE9E44"/>
</radialGradient>
<radialGradient id="paint7_radial_854_839" cx="0" cy="0" r="1" gradientUnits="userSpaceOnUse" gradientTransform="translate(12.1502 8.88917) rotate(104.21) scale(8.87186 6.46006)">
<stop offset="0.733339" stop-color="#E9823B" stop-opacity="0"/>
<stop offset="1" stop-color="#E9823B"/>
</radialGradient>
<radialGradient id="paint8_radial_854_839" cx="0" cy="0" r="1" gradientUnits="userSpaceOnUse" gradientTransform="translate(16.5795 23.4816) rotate(-49.8521) scale(7.96002 8.4958)">
<stop offset="0.601618" stop-color="#FFE444" stop-opacity="0"/>
<stop offset="1" stop-color="#FFE444"/>
</radialGradient>
<radialGradient id="paint9_radial_854_839" cx="0" cy="0" r="1" gradientUnits="userSpaceOnUse" gradientTransform="translate(17.032 21.5437) rotate(-68.4782) scale(3.85889 5.4738)">
<stop offset="0.413677" stop-color="#F5863B"/>
<stop offset="1" stop-color="#F5863B" stop-opacity="0"/>
</radialGradient>
<radialGradient id="paint10_radial_854_839" cx="0" cy="0" r="1" gradientUnits="userSpaceOnUse" gradientTransform="translate(14.1034 16.1117) rotate(28.6731) scale(3.44555 5.76373)">
<stop stop-color="#EEAE11"/>
<stop offset="1" stop-color="#EEAE11" stop-opacity="0"/>
</radialGradient>
<radialGradient id="paint11_radial_854_839" cx="0" cy="0" r="1" gradientUnits="userSpaceOnUse" gradientTransform="translate(-0.674295 18.4515) rotate(0.261624) scale(23.5889 29.0645)">
<stop offset="0.867121" stop-color="#FFC53B" stop-opacity="0"/>
<stop offset="1" stop-color="#FFC53B"/>
</radialGradient>
<radialGradient id="paint12_radial_854_839" cx="0" cy="0" r="1" gradientUnits="userSpaceOnUse" gradientTransform="translate(20.3526 14.9325) rotate(135.311) scale(6.40921 7.03808)">
<stop stop-color="#FFD131"/>
<stop offset="1" stop-color="#FFD131" stop-opacity="0"/>
</radialGradient>
<radialGradient id="paint13_radial_854_839" cx="0" cy="0" r="1" gradientUnits="userSpaceOnUse" gradientTransform="translate(18.1753 9.11498) rotate(96.5463) scale(3.83752 0.631104)">
<stop offset="0.498573" stop-color="#CD9028"/>
<stop offset="1" stop-color="#CD9028" stop-opacity="0"/>
</radialGradient>
<radialGradient id="paint14_radial_854_839" cx="0" cy="0" r="1" gradientUnits="userSpaceOnUse" gradientTransform="translate(16.7479 1.64865) rotate(119.168) scale(2.65206 3.01843)">
<stop stop-color="#FFE847"/>
<stop offset="1" stop-color="#FFE847" stop-opacity="0"/>
</radialGradient>
<radialGradient id="paint15_radial_854_839" cx="0" cy="0" r="1" gradientUnits="userSpaceOnUse" gradientTransform="translate(19.7534 6.30247) rotate(17.5255) scale(1.2453 7.96587)">
<stop stop-color="#D19532"/>
<stop offset="1" stop-color="#D19532" stop-opacity="0"/>
</radialGradient>
<radialGradient id="paint16_radial_854_839" cx="0" cy="0" r="1" gradientUnits="userSpaceOnUse" gradientTransform="translate(21.5912 3.48663) rotate(67.8905) scale(1.38863 2.14289)">
<stop stop-color="#D3AE52"/>
<stop offset="1" stop-color="#D3AE52" stop-opacity="0"/>
</radialGradient>
<radialGradient id="paint17_radial_854_839" cx="0" cy="0" r="1" gradientUnits="userSpaceOnUse" gradientTransform="translate(24.6377 4.26063) rotate(132.709) scale(2.85839 3.24493)">
<stop stop-color="#FFE847"/>
<stop offset="1" stop-color="#FFE847" stop-opacity="0"/>
</radialGradient>
<linearGradient id="paint18_linear_854_839" x1="16.9677" y1="16.0215" x2="22.1138" y2="19.3671" gradientUnits="userSpaceOnUse">
<stop stop-color="#FFE746"/>
<stop offset="1" stop-color="#FFE746" stop-opacity="0"/>
</linearGradient>
<clipPath id="clip0_854_839">
<rect width="30" height="30" fill="white"/>
</clipPath>
</defs>
</svg>
