<svg width="408" height="408" viewBox="0 0 408 408" fill="none" xmlns="http://www.w3.org/2000/svg">
<path fill-rule="evenodd" clip-rule="evenodd" d="M209.289 6.4748C206.556 3.12949 201.443 3.12949 198.711 6.4748C196.161 9.59666 191.475 9.84219 188.613 7.004C185.546 3.96266 180.461 4.49711 178.093 8.10973C175.883 11.481 171.249 12.215 168.106 9.69152C164.737 6.98746 159.736 8.05051 157.759 11.8909C155.913 15.4747 151.382 16.689 147.992 14.5079C144.359 12.1708 139.496 13.7508 137.931 17.7768C136.47 21.5339 132.09 23.2152 128.491 21.4004C124.634 19.4558 119.963 21.5355 118.827 25.703C117.767 29.5922 113.587 31.7221 109.818 30.2936C105.779 28.7628 101.351 31.3193 100.657 35.5827C100.009 39.5614 96.0746 42.1166 92.1765 41.0898C87.9995 39.9896 83.863 42.995 83.6185 47.3076C83.3904 51.3322 79.7444 54.2846 75.7604 53.671C71.4912 53.0134 67.6915 56.4347 67.8992 60.7492C68.093 64.7756 64.7756 68.093 60.7492 67.8992C56.4347 67.6915 53.0134 71.4912 53.671 75.7604C54.2846 79.7444 51.3322 83.3904 47.3076 83.6185C42.995 83.863 39.9896 87.9995 41.0898 92.1765C42.1166 96.0746 39.5614 100.009 35.5827 100.657C31.3193 101.351 28.7628 105.779 30.2936 109.818C31.7221 113.587 29.5922 117.767 25.703 118.827C21.5355 119.963 19.4558 124.634 21.4004 128.491C23.2152 132.09 21.5339 136.47 17.7768 137.931C13.7508 139.496 12.1708 144.359 14.5079 147.992C16.689 151.382 15.4747 155.913 11.8909 157.759C8.05051 159.736 6.98746 164.737 9.69152 168.106C12.215 171.249 11.481 175.883 8.10973 178.093C4.49711 180.461 3.96266 185.546 7.004 188.613C9.84219 191.475 9.59666 196.161 6.4748 198.711C3.12949 201.443 3.12949 206.556 6.4748 209.289C9.59666 211.839 9.84219 216.524 7.004 219.387C3.96266 222.454 4.49711 227.539 8.10973 229.907C11.481 232.117 12.215 236.751 9.69152 239.894C6.98746 243.262 8.05051 248.264 11.8909 250.241C15.4747 252.086 16.689 256.618 14.5079 260.008C12.1708 263.641 13.7508 268.504 17.7768 270.069C21.5339 271.529 23.2152 275.909 21.4004 279.509C19.4558 283.366 21.5355 288.037 25.703 289.172C29.5922 290.232 31.7221 294.412 30.2936 298.182C28.7628 302.221 31.3193 306.649 35.5827 307.343C39.5614 307.99 42.1166 311.925 41.0898 315.823C39.9896 320 42.995 324.137 47.3076 324.381C51.3322 324.609 54.2846 328.255 53.671 332.239C53.0134 336.508 56.4347 340.308 60.7492 340.1C64.7756 339.907 68.093 343.224 67.8992 347.25C67.6915 351.565 71.4912 354.986 75.7604 354.329C79.7444 353.715 83.3904 356.668 83.6185 360.692C83.863 365.005 87.9995 368.01 92.1765 366.91C96.0746 365.883 100.009 368.438 100.657 372.417C101.351 376.68 105.779 379.237 109.818 377.706C113.587 376.278 117.767 378.407 118.827 382.297C119.963 386.464 124.634 388.544 128.491 386.599C132.09 384.784 136.47 386.466 137.931 390.223C139.496 394.249 144.359 395.829 147.992 393.492C151.382 391.311 155.913 392.525 157.759 396.109C159.736 399.949 164.737 401.012 168.106 398.308C171.249 395.785 175.883 396.519 178.093 399.89C180.461 403.503 185.546 404.037 188.613 400.996C191.475 398.157 196.161 398.403 198.711 401.525C201.443 404.87 206.556 404.87 209.289 401.525C211.839 398.403 216.524 398.157 219.387 400.996C222.454 404.037 227.539 403.503 229.907 399.89C232.117 396.519 236.751 395.785 239.894 398.308C243.262 401.012 248.264 399.949 250.241 396.109C252.086 392.525 256.618 391.311 260.008 393.492C263.641 395.829 268.504 394.249 270.069 390.223C271.529 386.466 275.909 384.784 279.509 386.599C283.366 388.544 288.037 386.464 289.172 382.297C290.232 378.407 294.412 376.278 298.182 377.706C302.221 379.237 306.649 376.68 307.343 372.417C307.99 368.438 311.925 365.883 315.823 366.91C320 368.01 324.137 365.005 324.381 360.692C324.609 356.668 328.255 353.715 332.239 354.329C336.508 354.986 340.308 351.565 340.1 347.25C339.907 343.224 343.224 339.907 347.25 340.1C351.565 340.308 354.986 336.508 354.329 332.239C353.715 328.255 356.668 324.609 360.692 324.381C365.005 324.137 368.01 320 366.91 315.823C365.883 311.925 368.438 307.99 372.417 307.343C376.68 306.649 379.237 302.221 377.706 298.182C376.278 294.412 378.407 290.232 382.297 289.172C386.464 288.037 388.544 283.366 386.599 279.509C384.784 275.909 386.466 271.529 390.223 270.069C394.249 268.504 395.829 263.641 393.492 260.008C391.311 256.618 392.525 252.086 396.109 250.241C399.949 248.264 401.012 243.262 398.308 239.894C395.785 236.751 396.519 232.117 399.89 229.907C403.503 227.539 404.037 222.454 400.996 219.387C398.157 216.524 398.403 211.839 401.525 209.289C404.87 206.556 404.87 201.443 401.525 198.711C398.403 196.161 398.157 191.475 400.996 188.613C404.037 185.546 403.503 180.461 399.89 178.093C396.519 175.883 395.785 171.249 398.308 168.106C401.012 164.737 399.949 159.736 396.109 157.759C392.525 155.913 391.311 151.382 393.492 147.992C395.829 144.359 394.249 139.496 390.223 137.931C386.466 136.47 384.784 132.09 386.599 128.491C388.544 124.634 386.464 119.963 382.297 118.827C378.407 117.767 376.278 113.587 377.706 109.818C379.237 105.779 376.68 101.351 372.417 100.657C368.438 100.009 365.883 96.0746 366.91 92.1765C368.01 87.9995 365.005 83.863 360.692 83.6185C356.668 83.3904 353.715 79.7444 354.329 75.7604C354.986 71.4912 351.565 67.6915 347.25 67.8992C343.224 68.093 339.907 64.7756 340.1 60.7492C340.308 56.4347 336.508 53.0134 332.239 53.671C328.255 54.2846 324.609 51.3322 324.381 47.3076C324.137 42.995 320 39.9897 315.823 41.0898C311.925 42.1166 307.99 39.5614 307.343 35.5827C306.649 31.3193 302.221 28.7628 298.182 30.2936C294.412 31.7221 290.232 29.5922 289.172 25.703C288.037 21.5355 283.366 19.4558 279.509 21.4004C275.909 23.2152 271.529 21.5339 270.069 17.7768C268.504 13.7508 263.641 12.1708 260.008 14.5079C256.618 16.689 252.086 15.4747 250.241 11.8909C248.264 8.05051 243.262 6.98746 239.894 9.69152C236.751 12.215 232.117 11.481 229.907 8.10973C227.539 4.49711 222.454 3.96266 219.387 7.004C216.524 9.84219 211.839 9.59666 209.289 6.4748ZM204 64.9998C127.232 64.9998 64.9998 127.232 64.9998 204C64.9998 280.767 127.232 343 204 343C280.767 343 343 280.767 343 204C343 127.232 280.767 64.9998 204 64.9998Z" fill="#6B75F9"/>
<path d="M362.522 217.863L362.697 214.615L369.635 214.991C369.454 214.043 369.331 213.135 369.266 212.267C369.2 211.406 369.207 210.601 369.288 209.852C369.368 209.112 369.529 208.439 369.77 207.835C370.011 207.232 370.355 206.721 370.802 206.305C371.248 205.896 371.802 205.59 372.462 205.385C373.13 205.181 373.927 205.104 374.854 205.154L380.569 205.463L380.394 208.71L374.678 208.401C374.007 208.365 373.442 208.451 372.982 208.658C372.522 208.866 372.174 209.227 371.938 209.743C371.701 210.267 371.579 210.966 371.572 211.839C371.573 212.72 371.69 213.812 371.924 215.114L380.024 215.552L379.848 218.8L362.522 217.863Z" fill="white"/>
<path d="M359.643 237.732L360.054 235.27C360.1 234.994 360.205 234.78 360.368 234.629C360.539 234.479 360.735 234.378 360.954 234.325L364.659 233.63L365.844 226.54L362.566 224.679C362.395 224.585 362.249 224.435 362.13 224.229C362.01 224.022 361.973 223.781 362.02 223.505L362.433 221.031L378.425 230.613L377.881 233.868L359.643 237.732ZM367.956 227.733L367.045 233.189L373.086 232.057C373.355 231.997 373.669 231.939 374.027 231.886C374.393 231.833 374.786 231.785 375.207 231.742C374.823 231.564 374.466 231.391 374.138 231.223C373.808 231.062 373.521 230.909 373.278 230.763L367.956 227.733Z" fill="white"/>
<path d="M359.579 253.538C359.531 253.707 359.423 253.839 359.256 253.933L357.581 254.78C356.934 253.865 356.528 252.848 356.363 251.729C356.195 250.617 356.308 249.369 356.7 247.983C357.051 246.744 357.579 245.688 358.284 244.815C358.986 243.949 359.814 243.273 360.766 242.787C361.719 242.3 362.772 242.016 363.926 241.935C365.077 241.862 366.273 242.001 367.512 242.352C368.767 242.708 369.857 243.233 370.783 243.927C371.716 244.624 372.457 245.441 373.007 246.378C373.554 247.323 373.893 248.359 374.023 249.485C374.16 250.613 374.056 251.789 373.709 253.013C373.365 254.229 372.859 255.25 372.193 256.076C371.525 256.909 370.774 257.565 369.94 258.044L368.791 256.596C368.716 256.508 368.658 256.405 368.617 256.285C368.574 256.173 368.576 256.032 368.624 255.863C368.657 255.747 368.721 255.637 368.818 255.531C368.922 255.428 369.041 255.316 369.175 255.196C369.316 255.078 369.472 254.939 369.642 254.779C369.812 254.62 369.979 254.426 370.143 254.198C370.315 253.972 370.48 253.699 370.638 253.378C370.801 253.066 370.944 252.691 371.069 252.252C371.28 251.506 371.339 250.783 371.247 250.083C371.159 249.393 370.925 248.753 370.543 248.162C370.169 247.574 369.652 247.054 368.99 246.6C368.337 246.149 367.544 245.791 366.613 245.528C365.674 245.262 364.801 245.156 363.996 245.21C363.188 245.273 362.47 245.46 361.841 245.772C361.212 246.085 360.676 246.511 360.232 247.05C359.796 247.592 359.478 248.217 359.277 248.925C359.157 249.348 359.072 249.736 359.023 250.088C358.971 250.447 358.954 250.783 358.974 251.097C358.991 251.417 359.041 251.727 359.123 252.024C359.21 252.332 359.333 252.645 359.492 252.965C359.54 253.061 359.571 253.157 359.585 253.253C359.607 253.351 359.606 253.446 359.579 253.538Z" fill="white"/>
<path d="M365.585 275.151L363.123 274.164L365.071 269.308L351.427 263.836L352.629 260.84L366.273 266.312L368.22 261.456L370.682 262.444L365.585 275.151Z" fill="white"/>
<path d="M347.875 290.633C346.756 290.027 345.82 289.278 345.065 288.387C344.314 287.507 343.773 286.54 343.443 285.487C343.113 284.435 343.008 283.327 343.129 282.164C343.257 281.005 343.635 279.845 344.264 278.685C344.889 277.531 345.653 276.585 346.554 275.845C347.463 275.109 348.45 274.588 349.516 274.283C350.578 273.986 351.685 273.908 352.837 274.05C353.995 274.195 355.134 274.571 356.252 275.177C357.37 275.784 358.303 276.53 359.051 277.418C359.805 278.309 360.347 279.281 360.678 280.334C361.004 281.393 361.104 282.503 360.976 283.662C360.855 284.825 360.482 285.983 359.857 287.136C359.437 287.91 358.951 288.588 358.399 289.172C357.853 289.758 357.261 290.247 356.621 290.638C355.989 291.032 355.315 291.327 354.6 291.521C353.888 291.727 353.158 291.832 352.41 291.835C351.661 291.839 350.906 291.739 350.143 291.535C349.376 291.338 348.62 291.037 347.875 290.633ZM349.447 287.732C350.284 288.185 351.094 288.479 351.877 288.612C352.667 288.749 353.407 288.736 354.096 288.573C354.785 288.41 355.415 288.096 355.985 287.631C356.552 287.174 357.037 286.572 357.441 285.827C357.845 285.081 358.086 284.343 358.164 283.612C358.238 282.888 358.157 282.189 357.922 281.515C357.682 280.848 357.29 280.222 356.744 279.634C356.204 279.051 355.516 278.532 354.679 278.079C353.843 277.625 353.029 277.33 352.239 277.193C351.456 277.059 350.72 277.074 350.03 277.238C349.345 277.412 348.718 277.728 348.152 278.185C347.582 278.649 347.095 279.254 346.691 280C346.286 280.745 346.047 281.48 345.973 282.204C345.895 282.936 345.973 283.633 346.205 284.296C346.444 284.962 346.833 285.587 347.372 286.17C347.919 286.758 348.61 287.278 349.447 287.732Z" fill="white"/>
<path d="M339.911 314.927C339.96 315.059 340.002 315.199 340.036 315.349C340.065 315.505 340.077 315.657 340.071 315.806C340.071 315.96 340.051 316.107 340.01 316.248C339.97 316.401 339.9 316.54 339.801 316.665L338.29 318.561L324.718 307.749L326.737 305.215L335.241 311.989C335.56 312.243 335.886 312.514 336.221 312.801C336.556 313.098 336.901 313.429 337.255 313.793C337.011 313.394 336.796 313.003 336.61 312.62C336.431 312.242 336.283 311.894 336.167 311.577L332.211 299.941C332.162 299.81 332.123 299.667 332.094 299.511C332.06 299.361 332.043 299.209 332.043 299.055C332.049 298.907 332.072 298.756 332.111 298.603C332.157 298.456 332.228 298.323 332.322 298.204L333.833 296.308L347.405 307.119L345.386 309.654L336.882 302.88C336.563 302.625 336.233 302.347 335.891 302.044C335.549 301.741 335.201 301.408 334.847 301.043C335.098 301.448 335.316 301.841 335.501 302.225C335.682 302.614 335.831 302.973 335.948 303.301L339.911 314.927Z" fill="white"/>
<path d="M315.429 323.261C315.304 323.385 315.145 323.447 314.953 323.446L313.078 323.363C312.963 322.248 313.109 321.162 313.514 320.106C313.914 319.055 314.625 318.023 315.647 317.008C316.561 316.101 317.539 315.439 318.581 315.025C319.618 314.615 320.671 314.433 321.74 314.476C322.809 314.52 323.866 314.789 324.911 315.285C325.95 315.787 326.923 316.495 327.83 317.409C328.749 318.334 329.441 319.327 329.907 320.386C330.378 321.451 330.623 322.527 330.642 323.613C330.655 324.705 330.442 325.773 330.002 326.818C329.569 327.869 328.9 328.842 327.998 329.738C327.101 330.629 326.159 331.27 325.174 331.663C324.182 332.061 323.206 332.264 322.244 332.272L321.954 330.446C321.931 330.333 321.932 330.214 321.955 330.09C321.972 329.971 322.043 329.85 322.168 329.726C322.253 329.641 322.364 329.577 322.5 329.532C322.641 329.493 322.8 329.454 322.976 329.415C323.157 329.381 323.36 329.337 323.587 329.281C323.813 329.225 324.054 329.139 324.309 329.021C324.57 328.909 324.848 328.751 325.142 328.549C325.437 328.357 325.747 328.101 326.07 327.78C326.621 327.233 327.027 326.632 327.29 325.977C327.553 325.333 327.663 324.66 327.62 323.959C327.583 323.263 327.387 322.555 327.034 321.835C326.685 321.121 326.17 320.421 325.488 319.734C324.801 319.041 324.093 318.521 323.364 318.173C322.63 317.831 321.912 317.642 321.211 317.605C320.51 317.569 319.833 317.677 319.182 317.929C318.536 318.187 317.952 318.575 317.43 319.093C317.117 319.403 316.853 319.699 316.637 319.981C316.416 320.269 316.236 320.554 316.1 320.837C315.957 321.125 315.849 321.418 315.774 321.718C315.699 322.029 315.653 322.362 315.635 322.719C315.629 322.826 315.608 322.925 315.574 323.015C315.545 323.111 315.497 323.193 315.429 323.261Z" fill="white"/>
<path d="M297.908 332.5L300.459 330.483L309.68 342.146L315.592 337.472L306.37 325.809L308.912 323.8L319.674 337.411L308.67 346.111L297.908 332.5Z" fill="white"/>
<path d="M283.901 351.657C283.246 350.566 282.82 349.446 282.623 348.295C282.423 347.155 282.449 346.047 282.699 344.973C282.95 343.899 283.423 342.891 284.118 341.951C284.817 341.018 285.732 340.211 286.864 339.532C287.989 338.856 289.127 338.429 290.28 338.25C291.436 338.078 292.551 338.131 293.624 338.411C294.69 338.694 295.683 339.189 296.603 339.897C297.526 340.611 298.316 341.514 298.971 342.604C299.626 343.694 300.049 344.812 300.242 345.956C300.439 347.107 300.412 348.219 300.162 349.294C299.904 350.372 299.426 351.378 298.727 352.312C298.032 353.252 297.122 354.06 295.997 354.735C295.243 355.188 294.479 355.526 293.707 355.747C292.939 355.975 292.18 356.095 291.431 356.106C290.686 356.124 289.956 356.036 289.241 355.84C288.524 355.655 287.842 355.374 287.195 354.997C286.549 354.62 285.949 354.15 285.396 353.586C284.836 353.027 284.337 352.384 283.901 351.657ZM286.729 349.957C287.22 350.773 287.768 351.438 288.375 351.951C288.986 352.47 289.629 352.835 290.306 353.045C290.982 353.254 291.684 353.304 292.411 353.194C293.131 353.088 293.855 352.816 294.582 352.38C295.309 351.943 295.892 351.43 296.33 350.839C296.762 350.253 297.048 349.61 297.188 348.911C297.32 348.215 297.301 347.475 297.129 346.692C296.961 345.916 296.632 345.119 296.142 344.303C295.652 343.487 295.101 342.819 294.49 342.3C293.884 341.787 293.242 341.426 292.565 341.216C291.886 341.018 291.186 340.971 290.466 341.077C289.739 341.187 289.012 341.461 288.285 341.898C287.558 342.334 286.979 342.846 286.547 343.432C286.108 344.022 285.82 344.661 285.684 345.35C285.551 346.046 285.568 346.782 285.736 347.558C285.908 348.342 286.239 349.141 286.729 349.957Z" fill="white"/>
<path d="M269.726 367.792L262.728 351.913L265.704 350.602L271.7 364.207L276.037 362.296C275.262 360.259 274.649 358.471 274.197 356.93C273.742 355.4 273.42 354.064 273.232 352.923C273.047 351.789 272.979 350.832 273.027 350.05C273.076 349.267 273.219 348.61 273.456 348.077C273.697 347.551 274.015 347.123 274.411 346.791C274.81 346.466 275.258 346.195 275.756 345.975C276.283 345.743 276.688 345.621 276.972 345.61C277.256 345.599 277.438 345.684 277.518 345.867L278.331 347.712L277.486 348.085C277.295 348.169 277.115 348.275 276.944 348.402C276.765 348.533 276.612 348.71 276.483 348.933C276.35 349.167 276.251 349.459 276.187 349.811C276.117 350.166 276.097 350.607 276.128 351.135C276.156 351.674 276.243 352.308 276.391 353.039C276.53 353.773 276.748 354.634 277.044 355.623C277.332 356.615 277.704 357.745 278.158 359.014C278.608 360.293 279.161 361.736 279.817 363.344L269.726 367.792Z" fill="white"/>
<path d="M259.27 371.518L257.158 364.66L254.452 365.494C253.374 365.826 252.416 365.991 251.578 365.989C250.733 365.99 250.006 365.858 249.397 365.594C248.783 365.339 248.276 364.968 247.874 364.481C247.475 364.001 247.178 363.443 246.983 362.809C246.743 362.029 246.663 361.279 246.742 360.56C246.815 359.843 247.04 359.175 247.419 358.556C247.8 357.945 248.331 357.401 249.013 356.923C249.686 356.448 250.505 356.061 251.468 355.765L257.249 353.985L262.355 370.569L259.27 371.518ZM256.417 362.252L254.905 357.343L252.21 358.173C251.637 358.35 251.178 358.558 250.833 358.798C250.483 359.048 250.224 359.321 250.055 359.615C249.886 359.91 249.798 360.222 249.791 360.551C249.783 360.879 249.832 361.216 249.938 361.56C250.053 361.934 250.208 362.259 250.402 362.535C250.595 362.81 250.842 363.014 251.143 363.148C251.446 363.289 251.806 363.358 252.224 363.355C252.641 363.352 253.137 363.262 253.71 363.085L256.417 362.252Z" fill="white"/>
<path d="M233.904 373.409C233.742 372.61 233.779 371.847 234.016 371.122C234.253 370.396 234.695 369.76 235.343 369.212C234.913 369.103 234.511 368.952 234.137 368.759C233.757 368.574 233.421 368.349 233.13 368.081C232.833 367.823 232.585 367.526 232.387 367.191C232.18 366.857 232.037 366.49 231.956 366.091C231.8 365.322 231.8 364.575 231.955 363.85C232.102 363.127 232.4 362.462 232.849 361.857C233.29 361.253 233.877 360.726 234.61 360.276C235.344 359.833 236.221 359.508 237.241 359.302C237.837 359.181 238.432 359.118 239.026 359.111C239.612 359.099 240.183 359.138 240.74 359.229C241.297 359.32 241.831 359.457 242.341 359.639C242.852 359.822 243.317 360.046 243.739 360.311L243.117 362.017C243.053 362.144 242.969 362.255 242.866 362.349C242.756 362.453 242.627 362.52 242.478 362.55C242.274 362.592 242.034 362.555 241.758 362.439C241.483 362.332 241.153 362.215 240.768 362.089C240.384 361.963 239.939 361.865 239.436 361.796C238.926 361.736 238.337 361.773 237.671 361.908C236.612 362.123 235.839 362.516 235.351 363.088C234.863 363.661 234.714 364.417 234.905 365.358C234.983 365.742 235.131 366.072 235.35 366.346C235.569 366.62 235.845 366.833 236.178 366.986C236.511 367.139 236.896 367.228 237.334 367.254C237.765 367.289 238.232 367.255 238.734 367.154L241.133 366.667L241.66 369.205L239.472 369.649C238.492 369.847 237.766 370.194 237.295 370.69C236.818 371.195 236.654 371.815 236.804 372.553C236.935 373.203 237.303 373.668 237.906 373.945C238.503 374.232 239.296 374.276 240.283 374.076C240.856 373.96 241.337 373.797 241.727 373.587C242.11 373.379 242.438 373.17 242.714 372.959C242.983 372.757 243.211 372.572 243.397 372.404C243.576 372.237 243.747 372.137 243.912 372.104C244.069 372.072 244.21 372.084 244.336 372.14C244.461 372.197 244.587 372.293 244.713 372.431L245.794 373.779C245.25 374.477 244.559 375.074 243.721 375.571C242.875 376.069 241.899 376.43 240.794 376.654C239.876 376.84 239.027 376.898 238.245 376.827C237.456 376.759 236.762 376.577 236.164 376.282C235.567 375.995 235.075 375.605 234.69 375.111C234.298 374.628 234.036 374.06 233.904 373.409Z" fill="white"/>
<path d="M224.756 364.124C224.581 364.141 224.403 364.174 224.223 364.224C224.043 364.273 223.87 364.354 223.704 364.467C223.53 364.58 223.368 364.732 223.218 364.924C223.068 365.115 222.935 365.361 222.819 365.661L222.271 367.101L230.371 378.554L227.361 378.845C227.082 378.872 226.853 378.826 226.673 378.707C226.492 378.588 226.336 378.43 226.205 378.234L222.236 372.228C221.805 371.587 221.447 370.918 221.162 370.222C221.094 370.59 221.008 370.952 220.906 371.308C220.803 371.663 220.686 372.024 220.552 372.391L218.238 379.004C218.167 379.188 218.052 379.364 217.891 379.532C217.731 379.7 217.515 379.798 217.244 379.824L214.581 380.081L220.118 364.536C220.315 363.995 220.537 363.543 220.783 363.182C221.029 362.82 221.307 362.528 221.615 362.306C221.915 362.084 222.248 361.919 222.616 361.811C222.974 361.696 223.365 361.618 223.787 361.577C224.36 361.522 224.783 361.533 225.056 361.611C225.328 361.689 225.475 361.828 225.494 362.027L225.688 364.034L224.756 364.124Z" fill="white"/>
<path d="M197.517 380.197L197.537 377.629L205.24 377.688L205.277 372.876L199.206 372.829L199.225 370.345L205.297 370.392L205.335 365.484L197.631 365.425L197.651 362.845L208.594 362.93L208.46 380.281L197.517 380.197Z" fill="white"/>
<path d="M184.198 368.898C184.097 368.626 184.009 368.345 183.934 368.052C183.851 367.767 183.772 367.478 183.698 367.186C183.548 367.465 183.396 367.731 183.241 367.985C183.086 368.247 182.924 368.496 182.756 368.732L176.42 377.592C176.341 377.703 176.261 377.789 176.18 377.851C176.099 377.913 176.017 377.955 175.934 377.976C175.842 377.996 175.744 378.004 175.64 377.998C175.536 377.992 175.413 377.98 175.27 377.961L172.855 377.643L175.121 360.44L177.941 360.811L176.477 371.923C176.45 372.13 176.416 372.355 176.376 372.6C176.327 372.844 176.275 373.091 176.217 373.342L182.702 364.271C183.009 363.835 183.417 363.651 183.925 363.718L184.377 363.777C184.884 363.844 185.23 364.128 185.414 364.628L189.383 375.113C189.394 374.848 189.408 374.587 189.425 374.331C189.442 374.083 189.464 373.852 189.492 373.638L190.956 362.526L193.776 362.898L191.509 380.101L189.094 379.783C188.952 379.764 188.829 379.744 188.727 379.722C188.625 379.701 188.536 379.669 188.461 379.627C188.378 379.584 188.31 379.522 188.256 379.442C188.194 379.362 188.139 379.258 188.091 379.13L184.198 368.898Z" fill="white"/>
<path d="M161.569 375.165L163.577 368.275L160.858 367.483C159.775 367.167 158.884 366.779 158.186 366.317C157.479 365.853 156.945 365.343 156.582 364.787C156.209 364.236 155.989 363.647 155.922 363.02C155.852 362.399 155.911 361.771 156.096 361.133C156.325 360.35 156.67 359.68 157.132 359.123C157.587 358.564 158.143 358.13 158.799 357.821C159.453 357.52 160.197 357.358 161.029 357.333C161.853 357.307 162.749 357.435 163.717 357.717L169.523 359.409L164.668 376.068L161.569 375.165ZM164.282 365.856L165.719 360.925L163.012 360.136C162.436 359.968 161.938 359.89 161.518 359.901C161.088 359.917 160.722 360.002 160.419 360.155C160.116 360.309 159.871 360.521 159.683 360.791C159.496 361.062 159.352 361.37 159.252 361.715C159.142 362.092 159.092 362.448 159.103 362.784C159.113 363.12 159.207 363.427 159.385 363.704C159.56 363.988 159.823 364.244 160.173 364.471C160.524 364.698 160.987 364.896 161.563 365.064L164.282 365.856ZM152.069 354.322L155.18 355.229L150.325 371.888L147.214 370.981L152.069 354.322Z" fill="white"/>
<path d="M129.457 363.693L130.475 361.336L137.548 364.39L139.456 359.972L133.881 357.565L134.866 355.284L140.44 357.691L142.386 353.186L135.313 350.132L136.336 347.763L146.383 352.101L139.505 368.032L129.457 363.693Z" fill="white"/>
<path d="M108.036 330.78L126.479 343.094L116.844 357.525L114.15 355.726L122.405 343.361L117.235 339.909L108.98 352.275L106.285 350.476L114.541 338.11L109.351 334.645L101.096 347.011L98.401 345.212L108.036 330.78Z" fill="white"/>
<path d="M92.6578 317.27L94.5162 318.936C94.7247 319.123 94.8491 319.326 94.8894 319.545C94.9243 319.77 94.9051 319.989 94.8317 320.202L93.4337 323.703L98.7857 328.501L102.114 326.731C102.284 326.637 102.489 326.594 102.727 326.604C102.966 326.613 103.189 326.712 103.398 326.899L105.265 328.573L88.6069 336.943L86.1498 334.74L92.6578 317.27ZM96.6472 329.646L92.5282 325.954L90.2478 331.661C90.1543 331.921 90.0345 332.217 89.8882 332.548C89.7367 332.884 89.5664 333.242 89.3774 333.621C89.7332 333.392 90.0702 333.184 90.3886 332.996C90.701 332.804 90.984 332.644 91.2377 332.516L96.6472 329.646Z" fill="white"/>
<path d="M71.4137 316.001L77.1171 322.363L80.6017 319.239L78.7113 317.13C77.9583 316.29 77.4071 315.489 77.0577 314.728C76.703 313.961 76.5183 313.246 76.5035 312.582C76.4774 311.918 76.6017 311.301 76.8763 310.733C77.145 310.17 77.5266 309.666 78.021 309.223C78.6285 308.678 79.2757 308.292 79.9623 308.063C80.6436 307.828 81.3445 307.753 82.0651 307.838C82.7797 307.928 83.4966 308.182 84.2159 308.601C84.9298 309.014 85.6233 309.595 86.2961 310.346L90.3334 314.849L77.4134 326.432L69.5552 317.667L71.4137 316.001ZM82.4781 317.556L86.3022 314.128L84.4198 312.028C84.0193 311.581 83.6378 311.252 83.2755 311.04C82.9019 310.827 82.546 310.705 82.2077 310.675C81.8694 310.646 81.5494 310.696 81.2476 310.827C80.9459 310.958 80.661 311.143 80.393 311.384C80.1011 311.645 79.8707 311.922 79.7019 312.213C79.533 312.504 79.451 312.814 79.4557 313.143C79.4545 313.477 79.5427 313.833 79.7203 314.211C79.898 314.589 80.1871 315.001 80.5876 315.448L82.4781 317.556Z" fill="white"/>
<path d="M57.0508 300.943L71.2307 290.941L73.1051 293.599L60.9551 302.168L63.687 306.042C65.5298 304.879 67.1616 303.924 68.5825 303.177C69.9922 302.427 71.2376 301.847 72.3189 301.437C73.3936 301.031 74.3191 300.775 75.0953 300.668C75.8716 300.561 76.5444 300.571 77.1137 300.698C77.6765 300.83 78.1597 301.057 78.5632 301.379C78.9603 301.706 79.3155 302.092 79.6291 302.537C79.9611 303.007 80.1606 303.381 80.2278 303.656C80.295 303.932 80.2469 304.127 80.0834 304.243L78.436 305.405L77.9034 304.65C77.7835 304.48 77.644 304.323 77.4849 304.181C77.3212 304.032 77.1173 303.917 76.8732 303.834C76.6179 303.75 76.3117 303.711 75.9546 303.719C75.5928 303.719 75.1562 303.787 74.6448 303.923C74.1223 304.056 73.5175 304.268 72.8304 304.556C72.1386 304.839 71.3375 305.223 70.4269 305.708C69.5117 306.187 68.4773 306.775 67.3236 307.471C66.1588 308.165 64.8533 308.993 63.407 309.955L57.0508 300.943Z" fill="white"/>
<path d="M52.7544 275.848C53.8771 275.251 55.0183 274.883 56.1779 274.746C57.3267 274.605 58.4312 274.688 59.4912 274.994C60.5512 275.299 61.5328 275.823 62.4358 276.566C63.3318 277.313 64.09 278.268 64.7105 279.433C65.3271 280.592 65.6951 281.751 65.8144 282.911C65.9266 284.074 65.8155 285.185 65.4812 286.242C65.1431 287.292 64.5971 288.258 63.8431 289.14C63.0821 290.026 62.1402 290.768 61.0174 291.365C59.8947 291.963 58.757 292.329 57.6045 292.462C56.4449 292.599 55.335 292.515 54.275 292.21C53.2112 291.897 52.2313 291.367 51.3353 290.621C50.4323 289.878 49.6724 288.928 49.0557 287.77C48.6421 286.993 48.3447 286.213 48.1636 285.431C47.9754 284.652 47.8949 283.888 47.9222 283.139C47.9425 282.394 48.0688 281.67 48.3013 280.966C48.5229 280.259 48.8386 279.592 49.2484 278.966C49.6582 278.34 50.1588 277.765 50.7502 277.242C51.3379 276.712 52.0059 276.247 52.7544 275.848ZM54.3055 278.761C53.4652 279.209 52.7733 279.722 52.2299 280.301C51.6794 280.885 51.2821 281.509 51.0379 282.173C50.7937 282.838 50.7078 283.536 50.7803 284.268C50.849 284.993 51.0827 285.73 51.4813 286.478C51.8798 287.227 52.3625 287.835 52.9293 288.304C53.4923 288.765 54.1196 289.084 54.8112 289.259C55.4991 289.428 56.2387 289.446 57.0298 289.315C57.8139 289.188 58.6261 288.9 59.4663 288.453C60.3066 288.005 61.002 287.49 61.5525 286.907C62.0959 286.327 62.4898 285.705 62.7339 285.04C62.9673 284.372 63.0496 283.676 62.9809 282.951C62.9085 282.219 62.6729 281.479 62.2743 280.731C61.8758 279.982 61.395 279.377 60.832 278.916C60.2652 278.447 59.6414 278.127 58.9606 277.954C58.2727 277.786 57.5367 277.766 56.7526 277.893C55.9615 278.024 55.1458 278.314 54.3055 278.761Z" fill="white"/>
<path d="M53.4335 254.102L54.5717 257.136L47.4711 259.8L50.3336 267.429L57.4342 264.764L58.5724 267.798L42.3264 273.894L41.1882 270.86L48.1765 268.238L45.314 260.609L38.3258 263.232L37.1875 260.198L53.4335 254.102Z" fill="white"/>
<path d="M33.9872 249.713L40.9918 248.154L40.3765 245.389C40.1314 244.288 40.043 243.32 40.1113 242.485C40.1778 241.643 40.3672 240.929 40.6794 240.343C40.982 239.751 41.3923 239.274 41.9102 238.913C42.4203 238.554 42.9994 238.302 43.6475 238.158C44.444 237.981 45.1977 237.96 45.9084 238.097C46.6173 238.226 47.2652 238.504 47.8519 238.931C48.4308 239.359 48.9313 239.932 49.3532 240.65C49.7734 241.359 50.093 242.206 50.312 243.19L51.626 249.094L34.6885 252.864L33.9872 249.713ZM43.4516 247.606L48.4649 246.49L47.8522 243.738C47.7219 243.152 47.5508 242.678 47.3389 242.315C47.1175 241.946 46.8667 241.666 46.5863 241.475C46.306 241.283 46.0023 241.17 45.6751 241.136C45.348 241.103 45.0087 241.125 44.6573 241.203C44.2747 241.288 43.9385 241.416 43.6487 241.587C43.3589 241.759 43.1356 241.989 42.9786 242.278C42.8138 242.568 42.7163 242.922 42.6861 243.338C42.6559 243.755 42.706 244.256 42.8363 244.842L43.4516 247.606ZM47.6762 231.348L48.3802 234.51L31.4426 238.28L30.7387 235.118L47.6762 231.348Z" fill="white"/>
<path d="M39.0803 219.524C38.7691 219.547 38.4738 219.513 38.1944 219.421C37.9063 219.322 37.6552 219.18 37.4411 218.995C37.2185 218.803 37.0413 218.575 36.9097 218.312C36.7701 218.049 36.6889 217.763 36.666 217.451C36.6426 217.132 36.6808 216.833 36.7805 216.553C36.8717 216.265 37.0137 216.014 37.2065 215.799C37.3907 215.577 37.6181 215.396 37.8886 215.256C38.151 215.116 38.4379 215.035 38.749 215.012C39.0602 214.99 39.3558 215.028 39.6359 215.128C39.9079 215.228 40.1553 215.374 40.378 215.567C40.5921 215.751 40.7692 215.979 40.9094 216.249C41.041 216.513 41.1186 216.804 41.142 217.123C41.1648 217.434 41.1304 217.729 41.0386 218.009C40.9388 218.289 40.7968 218.54 40.6126 218.762C40.4198 218.977 40.1962 219.154 39.9417 219.293C39.6786 219.424 39.3915 219.501 39.0803 219.524Z" fill="white"/>
<path d="M46.0478 190.483L45.8723 193.73L38.9344 193.355C39.1155 194.302 39.2387 195.21 39.3038 196.079C39.3695 196.94 39.362 197.745 39.2815 198.493C39.2013 199.234 39.0408 199.906 38.7998 200.51C38.5589 201.114 38.2148 201.624 37.7677 202.041C37.321 202.449 36.7676 202.756 36.1076 202.96C35.4396 203.165 34.6423 203.242 33.7157 203.192L28 202.883L28.1756 199.635L33.8912 199.944C34.5623 199.981 35.1277 199.895 35.5876 199.688C36.0475 199.48 36.3955 199.118 36.6317 198.602C36.8683 198.078 36.9902 197.38 36.9974 196.507C36.997 195.626 36.8797 194.534 36.6457 193.231L28.5456 192.793L28.7212 189.546L46.0478 190.483Z" fill="white"/>
<path d="M49.0399 170.079L48.6192 172.539C48.572 172.815 48.4666 173.029 48.3029 173.179C48.1313 173.329 47.9355 173.429 47.7157 173.481L44.0079 174.161L42.7964 181.247L46.0674 183.121C46.238 183.215 46.3827 183.365 46.5015 183.572C46.6203 183.779 46.6561 184.021 46.6089 184.297L46.1862 186.769L30.2312 177.126L30.7874 173.873L49.0399 170.079ZM40.6886 180.046L41.621 174.593L35.5756 175.702C35.3057 175.762 34.9918 175.818 34.6338 175.87C34.268 175.921 33.8746 175.967 33.4535 176.009C33.8368 176.188 34.1925 176.363 34.5206 176.532C34.85 176.694 35.1361 176.849 35.3788 176.996L40.6886 180.046Z" fill="white"/>
<path d="M49.1091 154.422C49.1577 154.253 49.2662 154.121 49.4345 154.028L51.1121 153.187C51.7557 154.104 52.158 155.123 52.319 156.243C52.4822 157.355 52.3649 158.604 51.9672 159.988C51.6115 161.225 51.0798 162.28 50.3719 163.15C49.6662 164.013 48.8361 164.686 47.8815 165.169C46.927 165.652 45.8727 165.932 44.7188 166.008C43.567 166.076 42.3722 165.933 41.1343 165.577C39.881 165.217 38.7928 164.688 37.8697 163.99C36.9389 163.29 36.2006 162.47 35.6547 161.531C35.1111 160.584 34.7764 159.547 34.6506 158.42C34.5171 157.292 34.626 156.116 34.9773 154.893C35.3264 153.679 35.8356 152.66 36.5049 151.836C37.1765 151.006 37.9302 150.352 38.7661 149.877L39.9095 151.329C39.9841 151.417 40.0416 151.521 40.0821 151.641C40.1248 151.753 40.1218 151.893 40.0732 152.063C40.0401 152.178 39.9751 152.288 39.8782 152.394C39.7737 152.497 39.6543 152.608 39.5201 152.728C39.3781 152.845 39.2219 152.983 39.0513 153.142C38.8807 153.302 38.7129 153.495 38.5477 153.722C38.3748 153.947 38.209 154.22 38.0503 154.54C37.8861 154.851 37.7411 155.226 37.6151 155.664C37.4008 156.41 37.3388 157.133 37.4289 157.833C37.5136 158.523 37.7456 159.164 38.1249 159.756C38.4966 160.345 39.0123 160.868 39.672 161.324C40.3241 161.778 41.1153 162.138 42.0456 162.406C42.9837 162.675 43.8555 162.784 44.661 162.733C45.4688 162.673 46.1877 162.489 46.8179 162.179C47.448 161.869 47.986 161.445 48.4318 160.907C48.87 160.367 49.1907 159.743 49.394 159.036C49.5155 158.613 49.6018 158.226 49.6529 157.874C49.7061 157.515 49.7237 157.179 49.7055 156.865C49.6895 156.545 49.641 156.235 49.5602 155.937C49.4738 155.629 49.3518 155.316 49.194 154.996C49.1469 154.899 49.1163 154.803 49.1021 154.707C49.0803 154.609 49.0826 154.514 49.1091 154.422Z" fill="white"/>
<path d="M43.1876 132.709L45.6453 133.705L43.6794 138.554L57.3023 144.077L56.0894 147.069L42.4665 141.545L40.5007 146.394L38.043 145.398L43.1876 132.709Z" fill="white"/>
<path d="M60.8398 117.466C61.9559 118.076 62.8895 118.829 63.6407 119.723C64.3887 120.606 64.9259 121.574 65.2523 122.628C65.5787 123.682 65.6794 124.79 65.5543 125.953C65.4222 127.111 65.0395 128.27 64.4062 129.428C63.7767 130.579 63.0098 131.523 62.1056 132.259C61.1944 132.992 60.2052 133.509 59.138 133.809C58.0746 134.103 56.9674 134.177 55.8164 134.031C54.6584 133.881 53.5214 133.501 52.4053 132.891C51.2893 132.28 50.3592 131.53 49.615 130.64C48.8639 129.746 48.3251 128.772 47.9986 127.718C47.6761 126.657 47.5808 125.548 47.7129 124.389C47.838 123.226 48.2153 122.07 48.8448 120.918C49.267 120.146 49.7555 119.47 50.3103 118.889C50.8581 118.304 51.4524 117.817 52.0932 117.429C52.7269 117.037 53.4018 116.745 54.1177 116.553C54.8305 116.35 55.561 116.248 56.3093 116.247C57.0576 116.246 57.8128 116.349 58.5749 116.556C59.3408 116.756 60.0958 117.059 60.8398 117.466ZM59.2566 120.362C58.4213 119.905 57.6123 119.608 56.8297 119.472C56.0401 119.332 55.3004 119.342 54.6107 119.503C53.921 119.664 53.2902 119.976 52.7182 120.438C52.1502 120.893 51.6627 121.493 51.2558 122.237C50.849 122.981 50.6053 123.718 50.5247 124.449C50.4479 125.173 50.5261 125.873 50.759 126.547C50.9958 127.214 51.3862 127.843 51.9302 128.432C52.4672 129.017 53.1533 129.539 53.9886 129.995C54.8239 130.452 55.6363 130.75 56.426 130.89C57.2086 131.027 57.9448 131.014 58.6345 130.853C59.321 130.682 59.9483 130.368 60.5164 129.913C61.0883 129.451 61.5777 128.848 61.9846 128.104C62.3914 127.36 62.6332 126.626 62.7099 125.902C62.7905 125.171 62.7159 124.473 62.4861 123.81C62.2493 123.142 61.8624 122.516 61.3255 121.931C60.7815 121.341 60.0918 120.818 59.2566 120.362Z" fill="white"/>
<path d="M68.3895 93.7142C68.3405 93.5832 68.299 93.4427 68.265 93.2928C68.2359 93.1367 68.2243 92.9843 68.2303 92.8356C68.23 92.682 68.2503 92.5345 68.2912 92.3932C68.3309 92.2407 68.4006 92.1019 68.5003 91.9767L70.0106 90.0808L83.5827 100.892L81.5639 103.427L73.0602 96.6525C72.7411 96.3983 72.4145 96.1278 72.0803 95.8412C71.7448 95.5433 71.3999 95.2123 71.0456 94.8482C71.2901 95.2475 71.5051 95.6387 71.6909 96.0219C71.8703 96.4001 72.0178 96.7477 72.1334 97.0648L76.0894 108.7C76.1384 108.831 76.1775 108.975 76.2065 109.131C76.2406 109.281 76.2578 109.433 76.2581 109.586C76.2521 109.735 76.2293 109.886 76.1897 110.038C76.1437 110.186 76.0734 110.319 75.9787 110.438L74.4684 112.334L60.8963 101.522L62.915 98.9881L71.4187 105.762C71.7379 106.016 72.0683 106.295 72.41 106.598C72.7517 106.901 73.0997 107.234 73.4541 107.598C73.2033 107.194 72.9851 106.8 72.7994 106.417C72.6187 106.028 72.4699 105.669 72.353 105.34L68.3895 93.7142Z" fill="white"/>
<path d="M92.8124 85.369C92.9373 85.245 93.0959 85.1834 93.2883 85.1841L95.1632 85.2673C95.278 86.3821 95.1326 87.4677 94.7271 88.5241C94.3273 89.5748 93.6164 90.6074 92.5945 91.6219C91.6805 92.5294 90.7022 93.1905 89.6599 93.6053C88.6232 94.0145 87.5703 94.1974 86.5013 94.1539C85.4323 94.1104 84.3755 93.8407 83.3308 93.3447C82.2917 92.8432 81.3185 92.1354 80.411 91.2213C79.4923 90.2959 78.8001 89.3034 78.3345 88.2439C77.8631 87.1787 77.6182 86.103 77.5995 85.0168C77.5865 83.925 77.7997 82.8566 78.239 81.8116C78.6728 80.761 79.341 79.7877 80.2437 78.8915C81.1407 78.001 82.0821 77.3595 83.0678 76.9671C84.0592 76.5691 85.0358 76.3661 85.9975 76.3583L86.2878 78.1837C86.31 78.2969 86.3096 78.4157 86.2865 78.5401C86.2691 78.6588 86.198 78.7802 86.0731 78.9042C85.9879 78.9887 85.8774 79.0534 85.7414 79.0981C85.5999 79.1372 85.4413 79.1763 85.2658 79.2152C85.0847 79.2485 84.8809 79.293 84.6544 79.3488C84.4279 79.4045 84.1872 79.4913 83.9322 79.6092C83.6716 79.7214 83.3938 79.8787 83.0989 80.0813C82.8041 80.2726 82.4949 80.5289 82.1712 80.8501C81.6205 81.3968 81.2139 81.9978 80.9513 82.6531C80.6887 83.297 80.5788 83.9698 80.6215 84.6714C80.6586 85.3673 80.854 86.0751 81.2078 86.7948C81.5559 87.5089 82.071 88.2094 82.7529 88.8963C83.4406 89.589 84.1486 90.1092 84.8771 90.4569C85.6113 90.799 86.329 90.9882 87.0303 91.0247C87.7316 91.0612 88.408 90.9534 89.0595 90.7012C89.7053 90.4433 90.2894 90.0551 90.8117 89.5366C91.1239 89.2266 91.3881 88.9305 91.6041 88.6485C91.8257 88.3608 92.005 88.0758 92.1417 87.7934C92.2842 87.5054 92.3928 87.2117 92.4674 86.9121C92.5421 86.6013 92.5885 86.2677 92.6068 85.9114C92.6128 85.8039 92.633 85.705 92.6673 85.6146C92.6959 85.5185 92.7443 85.4367 92.8124 85.369Z" fill="white"/>
<path d="M110.89 75.6507L108.332 77.6584L99.1531 65.9619L93.2246 70.6143L102.403 82.3107L99.8546 84.311L89.1422 70.6604L100.178 62.0002L110.89 75.6507Z" fill="white"/>
<path d="M124.304 56.8663C124.959 57.9567 125.385 59.0774 125.581 60.2284C125.781 61.3684 125.755 62.4756 125.505 63.55C125.254 64.6244 124.782 65.6317 124.086 66.5719C123.387 67.5052 122.472 68.3117 121.34 68.9914C120.216 69.667 119.077 70.0943 117.925 70.2733C116.768 70.4454 115.653 70.3918 114.58 70.1125C113.514 69.829 112.521 69.3336 111.602 68.6261C110.678 67.9118 109.889 67.0094 109.234 65.919C108.579 64.8286 108.155 63.7114 107.962 62.5672C107.765 61.4162 107.792 60.3035 108.043 59.2291C108.3 58.1506 108.778 57.1447 109.478 56.2114C110.173 55.2712 111.083 54.4633 112.207 53.7877C112.962 53.3346 113.725 52.9973 114.497 52.776C115.265 52.5479 116.024 52.4281 116.773 52.4168C117.518 52.3985 118.248 52.4873 118.963 52.6832C119.681 52.868 120.363 53.1489 121.009 53.5259C121.655 53.9028 122.255 54.3731 122.808 54.9367C123.369 55.4962 123.867 56.1394 124.304 56.8663ZM121.475 58.5656C120.985 57.7495 120.436 57.0851 119.829 56.5723C119.219 56.0526 118.575 55.688 117.898 55.4785C117.222 55.2689 116.52 55.2192 115.793 55.3293C115.073 55.4353 114.349 55.7067 113.622 56.1434C112.895 56.58 112.313 57.0935 111.874 57.6837C111.442 58.2697 111.156 58.9126 111.017 59.6124C110.884 60.3081 110.904 61.0476 111.075 61.8309C111.243 62.6074 111.572 63.4036 112.062 64.2197C112.553 65.0358 113.103 65.7037 113.714 66.2233C114.321 66.7361 114.962 67.0973 115.639 67.3069C116.318 67.5055 117.018 67.5517 117.738 67.4457C118.465 67.3356 119.192 67.0622 119.919 66.6255C120.646 66.1888 121.225 65.6774 121.657 65.0914C122.096 64.5012 122.384 63.8617 122.521 63.1729C122.653 62.4772 122.636 61.7412 122.468 60.9647C122.296 60.1814 121.965 59.3817 121.475 58.5656Z" fill="white"/>
<path d="M138.819 40.5454L145.757 56.45L142.777 57.7503L136.832 44.1225L132.487 46.0177C133.255 48.057 133.861 49.8478 134.307 51.3902C134.757 52.922 135.074 54.2588 135.258 55.4005C135.438 56.5349 135.503 57.4931 135.451 58.2749C135.4 59.0568 135.254 59.7138 135.015 60.2458C134.772 60.7705 134.453 61.198 134.056 61.5283C133.655 61.8513 133.206 62.1216 132.707 62.3391C132.179 62.5694 131.774 62.6896 131.49 62.6999C131.207 62.7101 131.025 62.6236 130.945 62.4403L130.139 60.5924L130.986 60.223C131.176 60.1398 131.357 60.0346 131.529 59.9075C131.708 59.7771 131.862 59.6007 131.992 59.3782C132.126 59.1452 132.225 58.853 132.29 58.5018C132.363 58.1473 132.384 57.7059 132.354 57.1777C132.329 56.639 132.244 56.004 132.099 55.2728C131.962 54.5383 131.748 53.6762 131.455 52.6865C131.171 51.6935 130.804 50.5619 130.354 49.2916C129.909 48.0108 129.361 46.5652 128.711 44.9548L138.819 40.5454Z" fill="white"/>
<path d="M148.757 36.9505L150.869 43.8088L153.576 42.9753C154.654 42.6434 155.612 42.4782 156.449 42.4798C157.294 42.479 158.021 42.6109 158.63 42.8754C159.244 43.13 159.752 43.501 160.153 43.9885C160.552 44.4684 160.849 45.0256 161.045 45.6602C161.285 46.4401 161.365 47.1897 161.285 47.909C161.213 48.626 160.987 49.2939 160.609 49.9128C160.228 50.524 159.697 51.0684 159.015 51.5462C158.341 52.0216 157.522 52.4076 156.559 52.7042L150.779 54.4841L145.672 37.9005L148.757 36.9505ZM151.611 46.2172L153.122 51.1257L155.817 50.2958C156.391 50.1192 156.85 49.9109 157.194 49.6709C157.544 49.4208 157.804 49.1485 157.972 48.8538C158.141 48.559 158.229 48.2473 158.237 47.9185C158.244 47.5897 158.195 47.2533 158.089 46.9092C157.974 46.5346 157.82 46.2097 157.626 45.9344C157.432 45.6592 157.185 45.4549 156.885 45.3214C156.582 45.1803 156.222 45.1113 155.804 45.1143C155.386 45.1174 154.891 45.2072 154.317 45.3837L151.611 46.2172Z" fill="white"/>
<path d="M174.892 34.8651C175.051 35.6655 175.011 36.4279 174.771 37.1525C174.532 37.877 174.087 38.5119 173.437 39.057C173.867 39.1674 174.268 39.3201 174.641 39.5151C175.021 39.7007 175.355 39.9279 175.645 40.1965C175.941 40.4558 176.188 40.7534 176.385 41.0894C176.591 41.4239 176.733 41.7912 176.812 42.1914C176.965 42.9603 176.963 43.7071 176.805 44.4318C176.655 45.1549 176.354 45.8181 175.903 46.4216C175.46 47.0235 174.871 47.5483 174.136 47.9961C173.4 48.436 172.522 48.7573 171.501 48.96C170.905 49.0785 170.31 49.1397 169.715 49.1436C169.13 49.1538 168.559 49.1123 168.002 49.019C167.445 48.9258 166.912 48.787 166.402 48.6028C165.892 48.4186 165.428 48.1928 165.007 47.9256L165.636 46.2225C165.7 46.0955 165.784 45.985 165.888 45.891C165.998 45.7876 166.127 45.7211 166.276 45.6915C166.48 45.651 166.72 45.6889 166.996 45.8054C167.271 45.914 167.6 46.0321 167.984 46.1596C168.369 46.2872 168.812 46.3866 169.316 46.4579C169.826 46.5197 170.414 46.4844 171.081 46.3519C172.14 46.1414 172.915 45.751 173.405 45.1805C173.896 44.6101 174.047 43.854 173.86 42.9124C173.784 42.5279 173.637 42.1983 173.419 41.9234C173.201 41.6486 172.926 41.4341 172.594 41.2799C172.261 41.1257 171.876 41.035 171.439 41.0078C171.007 40.9711 170.54 41.0027 170.038 41.1025L167.637 41.5795L167.12 39.0395L169.31 38.6046C170.29 38.4097 171.017 38.0655 171.49 37.5719C171.969 37.0689 172.136 36.4486 171.989 35.711C171.86 35.0597 171.494 34.5941 170.892 34.314C170.296 34.0246 169.504 33.9781 168.515 34.1745C167.942 34.2883 167.46 34.4493 167.069 34.6574C166.686 34.864 166.357 35.0723 166.08 35.2822C165.81 35.4826 165.582 35.6667 165.395 35.8343C165.216 36.0004 165.044 36.0998 164.879 36.1326C164.722 36.1637 164.581 36.151 164.455 36.0944C164.33 36.0377 164.205 35.9403 164.079 35.8021L163.003 34.4498C163.55 33.7539 164.243 33.1594 165.083 32.6663C165.931 32.1716 166.908 31.8143 168.015 31.5945C168.933 31.4121 169.782 31.3575 170.564 31.4307C171.353 31.5023 172.046 31.6868 172.643 31.984C173.239 32.2735 173.729 32.6656 174.113 33.1603C174.503 33.6456 174.763 34.2139 174.892 34.8651Z" fill="white"/>
<path d="M184.073 44.1344C184.248 44.1182 184.426 44.0856 184.606 44.0367C184.786 43.9879 184.96 43.9075 185.126 43.7956C185.3 43.683 185.463 43.5314 185.614 43.3406C185.765 43.1498 185.899 42.9044 186.016 42.6043L186.569 41.167L178.513 29.6824L181.524 29.4029C181.803 29.377 182.033 29.424 182.212 29.5439C182.392 29.6638 182.548 29.8221 182.678 30.0189L186.624 36.04C187.053 36.6831 187.408 37.3531 187.69 38.0501C187.76 37.682 187.847 37.3204 187.951 36.9653C188.054 36.6102 188.174 36.2497 188.308 35.8837L190.648 29.2792C190.719 29.0958 190.836 28.9203 190.997 28.7527C191.158 28.5851 191.374 28.4887 191.645 28.4636L194.309 28.2162L188.712 43.74C188.513 44.2807 188.29 44.7312 188.042 45.0917C187.794 45.4521 187.516 45.7431 187.207 45.9646C186.906 46.1853 186.572 46.3489 186.204 46.4554C185.845 46.569 185.455 46.6455 185.033 46.6846C184.459 46.7379 184.036 46.7249 183.764 46.6458C183.491 46.5666 183.346 46.4274 183.327 46.2283L183.141 44.2209L184.073 44.1344Z" fill="white"/>
<path d="M211.24 28.1267L211.21 30.6946L203.507 30.6053L203.451 35.417L209.523 35.4873L209.494 37.9712L203.422 37.9009L203.365 42.8085L211.069 42.8977L211.039 45.4776L200.096 45.3508L200.297 28L211.24 28.1267Z" fill="white"/>
<path d="M224.495 39.4118C224.596 39.6838 224.682 39.966 224.756 40.2586C224.838 40.5442 224.916 40.8333 224.989 41.1258C225.14 40.8476 225.293 40.5817 225.449 40.3283C225.605 40.067 225.768 39.8186 225.937 39.5833L232.307 30.7473C232.386 30.637 232.467 30.551 232.548 30.4894C232.629 30.4277 232.711 30.3864 232.795 30.3654C232.886 30.3455 232.984 30.3386 233.088 30.3447C233.192 30.3507 233.316 30.3634 233.458 30.3828L235.872 30.7103L233.54 47.9048L230.721 47.5225L232.228 36.4162C232.256 36.2101 232.291 35.9847 232.332 35.74C232.381 35.4964 232.435 35.2494 232.493 34.9989L225.974 44.0447C225.665 44.479 225.256 44.6618 224.749 44.593L224.297 44.5317C223.79 44.4629 223.445 44.1779 223.263 43.6769L219.334 33.1775C219.323 33.4423 219.308 33.7026 219.289 33.9585C219.272 34.2064 219.248 34.4373 219.219 34.6514L217.713 45.7577L214.894 45.3753L217.227 28.1808L219.641 28.5083C219.784 28.5277 219.906 28.5483 220.008 28.5702C220.11 28.5921 220.198 28.6243 220.273 28.6668C220.356 28.7103 220.425 28.772 220.478 28.852C220.54 28.933 220.594 29.0373 220.642 29.1648L224.495 39.4118Z" fill="white"/>
<path d="M246.792 33.0456L244.758 39.9273L247.474 40.73C248.555 41.0497 249.445 41.4419 250.142 41.9064C250.846 42.3733 251.379 42.8853 251.74 43.4424C252.111 43.9941 252.328 44.584 252.393 45.2121C252.46 45.8325 252.399 46.4611 252.211 47.0979C251.98 47.8804 251.632 48.5492 251.168 49.1044C250.711 49.6618 250.154 50.0936 249.496 50.3997C248.84 50.6982 248.097 50.8579 247.265 50.8789C246.44 50.9022 245.545 50.771 244.578 50.4853L238.778 48.7711L243.696 32.1307L246.792 33.0456ZM244.044 42.344L242.588 47.2694L245.292 48.0686C245.868 48.2387 246.365 48.319 246.785 48.3097C247.215 48.2949 247.582 48.2114 247.885 48.0592C248.189 47.907 248.435 47.696 248.623 47.4263C248.811 47.1566 248.956 46.8491 249.058 46.5039C249.169 46.1279 249.22 45.7718 249.211 45.4354C249.202 45.0991 249.109 44.7922 248.933 44.5148C248.758 44.2297 248.496 43.9729 248.147 43.7444C247.797 43.516 247.335 43.3167 246.759 43.1467L244.044 42.344ZM256.212 53.9239L253.105 53.0056L258.023 36.3651L261.131 37.2834L256.212 53.9239Z" fill="white"/>
<path d="M278.915 44.542L277.889 46.8958L270.827 43.8154L268.903 48.226L274.469 50.6538L273.476 52.9306L267.91 50.5028L265.948 55.0014L273.009 58.0818L271.977 60.4466L261.946 56.0707L268.884 40.1661L278.915 44.542Z" fill="white"/>
<path d="M300.701 77.6753L282.302 65.2947L291.99 50.8987L294.678 52.7076L286.377 65.0427L291.534 68.5131L299.835 56.1779L302.523 57.9867L294.222 70.3219L299.399 73.8056L307.7 61.4705L310.388 63.2793L300.701 77.6753Z" fill="white"/>
<path d="M315.821 90.9825L313.968 89.3096C313.761 89.1219 313.637 88.9186 313.598 88.6998C313.563 88.4749 313.583 88.2558 313.658 88.0425L315.068 84.5466L309.734 79.729L306.399 81.4876C306.228 81.5813 306.024 81.6228 305.785 81.6123C305.547 81.6018 305.324 81.5027 305.116 81.315L303.255 79.6341L319.943 71.3246L322.392 73.5364L315.821 90.9825ZM311.876 78.5919L315.982 82.2996L318.283 76.6004C318.378 76.3407 318.498 76.0456 318.646 75.7153C318.799 75.379 318.97 75.0219 319.161 74.644C318.804 74.8718 318.466 75.0787 318.147 75.2649C317.834 75.4564 317.55 75.6153 317.296 75.7415L311.876 78.5919Z" fill="white"/>
<path d="M337.197 92.3694L331.517 85.987L328.021 89.0983L329.903 91.2139C330.653 92.0565 331.202 92.859 331.548 93.6215C331.9 94.39 332.082 95.106 332.095 95.7697C332.118 96.4341 331.992 97.05 331.715 97.6176C331.444 98.1798 331.061 98.6816 330.565 99.123C329.955 99.6655 329.307 100.05 328.619 100.276C327.937 100.509 327.236 100.581 326.516 100.494C325.802 100.401 325.086 100.144 324.368 99.7228C323.655 99.3073 322.964 98.7231 322.294 97.9701L318.273 93.4522L331.235 81.9163L339.061 90.71L337.197 92.3694ZM326.138 90.7737L322.302 94.1882L324.176 96.2948C324.575 96.743 324.955 97.0739 325.317 97.2876C325.69 97.502 326.045 97.6247 326.383 97.6557C326.722 97.6867 327.042 97.6373 327.344 97.5076C327.646 97.3779 327.932 97.1933 328.201 96.954C328.494 96.6934 328.725 96.4179 328.895 96.1274C329.065 95.837 329.148 95.5274 329.144 95.1985C329.147 94.8643 329.06 94.5079 328.884 94.1294C328.707 93.7508 328.42 93.3374 328.021 92.8892L326.138 90.7737Z" fill="white"/>
<path d="M351.34 107.103L337.16 117.104L335.286 114.447L347.436 105.878L344.704 102.004C342.861 103.167 341.229 104.122 339.808 104.869C338.399 105.619 337.153 106.199 336.072 106.609C334.997 107.015 334.072 107.271 333.295 107.378C332.519 107.485 331.846 107.475 331.277 107.348C330.714 107.216 330.231 106.989 329.828 106.667C329.431 106.34 329.075 105.954 328.762 105.509C328.43 105.039 328.23 104.665 328.163 104.39C328.096 104.114 328.144 103.919 328.307 103.803L329.955 102.641L330.487 103.396C330.607 103.566 330.747 103.723 330.906 103.865C331.07 104.014 331.273 104.129 331.518 104.212C331.773 104.296 332.079 104.335 332.436 104.327C332.798 104.327 333.235 104.259 333.746 104.123C334.268 103.99 334.873 103.778 335.56 103.49C336.252 103.207 337.053 102.823 337.964 102.338C338.879 101.859 339.914 101.271 341.067 100.575C342.232 99.8805 343.537 99.0527 344.984 98.0914L351.34 107.103Z" fill="white"/>
<path d="M355.869 132.61C354.744 133.204 353.601 133.567 352.441 133.7C351.292 133.836 350.188 133.749 349.129 133.44C348.07 133.13 347.09 132.602 346.19 131.856C345.297 131.107 344.542 130.148 343.926 128.981C343.314 127.82 342.95 126.66 342.835 125.499C342.727 124.335 342.842 123.225 343.181 122.169C343.523 121.12 344.072 120.156 344.829 119.277C345.594 118.394 346.538 117.656 347.663 117.062C348.788 116.469 349.927 116.107 351.08 115.978C352.24 115.845 353.35 115.934 354.409 116.243C355.471 116.56 356.449 117.093 357.343 117.843C358.243 118.589 358.999 119.542 359.612 120.702C360.022 121.48 360.317 122.261 360.495 123.045C360.68 123.824 360.758 124.588 360.728 125.337C360.705 126.082 360.576 126.806 360.341 127.509C360.117 128.215 359.798 128.88 359.386 129.505C358.974 130.13 358.471 130.702 357.878 131.224C357.289 131.752 356.619 132.214 355.869 132.61ZM354.329 129.691C355.17 129.247 355.864 128.736 356.41 128.159C356.962 127.578 357.362 126.955 357.609 126.291C357.855 125.627 357.944 124.929 357.874 124.197C357.808 123.472 357.577 122.735 357.181 121.985C356.785 121.235 356.305 120.625 355.74 120.154C355.179 119.69 354.553 119.369 353.862 119.191C353.174 119.02 352.435 118.999 351.643 119.127C350.859 119.252 350.045 119.536 349.204 119.981C348.362 120.425 347.664 120.938 347.112 121.519C346.566 122.096 346.17 122.717 345.923 123.381C345.688 124.048 345.603 124.744 345.669 125.469C345.738 126.201 345.971 126.942 346.367 127.692C346.763 128.442 347.241 129.049 347.803 129.513C348.368 129.983 348.99 130.306 349.67 130.481C350.358 130.652 351.094 130.675 351.878 130.55C352.67 130.422 353.487 130.136 354.329 129.691Z" fill="white"/>
<path d="M355.22 154.48L354.093 151.442L361.204 148.804L358.37 141.165L351.259 143.803L350.133 140.765L366.401 134.73L367.528 137.768L360.53 140.364L363.364 148.003L370.362 145.407L371.489 148.445L355.22 154.48Z" fill="white"/>
<path d="M374.709 159.028L367.699 160.56L368.304 163.327C368.545 164.429 368.629 165.397 368.558 166.232C368.488 167.074 368.296 167.788 367.982 168.372C367.677 168.963 367.265 169.438 366.745 169.797C366.234 170.155 365.654 170.404 365.005 170.546C364.208 170.72 363.454 170.738 362.744 170.598C362.036 170.466 361.389 170.186 360.804 169.757C360.226 169.326 359.728 168.751 359.309 168.032C358.891 167.321 358.575 166.473 358.36 165.488L357.068 159.58L374.02 155.875L374.709 159.028ZM365.237 161.099L360.22 162.195L360.822 164.95C360.95 165.536 361.119 166.011 361.33 166.375C361.55 166.744 361.799 167.025 362.079 167.218C362.359 167.411 362.662 167.525 362.989 167.56C363.316 167.595 363.655 167.574 364.007 167.497C364.39 167.413 364.727 167.286 365.017 167.116C365.307 166.946 365.532 166.717 365.69 166.429C365.856 166.139 365.954 165.785 365.986 165.369C366.018 164.953 365.97 164.451 365.842 163.865L365.237 161.099ZM360.95 177.341L360.259 174.175L377.21 170.47L377.902 173.635L360.95 177.341Z" fill="white"/>
<path d="M369.545 189.353C369.857 189.332 370.152 189.367 370.431 189.46C370.719 189.561 370.969 189.704 371.183 189.889C371.405 190.082 371.581 190.311 371.711 190.574C371.85 190.837 371.93 191.124 371.952 191.436C371.974 191.755 371.935 192.054 371.834 192.334C371.741 192.621 371.599 192.871 371.405 193.085C371.22 193.307 370.992 193.487 370.721 193.626C370.458 193.765 370.171 193.845 369.859 193.867C369.548 193.888 369.253 193.849 368.973 193.748C368.701 193.646 368.454 193.499 368.233 193.306C368.019 193.12 367.843 192.892 367.704 192.621C367.573 192.358 367.497 192.066 367.475 191.747C367.453 191.436 367.488 191.14 367.581 190.861C367.682 190.582 367.825 190.331 368.01 190.11C368.204 189.896 368.428 189.72 368.683 189.582C368.947 189.451 369.234 189.375 369.545 189.353Z" fill="white"/>
</svg>
