<svg width="408" height="408" viewBox="0 0 408 408" fill="none" xmlns="http://www.w3.org/2000/svg">
<path fill-rule="evenodd" clip-rule="evenodd" d="M209.289 6.4748C206.556 3.12949 201.443 3.12949 198.711 6.4748C196.161 9.59666 191.475 9.84219 188.613 7.004C185.546 3.96266 180.461 4.49711 178.093 8.10973C175.883 11.481 171.249 12.215 168.106 9.69152C164.737 6.98746 159.736 8.05051 157.759 11.8909C155.913 15.4747 151.382 16.689 147.992 14.5079C144.359 12.1708 139.496 13.7508 137.931 17.7768C136.47 21.5339 132.09 23.2152 128.491 21.4004C124.634 19.4558 119.963 21.5355 118.827 25.703C117.767 29.5922 113.587 31.7221 109.818 30.2936C105.779 28.7628 101.351 31.3193 100.657 35.5827C100.009 39.5614 96.0746 42.1166 92.1765 41.0898C87.9995 39.9896 83.863 42.995 83.6185 47.3076C83.3904 51.3322 79.7444 54.2846 75.7604 53.671C71.4912 53.0134 67.6915 56.4347 67.8992 60.7492C68.093 64.7756 64.7756 68.093 60.7492 67.8992C56.4347 67.6915 53.0134 71.4912 53.671 75.7604C54.2846 79.7444 51.3322 83.3904 47.3076 83.6185C42.995 83.863 39.9896 87.9995 41.0898 92.1765C42.1166 96.0746 39.5614 100.009 35.5827 100.657C31.3193 101.351 28.7628 105.779 30.2936 109.818C31.7221 113.587 29.5922 117.767 25.703 118.827C21.5355 119.963 19.4558 124.634 21.4004 128.491C23.2152 132.09 21.5339 136.47 17.7768 137.931C13.7508 139.496 12.1708 144.359 14.5079 147.992C16.689 151.382 15.4747 155.913 11.8909 157.759C8.05051 159.736 6.98746 164.737 9.69152 168.106C12.215 171.249 11.481 175.883 8.10973 178.093C4.49711 180.461 3.96266 185.546 7.004 188.613C9.84219 191.475 9.59666 196.161 6.4748 198.711C3.12949 201.443 3.12949 206.556 6.4748 209.289C9.59666 211.839 9.84219 216.524 7.004 219.387C3.96266 222.454 4.49711 227.539 8.10973 229.907C11.481 232.117 12.215 236.751 9.69152 239.894C6.98746 243.262 8.05051 248.264 11.8909 250.241C15.4747 252.086 16.689 256.618 14.5079 260.008C12.1708 263.641 13.7508 268.504 17.7768 270.069C21.5339 271.529 23.2152 275.909 21.4004 279.509C19.4558 283.366 21.5355 288.037 25.703 289.172C29.5922 290.232 31.7221 294.412 30.2936 298.182C28.7628 302.221 31.3193 306.649 35.5827 307.343C39.5614 307.99 42.1166 311.925 41.0898 315.823C39.9896 320 42.995 324.137 47.3076 324.381C51.3322 324.609 54.2846 328.255 53.671 332.239C53.0134 336.508 56.4347 340.308 60.7492 340.1C64.7756 339.907 68.093 343.224 67.8992 347.25C67.6915 351.565 71.4912 354.986 75.7604 354.329C79.7444 353.715 83.3904 356.668 83.6185 360.692C83.863 365.005 87.9995 368.01 92.1765 366.91C96.0746 365.883 100.009 368.438 100.657 372.417C101.351 376.68 105.779 379.237 109.818 377.706C113.587 376.278 117.767 378.407 118.827 382.297C119.963 386.464 124.634 388.544 128.491 386.599C132.09 384.784 136.47 386.466 137.931 390.223C139.496 394.249 144.359 395.829 147.992 393.492C151.382 391.311 155.913 392.525 157.759 396.109C159.736 399.949 164.737 401.012 168.106 398.308C171.249 395.785 175.883 396.519 178.093 399.89C180.461 403.503 185.546 404.037 188.613 400.996C191.475 398.157 196.161 398.403 198.711 401.525C201.443 404.87 206.556 404.87 209.289 401.525C211.839 398.403 216.524 398.157 219.387 400.996C222.454 404.037 227.539 403.503 229.907 399.89C232.117 396.519 236.751 395.785 239.894 398.308C243.262 401.012 248.264 399.949 250.241 396.109C252.086 392.525 256.618 391.311 260.008 393.492C263.641 395.829 268.504 394.249 270.069 390.223C271.529 386.466 275.909 384.784 279.509 386.599C283.366 388.544 288.037 386.464 289.172 382.297C290.232 378.407 294.412 376.278 298.182 377.706C302.221 379.237 306.649 376.68 307.343 372.417C307.99 368.438 311.925 365.883 315.823 366.91C320 368.01 324.137 365.005 324.381 360.692C324.609 356.668 328.255 353.715 332.239 354.329C336.508 354.986 340.308 351.565 340.1 347.25C339.907 343.224 343.224 339.907 347.25 340.1C351.565 340.308 354.986 336.508 354.329 332.239C353.715 328.255 356.668 324.609 360.692 324.381C365.005 324.137 368.01 320 366.91 315.823C365.883 311.925 368.438 307.99 372.417 307.343C376.68 306.649 379.237 302.221 377.706 298.182C376.278 294.412 378.407 290.232 382.297 289.172C386.464 288.037 388.544 283.366 386.599 279.509C384.784 275.909 386.466 271.529 390.223 270.069C394.249 268.504 395.829 263.641 393.492 260.008C391.311 256.618 392.525 252.086 396.109 250.241C399.949 248.264 401.012 243.262 398.308 239.894C395.785 236.751 396.519 232.117 399.89 229.907C403.503 227.539 404.037 222.454 400.996 219.387C398.157 216.524 398.403 211.839 401.525 209.289C404.87 206.556 404.87 201.443 401.525 198.711C398.403 196.161 398.157 191.475 400.996 188.613C404.037 185.546 403.503 180.461 399.89 178.093C396.519 175.883 395.785 171.249 398.308 168.106C401.012 164.737 399.949 159.736 396.109 157.759C392.525 155.913 391.311 151.382 393.492 147.992C395.829 144.359 394.249 139.496 390.223 137.931C386.466 136.47 384.784 132.09 386.599 128.491C388.544 124.634 386.464 119.963 382.297 118.827C378.407 117.767 376.278 113.587 377.706 109.818C379.237 105.779 376.68 101.351 372.417 100.657C368.438 100.009 365.883 96.0746 366.91 92.1765C368.01 87.9995 365.005 83.863 360.692 83.6185C356.668 83.3904 353.715 79.7444 354.329 75.7604C354.986 71.4912 351.565 67.6915 347.25 67.8992C343.224 68.093 339.907 64.7756 340.1 60.7492C340.308 56.4347 336.508 53.0134 332.239 53.671C328.255 54.2846 324.609 51.3322 324.381 47.3076C324.137 42.995 320 39.9897 315.823 41.0898C311.925 42.1166 307.99 39.5614 307.343 35.5827C306.649 31.3193 302.221 28.7628 298.182 30.2936C294.412 31.7221 290.232 29.5922 289.172 25.703C288.037 21.5355 283.366 19.4558 279.509 21.4004C275.909 23.2152 271.529 21.5339 270.069 17.7768C268.504 13.7508 263.641 12.1708 260.008 14.5079C256.618 16.689 252.086 15.4747 250.241 11.8909C248.264 8.05051 243.262 6.98746 239.894 9.69152C236.751 12.215 232.117 11.481 229.907 8.10973C227.539 4.49711 222.454 3.96266 219.387 7.004C216.524 9.84219 211.839 9.59666 209.289 6.4748ZM204 64.9998C127.232 64.9998 64.9998 127.232 64.9998 204C64.9998 280.767 127.232 343 204 343C280.767 343 343 280.767 343 204C343 127.232 280.767 64.9998 204 64.9998Z" fill="#6B75F9"/>
<path d="M46.0477 217.863L45.8721 214.615L38.9342 214.991C39.1154 214.043 39.2385 213.135 39.3037 212.267C39.3693 211.406 39.3618 210.601 39.2813 209.852C39.2012 209.112 39.0407 208.439 38.7997 207.835C38.5587 207.232 38.2147 206.721 37.7676 206.305C37.3209 205.896 36.7675 205.59 36.1075 205.385C35.4395 205.181 34.6422 205.104 33.7155 205.154L27.9998 205.463L28.1754 208.71L33.8911 208.401C34.5621 208.365 35.1276 208.451 35.5874 208.658C36.0473 208.866 36.3954 209.227 36.6316 209.743C36.8682 210.267 36.9901 210.966 36.9972 211.839C36.9968 212.72 36.8796 213.812 36.6456 215.114L28.5454 215.552L28.721 218.8L46.0477 217.863Z" fill="white"/>
<path d="M48.9262 237.732L48.515 235.27C48.4688 234.994 48.3642 234.78 48.2011 234.629C48.0301 234.479 47.8347 234.378 47.6151 234.325L43.9099 233.63L42.7256 226.54L46.0037 224.679C46.1746 224.585 46.3199 224.435 46.4395 224.229C46.5591 224.022 46.5959 223.781 46.5497 223.505L46.1365 221.031L30.1447 230.613L30.6884 233.868L48.9262 237.732ZM40.6132 227.733L41.5246 233.189L35.4836 232.057C35.2139 231.997 34.9002 231.939 34.5424 231.886C34.1768 231.833 33.7835 231.785 33.3627 231.742C33.7466 231.564 34.103 231.391 34.4317 231.223C34.7618 231.062 35.0484 230.909 35.2917 230.763L40.6132 227.733Z" fill="white"/>
<path d="M48.99 253.538C49.0379 253.707 49.1459 253.839 49.3138 253.933L50.9882 254.78C51.6353 253.865 52.0415 252.848 52.2067 251.729C52.3741 250.617 52.2616 249.369 51.8691 247.983C51.5181 246.744 50.9903 245.688 50.2857 244.815C49.5833 243.949 48.7558 243.273 47.803 242.787C46.8503 242.3 45.7971 242.016 44.6435 241.935C43.492 241.862 42.2967 242.001 41.0574 242.352C39.8028 242.708 38.7126 243.233 37.7868 243.927C36.8534 244.624 36.1119 245.441 35.5626 246.378C35.0154 247.323 34.6767 248.359 34.5467 249.485C34.4089 250.613 34.5134 251.789 34.86 253.013C35.2045 254.229 35.7098 255.25 36.3761 256.076C37.0445 256.909 37.7957 257.565 38.6298 258.044L39.7787 256.596C39.8536 256.508 39.9116 256.405 39.9525 256.285C39.9956 256.173 39.9932 256.032 39.9452 255.863C39.9125 255.747 39.8479 255.637 39.7515 255.531C39.6473 255.428 39.5283 255.316 39.3945 255.196C39.2531 255.078 39.0973 254.939 38.9274 254.779C38.7574 254.62 38.5902 254.426 38.4259 254.198C38.2539 253.972 38.0892 253.699 37.9317 253.378C37.7686 253.066 37.625 252.691 37.5007 252.252C37.2892 251.506 37.2299 250.783 37.3228 250.083C37.41 249.393 37.6445 248.753 38.026 248.162C38.3999 247.574 38.9176 247.054 39.579 246.6C40.2328 246.149 41.0254 245.791 41.9567 245.528C42.8958 245.262 43.768 245.156 44.5734 245.21C45.3809 245.273 46.0992 245.46 46.7281 245.772C47.357 246.085 47.8934 246.511 48.3372 247.05C48.7734 247.592 49.0917 248.217 49.2923 248.925C49.4122 249.348 49.497 249.736 49.5468 250.088C49.5987 250.447 49.615 250.783 49.5956 251.097C49.5783 251.417 49.5287 251.727 49.4467 252.024C49.3592 252.332 49.236 252.645 49.077 252.965C49.0295 253.061 48.9985 253.157 48.984 253.253C48.9619 253.351 48.9638 253.446 48.99 253.538Z" fill="white"/>
<path d="M42.9848 275.151L45.4462 274.164L43.4985 269.308L57.1419 263.836L55.9402 260.84L42.2968 266.312L40.3491 261.456L37.8877 262.444L42.9848 275.151Z" fill="white"/>
<path d="M60.6948 290.633C61.8131 290.027 62.7495 289.278 63.5039 288.387C64.2552 287.507 64.7959 286.54 65.1263 285.487C65.4566 284.435 65.5613 283.327 65.4405 282.164C65.3127 281.005 64.9343 279.845 64.3052 278.685C63.68 277.531 62.9167 276.585 62.0152 275.845C61.1067 275.109 60.1194 274.588 59.0533 274.283C57.991 273.986 56.8841 273.908 55.7326 274.05C54.574 274.195 53.4356 274.571 52.3173 275.177C51.199 275.784 50.2661 276.53 49.5187 277.418C48.7643 278.309 48.2219 279.281 47.8915 280.334C47.565 281.393 47.4657 282.503 47.5935 283.662C47.7143 284.825 48.0873 285.983 48.7126 287.136C49.1319 287.91 49.6179 288.588 50.1706 289.172C50.7162 289.758 51.3087 290.247 51.948 290.638C52.5804 291.032 53.2541 291.327 53.9693 291.521C54.6813 291.727 55.4114 291.832 56.1597 291.835C56.908 291.839 57.6636 291.739 58.4265 291.535C59.1931 291.338 59.9493 291.037 60.6948 290.633ZM59.1222 287.732C58.2853 288.185 57.4752 288.479 56.6921 288.612C55.9019 288.749 55.1623 288.736 54.4732 288.573C53.7841 288.41 53.1544 288.096 52.5842 287.631C52.0178 287.174 51.5326 286.572 51.1285 285.827C50.7244 285.081 50.4834 284.343 50.4055 283.612C50.3314 282.888 50.4121 282.189 50.6476 281.515C50.8868 280.848 51.2796 280.222 51.8257 279.634C52.3649 279.051 53.0529 278.532 53.8899 278.079C54.7268 277.625 55.5404 277.33 56.3305 277.193C57.1136 277.059 57.8498 277.074 58.5389 277.238C59.2248 277.412 59.8509 277.728 60.4173 278.185C60.9875 278.649 61.4747 279.254 61.8788 280C62.2829 280.745 62.522 281.48 62.596 282.204C62.6739 282.936 62.5967 283.633 62.3645 284.296C62.1252 284.962 61.736 285.587 61.1969 286.17C60.6507 286.758 59.9592 287.278 59.1222 287.732Z" fill="white"/>
<path d="M68.658 314.927C68.6089 315.059 68.5674 315.199 68.5334 315.349C68.5043 315.505 68.4928 315.657 68.4987 315.806C68.4984 315.96 68.5187 316.107 68.5596 316.248C68.5993 316.401 68.669 316.54 68.7687 316.665L70.279 318.561L83.8511 307.749L81.8324 305.215L73.3287 311.989C73.0096 312.243 72.6829 312.514 72.3487 312.801C72.0132 313.098 71.6684 313.429 71.314 313.793C71.5585 313.394 71.7736 313.003 71.9593 312.62C72.1387 312.242 72.2863 311.894 72.4019 311.577L76.3578 299.941C76.4069 299.81 76.4459 299.667 76.4749 299.511C76.509 299.361 76.5262 299.209 76.5265 299.055C76.5205 298.907 76.4978 298.756 76.4581 298.603C76.4122 298.456 76.3418 298.323 76.2471 298.204L74.7368 296.308L61.1647 307.119L63.1834 309.654L71.6871 302.88C72.0063 302.625 72.3367 302.347 72.6784 302.044C73.0201 301.741 73.3681 301.408 73.7225 301.043C73.4717 301.448 73.2535 301.841 73.0678 302.225C72.8871 302.614 72.7383 302.973 72.6214 303.301L68.658 314.927Z" fill="white"/>
<path d="M93.1404 323.261C93.2653 323.385 93.4239 323.447 93.6162 323.446L95.4912 323.363C95.6059 322.248 95.4606 321.162 95.0551 320.106C94.6553 319.055 93.9444 318.023 92.9225 317.008C92.0085 316.101 91.0302 315.439 89.9879 315.025C88.9511 314.615 87.8983 314.433 86.8293 314.476C85.7603 314.52 84.7035 314.789 83.6588 315.285C82.6197 315.787 81.6465 316.495 80.739 317.409C79.8203 318.334 79.1281 319.327 78.6624 320.386C78.1911 321.451 77.9461 322.527 77.9275 323.613C77.9145 324.705 78.1276 325.773 78.567 326.818C79.0008 327.869 79.669 328.842 80.5717 329.738C81.4687 330.629 82.4101 331.27 83.3958 331.663C84.3872 332.061 85.3638 332.264 86.3255 332.272L86.6158 330.446C86.638 330.333 86.6376 330.214 86.6145 330.09C86.5971 329.971 86.526 329.85 86.4011 329.726C86.3159 329.641 86.2054 329.577 86.0694 329.532C85.9279 329.493 85.7693 329.454 85.5938 329.415C85.4127 329.381 85.2089 329.337 84.9824 329.281C84.7559 329.225 84.5152 329.139 84.2602 329.021C83.9996 328.909 83.7218 328.751 83.4269 328.549C83.132 328.357 82.8228 328.101 82.4992 327.78C81.9485 327.233 81.5419 326.632 81.2793 325.977C81.0167 325.333 80.9068 324.66 80.9495 323.959C80.9866 323.263 81.182 322.555 81.5357 321.835C81.8839 321.121 82.399 320.421 83.0809 319.734C83.7686 319.041 84.4766 318.521 85.2051 318.173C85.9392 317.831 86.657 317.642 87.3583 317.605C88.0596 317.569 88.736 317.677 89.3875 317.929C90.0333 318.187 90.6174 318.575 91.1397 319.093C91.4519 319.403 91.7161 319.699 91.932 319.981C92.1537 320.269 92.3329 320.554 92.4697 320.837C92.6122 321.125 92.7208 321.418 92.7954 321.718C92.8701 322.029 92.9165 322.362 92.9348 322.719C92.9408 322.826 92.961 322.925 92.9952 323.015C93.0239 323.111 93.0723 323.193 93.1404 323.261Z" fill="white"/>
<path d="M110.661 332.5L108.11 330.483L98.8891 342.146L92.9776 337.472L102.199 325.809L99.6574 323.8L88.8954 337.411L99.8994 346.111L110.661 332.5Z" fill="white"/>
<path d="M124.669 351.657C125.324 350.566 125.75 349.446 125.946 348.295C126.146 347.155 126.12 346.047 125.87 344.973C125.619 343.899 125.147 342.891 124.452 341.951C123.752 341.018 122.837 340.211 121.705 339.532C120.581 338.856 119.442 338.429 118.29 338.25C117.133 338.078 116.019 338.131 114.945 338.411C113.879 338.694 112.886 339.189 111.967 339.897C111.043 340.611 110.254 341.514 109.599 342.604C108.944 343.694 108.52 344.812 108.327 345.956C108.13 347.107 108.157 348.219 108.408 349.294C108.665 350.372 109.143 351.378 109.843 352.312C110.538 353.252 111.448 354.06 112.572 354.735C113.327 355.188 114.09 355.526 114.862 355.747C115.63 355.975 116.389 356.095 117.138 356.106C117.883 356.124 118.613 356.036 119.328 355.84C120.046 355.655 120.728 355.374 121.374 354.997C122.021 354.62 122.62 354.15 123.174 353.586C123.734 353.027 124.232 352.384 124.669 351.657ZM121.84 349.957C121.35 350.773 120.801 351.438 120.194 351.951C119.584 352.47 118.94 352.835 118.264 353.045C117.587 353.254 116.885 353.304 116.158 353.194C115.438 353.088 114.714 352.816 113.987 352.38C113.26 351.943 112.678 351.43 112.239 350.839C111.807 350.253 111.521 349.61 111.382 348.911C111.249 348.215 111.269 347.475 111.441 346.692C111.608 345.916 111.937 345.119 112.428 344.303C112.918 343.487 113.468 342.819 114.079 342.3C114.686 341.787 115.327 341.426 116.004 341.216C116.683 341.018 117.383 340.971 118.103 341.077C118.83 341.187 119.557 341.461 120.284 341.898C121.011 342.334 121.59 342.846 122.022 343.432C122.461 344.022 122.749 344.661 122.886 345.35C123.018 346.046 123.001 346.782 122.833 347.558C122.661 348.342 122.33 349.141 121.84 349.957Z" fill="white"/>
<path d="M138.844 367.792L145.841 351.913L142.865 350.602L136.87 364.207L132.532 362.296C133.307 360.259 133.92 358.471 134.372 356.93C134.828 355.4 135.15 354.064 135.338 352.923C135.523 351.789 135.591 350.832 135.542 350.05C135.493 349.267 135.35 348.61 135.113 348.077C134.873 347.551 134.554 347.123 134.159 346.791C133.76 346.466 133.311 346.195 132.813 345.975C132.286 345.743 131.881 345.621 131.597 345.61C131.314 345.599 131.132 345.684 131.051 345.867L130.238 347.712L131.084 348.085C131.274 348.169 131.455 348.275 131.626 348.402C131.804 348.533 131.958 348.71 132.087 348.933C132.22 349.167 132.318 349.459 132.382 349.811C132.453 350.166 132.473 350.607 132.441 351.135C132.413 351.674 132.326 352.308 132.179 353.039C132.039 353.773 131.821 354.634 131.525 355.623C131.237 356.615 130.866 357.745 130.411 359.014C129.961 360.293 129.408 361.736 128.752 363.344L138.844 367.792Z" fill="white"/>
<path d="M149.299 371.518L151.411 364.66L154.118 365.494C155.196 365.826 156.153 365.991 156.991 365.989C157.836 365.99 158.563 365.858 159.172 365.594C159.786 365.339 160.294 364.968 160.695 364.481C161.094 364.001 161.391 363.443 161.586 362.809C161.827 362.029 161.907 361.279 161.827 360.56C161.755 359.843 161.529 359.175 161.151 358.556C160.77 357.945 160.238 357.401 159.557 356.923C158.883 356.448 158.064 356.061 157.101 355.765L151.321 353.985L146.214 370.569L149.299 371.518ZM152.153 362.252L153.664 357.343L156.359 358.173C156.933 358.35 157.392 358.558 157.736 358.798C158.086 359.048 158.346 359.321 158.514 359.615C158.683 359.91 158.771 360.222 158.779 360.551C158.786 360.879 158.737 361.216 158.631 361.56C158.516 361.934 158.361 362.259 158.168 362.535C157.974 362.81 157.727 363.014 157.427 363.148C157.124 363.289 156.763 363.358 156.346 363.355C155.928 363.352 155.433 363.262 154.859 363.085L152.153 362.252Z" fill="white"/>
<path d="M174.665 373.409C174.827 372.61 174.79 371.847 174.553 371.122C174.317 370.396 173.874 369.76 173.226 369.212C173.656 369.103 174.058 368.952 174.432 368.759C174.812 368.574 175.148 368.349 175.439 368.081C175.736 367.823 175.984 367.526 176.183 367.191C176.389 366.857 176.533 366.49 176.614 366.091C176.769 365.322 176.77 364.575 176.615 363.85C176.467 363.127 176.169 362.462 175.721 361.857C175.28 361.253 174.693 360.726 173.96 360.276C173.225 359.833 172.348 359.508 171.329 359.302C170.733 359.181 170.138 359.118 169.543 359.111C168.958 359.099 168.387 359.138 167.829 359.229C167.272 359.32 166.738 359.457 166.228 359.639C165.718 359.822 165.252 360.046 164.831 360.311L165.452 362.017C165.516 362.144 165.6 362.255 165.703 362.349C165.813 362.453 165.942 362.52 166.091 362.55C166.295 362.592 166.535 362.555 166.812 362.439C167.086 362.332 167.416 362.215 167.801 362.089C168.186 361.963 168.63 361.865 169.134 361.796C169.644 361.736 170.232 361.773 170.898 361.908C171.957 362.123 172.73 362.516 173.218 363.088C173.706 363.661 173.855 364.417 173.664 365.358C173.586 365.742 173.438 366.072 173.219 366.346C173.001 366.62 172.725 366.833 172.392 366.986C172.059 367.139 171.673 367.228 171.236 367.254C170.804 367.289 170.337 367.255 169.836 367.154L167.436 366.667L166.91 369.205L169.097 369.649C170.077 369.847 170.803 370.194 171.274 370.69C171.751 371.195 171.915 371.815 171.766 372.553C171.634 373.203 171.266 373.668 170.663 373.945C170.066 374.232 169.274 374.276 168.286 374.076C167.714 373.96 167.232 373.797 166.842 373.587C166.46 373.379 166.131 373.17 165.855 372.959C165.586 372.757 165.358 372.572 165.172 372.404C164.993 372.237 164.822 372.137 164.657 372.104C164.5 372.072 164.359 372.084 164.234 372.14C164.108 372.197 163.982 372.293 163.856 372.431L162.775 373.779C163.319 374.477 164.01 375.074 164.848 375.571C165.694 376.069 166.67 376.43 167.776 376.654C168.693 376.84 169.542 376.898 170.324 376.827C171.113 376.759 171.807 376.577 172.406 376.282C173.003 375.995 173.494 375.605 173.88 375.111C174.272 374.628 174.533 374.06 174.665 373.409Z" fill="white"/>
<path d="M183.813 364.124C183.988 364.141 184.166 364.174 184.346 364.224C184.526 364.273 184.699 364.354 184.865 364.467C185.039 364.58 185.201 364.732 185.351 364.924C185.502 365.115 185.635 365.361 185.75 365.661L186.298 367.101L178.198 378.554L181.208 378.845C181.487 378.872 181.716 378.826 181.897 378.707C182.077 378.588 182.233 378.43 182.364 378.234L186.333 372.228C186.765 371.587 187.123 370.918 187.407 370.222C187.476 370.59 187.561 370.952 187.664 371.308C187.766 371.663 187.884 372.024 188.017 372.391L190.331 379.004C190.402 379.188 190.517 379.364 190.678 379.532C190.839 379.7 191.054 379.798 191.325 379.824L193.989 380.081L188.451 364.536C188.254 363.995 188.033 363.543 187.786 363.182C187.54 362.82 187.263 362.528 186.955 362.306C186.655 362.084 186.321 361.919 185.954 361.811C185.595 361.696 185.205 361.618 184.783 361.577C184.209 361.522 183.786 361.533 183.514 361.611C183.241 361.689 183.095 361.828 183.076 362.027L182.882 364.034L183.813 364.124Z" fill="white"/>
<path d="M211.053 380.197L211.033 377.629L203.329 377.688L203.292 372.876L209.364 372.829L209.344 370.345L203.273 370.392L203.235 365.484L210.939 365.425L210.919 362.845L199.975 362.93L200.109 380.281L211.053 380.197Z" fill="white"/>
<path d="M224.371 368.898C224.472 368.626 224.56 368.345 224.635 368.052C224.718 367.767 224.797 367.478 224.872 367.186C225.021 367.465 225.174 367.731 225.328 367.985C225.484 368.247 225.646 368.496 225.814 368.732L232.149 377.592C232.229 377.703 232.309 377.789 232.389 377.851C232.47 377.913 232.552 377.955 232.636 377.976C232.727 377.996 232.825 378.004 232.929 377.998C233.033 377.992 233.157 377.98 233.299 377.961L235.715 377.643L233.448 360.44L230.628 360.811L232.092 371.923C232.12 372.13 232.153 372.355 232.194 372.6C232.242 372.844 232.295 373.091 232.352 373.342L225.868 364.271C225.56 363.835 225.152 363.651 224.645 363.718L224.193 363.777C223.685 363.844 223.339 364.128 223.155 364.628L219.186 375.113C219.176 374.848 219.162 374.587 219.144 374.331C219.128 374.083 219.105 373.852 219.077 373.638L217.613 362.526L214.793 362.898L217.06 380.101L219.475 379.783C219.618 379.764 219.74 379.744 219.842 379.722C219.944 379.701 220.033 379.669 220.108 379.627C220.191 379.584 220.26 379.522 220.314 379.442C220.376 379.362 220.431 379.258 220.478 379.13L224.371 368.898Z" fill="white"/>
<path d="M247 375.165L244.993 368.275L247.711 367.483C248.794 367.167 249.685 366.779 250.384 366.317C251.09 365.853 251.625 365.343 251.988 364.787C252.361 364.236 252.581 363.647 252.648 363.02C252.717 362.399 252.659 361.771 252.473 361.133C252.245 360.35 251.899 359.68 251.437 359.123C250.982 358.564 250.427 358.13 249.77 357.821C249.116 357.52 248.373 357.358 247.541 357.333C246.716 357.307 245.82 357.435 244.853 357.717L239.046 359.409L243.901 376.068L247 375.165ZM244.287 365.856L242.85 360.925L245.558 360.136C246.134 359.968 246.632 359.89 247.052 359.901C247.481 359.917 247.848 360.002 248.151 360.155C248.454 360.309 248.699 360.521 248.886 360.791C249.073 361.062 249.217 361.37 249.318 361.715C249.427 362.092 249.477 362.448 249.467 362.784C249.456 363.12 249.362 363.427 249.185 363.704C249.009 363.988 248.746 364.244 248.396 364.471C248.046 364.698 247.582 364.896 247.006 365.064L244.287 365.856ZM256.5 354.322L253.389 355.229L258.245 371.888L261.355 370.981L256.5 354.322Z" fill="white"/>
<path d="M279.112 363.693L278.094 361.336L271.021 364.39L269.114 359.972L274.688 357.565L273.703 355.284L268.129 357.691L266.183 353.186L273.256 350.132L272.233 347.763L262.186 352.101L269.065 368.032L279.112 363.693Z" fill="white"/>
<path d="M300.534 330.78L282.09 343.094L291.725 357.525L294.42 355.726L286.164 343.361L291.334 339.909L299.589 352.275L302.284 350.476L294.029 338.11L299.218 334.645L307.474 347.011L310.168 345.212L300.534 330.78Z" fill="white"/>
<path d="M315.912 317.27L314.053 318.936C313.845 319.123 313.72 319.326 313.68 319.545C313.645 319.77 313.664 319.989 313.738 320.202L315.136 323.703L309.784 328.501L306.456 326.731C306.285 326.637 306.081 326.594 305.842 326.604C305.604 326.613 305.38 326.712 305.172 326.899L303.304 328.573L319.962 336.943L322.42 334.74L315.912 317.27ZM311.922 329.646L316.041 325.954L318.322 331.661C318.415 331.921 318.535 332.217 318.681 332.548C318.833 332.884 319.003 333.242 319.192 333.621C318.836 333.392 318.499 333.184 318.181 332.996C317.868 332.804 317.585 332.644 317.332 332.516L311.922 329.646Z" fill="white"/>
<path d="M337.156 316.001L331.452 322.363L327.968 319.239L329.858 317.13C330.611 316.29 331.162 315.489 331.512 314.728C331.866 313.961 332.051 313.246 332.066 312.582C332.092 311.918 331.968 311.301 331.693 310.733C331.424 310.17 331.043 309.666 330.548 309.223C329.941 308.678 329.294 308.292 328.607 308.063C327.926 307.828 327.225 307.753 326.504 307.838C325.79 307.928 325.073 308.182 324.353 308.601C323.639 309.014 322.946 309.595 322.273 310.346L318.236 314.849L331.156 326.432L339.014 317.667L337.156 316.001ZM326.091 317.556L322.267 314.128L324.15 312.028C324.55 311.581 324.931 311.252 325.294 311.04C325.667 310.827 326.023 310.705 326.362 310.675C326.7 310.646 327.02 310.696 327.322 310.827C327.623 310.958 327.908 311.143 328.176 311.384C328.468 311.645 328.699 311.922 328.867 312.213C329.036 312.504 329.118 312.814 329.114 313.143C329.115 313.477 329.027 313.833 328.849 314.211C328.671 314.589 328.382 315.001 327.982 315.448L326.091 317.556Z" fill="white"/>
<path d="M351.519 300.943L337.339 290.941L335.464 293.599L347.614 302.168L344.882 306.042C343.04 304.879 341.408 303.924 339.987 303.177C338.577 302.427 337.332 301.847 336.25 301.437C335.176 301.031 334.25 300.775 333.474 300.668C332.698 300.561 332.025 300.571 331.456 300.698C330.893 300.83 330.41 301.057 330.006 301.379C329.609 301.706 329.254 302.092 328.94 302.537C328.608 303.007 328.409 303.381 328.342 303.656C328.274 303.932 328.322 304.127 328.486 304.243L330.133 305.405L330.666 304.65C330.786 304.48 330.925 304.323 331.084 304.181C331.248 304.032 331.452 303.917 331.696 303.834C331.951 303.75 332.258 303.711 332.615 303.719C332.977 303.719 333.413 303.787 333.924 303.923C334.447 304.056 335.052 304.268 335.739 304.556C336.431 304.839 337.232 305.223 338.142 305.708C339.058 306.187 340.092 306.775 341.246 307.471C342.41 308.165 343.716 308.993 345.162 309.955L351.519 300.943Z" fill="white"/>
<path d="M355.815 275.848C354.692 275.251 353.551 274.883 352.391 274.746C351.243 274.605 350.138 274.688 349.078 274.994C348.018 275.299 347.037 275.823 346.133 276.566C345.238 277.313 344.479 278.268 343.859 279.433C343.242 280.592 342.874 281.751 342.755 282.911C342.643 284.074 342.754 285.185 343.088 286.242C343.426 287.292 343.972 288.258 344.726 289.14C345.487 290.026 346.429 290.768 347.552 291.365C348.675 291.963 349.812 292.329 350.965 292.462C352.124 292.599 353.234 292.515 354.294 292.21C355.358 291.897 356.338 291.367 357.234 290.621C358.137 289.878 358.897 288.928 359.514 287.77C359.927 286.993 360.225 286.213 360.406 285.431C360.594 284.652 360.674 283.888 360.647 283.139C360.627 282.394 360.501 281.67 360.268 280.966C360.046 280.259 359.731 279.592 359.321 278.966C358.911 278.34 358.411 277.765 357.819 277.242C357.231 276.712 356.563 276.247 355.815 275.848ZM354.264 278.761C355.104 279.209 355.796 279.722 356.339 280.301C356.89 280.885 357.287 281.509 357.531 282.173C357.776 282.838 357.861 283.536 357.789 284.268C357.72 284.993 357.487 285.73 357.088 286.478C356.689 287.227 356.207 287.835 355.64 288.304C355.077 288.765 354.45 289.084 353.758 289.259C353.07 289.428 352.331 289.446 351.54 289.315C350.755 289.188 349.943 288.9 349.103 288.453C348.263 288.005 347.567 287.49 347.017 286.907C346.473 286.327 346.08 285.705 345.835 285.04C345.602 284.372 345.52 283.676 345.588 282.951C345.661 282.219 345.896 281.479 346.295 280.731C346.694 279.982 347.174 279.377 347.737 278.916C348.304 278.447 348.928 278.127 349.609 277.954C350.297 277.786 351.033 277.766 351.817 277.893C352.608 278.024 353.424 278.314 354.264 278.761Z" fill="white"/>
<path d="M355.136 254.102L353.998 257.136L361.098 259.8L358.236 267.429L351.135 264.764L349.997 267.798L366.243 273.894L367.381 270.86L360.393 268.238L363.255 260.609L370.244 263.232L371.382 260.198L355.136 254.102Z" fill="white"/>
<path d="M374.582 249.713L367.578 248.154L368.193 245.389C368.438 244.288 368.526 243.32 368.458 242.485C368.392 241.643 368.202 240.929 367.89 240.343C367.587 239.751 367.177 239.274 366.659 238.913C366.149 238.554 365.57 238.302 364.922 238.158C364.125 237.981 363.372 237.96 362.661 238.097C361.952 238.226 361.304 238.504 360.717 238.931C360.139 239.359 359.638 239.932 359.216 240.65C358.796 241.359 358.476 242.206 358.257 243.19L356.943 249.094L373.881 252.864L374.582 249.713ZM365.118 247.606L360.104 246.49L360.717 243.738C360.847 243.152 361.019 242.678 361.23 242.315C361.452 241.946 361.703 241.666 361.983 241.475C362.263 241.283 362.567 241.17 362.894 241.136C363.221 241.103 363.561 241.125 363.912 241.203C364.295 241.288 364.631 241.416 364.921 241.587C365.21 241.759 365.434 241.989 365.591 242.278C365.755 242.568 365.853 242.922 365.883 243.338C365.913 243.755 365.863 244.256 365.733 244.842L365.118 247.606ZM360.893 231.348L360.189 234.51L377.127 238.28L377.831 235.118L360.893 231.348Z" fill="white"/>
<path d="M369.489 219.524C369.8 219.547 370.096 219.513 370.375 219.421C370.663 219.322 370.914 219.18 371.128 218.995C371.351 218.803 371.528 218.575 371.66 218.312C371.799 218.049 371.88 217.763 371.903 217.451C371.927 217.132 371.889 216.833 371.789 216.553C371.698 216.265 371.556 216.014 371.363 215.799C371.179 215.577 370.951 215.396 370.681 215.256C370.418 215.116 370.131 215.035 369.82 215.012C369.509 214.99 369.214 215.028 368.933 215.128C368.661 215.228 368.414 215.374 368.191 215.567C367.977 215.751 367.8 215.979 367.66 216.249C367.528 216.513 367.451 216.804 367.427 217.123C367.405 217.434 367.439 217.729 367.531 218.009C367.631 218.289 367.773 218.54 367.957 218.762C368.15 218.977 368.373 219.154 368.628 219.293C368.891 219.424 369.178 219.501 369.489 219.524Z" fill="white"/>
<path d="M362.521 190.483L362.697 193.73L369.635 193.355C369.454 194.302 369.331 195.21 369.265 196.079C369.2 196.94 369.207 197.745 369.288 198.493C369.368 199.234 369.529 199.906 369.769 200.51C370.01 201.114 370.354 201.624 370.802 202.041C371.248 202.449 371.802 202.756 372.462 202.96C373.13 203.165 373.927 203.242 374.854 203.192L380.569 202.883L380.394 199.635L374.678 199.944C374.007 199.981 373.442 199.895 372.982 199.688C372.522 199.48 372.174 199.118 371.938 198.602C371.701 198.078 371.579 197.38 371.572 196.507C371.572 195.626 371.69 194.534 371.924 193.231L380.024 192.793L379.848 189.546L362.521 190.483Z" fill="white"/>
<path d="M359.529 170.079L359.95 172.539C359.997 172.815 360.103 173.029 360.266 173.179C360.438 173.329 360.634 173.429 360.854 173.481L364.561 174.161L365.773 181.247L362.502 183.121C362.331 183.215 362.187 183.365 362.068 183.572C361.949 183.779 361.913 184.021 361.96 184.297L362.383 186.769L378.338 177.126L377.782 173.873L359.529 170.079ZM367.881 180.046L366.948 174.593L372.994 175.702C373.264 175.762 373.578 175.818 373.935 175.87C374.301 175.921 374.695 175.967 375.116 176.009C374.733 176.188 374.377 176.363 374.049 176.532C373.719 176.694 373.433 176.849 373.191 176.996L367.881 180.046Z" fill="white"/>
<path d="M359.46 154.422C359.412 154.253 359.303 154.121 359.135 154.028L357.457 153.187C356.814 154.104 356.411 155.123 356.25 156.243C356.087 157.355 356.204 158.604 356.602 159.988C356.958 161.225 357.49 162.28 358.197 163.15C358.903 164.013 359.733 164.686 360.688 165.169C361.642 165.652 362.697 165.932 363.851 166.008C365.002 166.076 366.197 165.933 367.435 165.577C368.688 165.217 369.777 164.688 370.7 163.99C371.63 163.29 372.369 162.47 372.915 161.531C373.458 160.584 373.793 159.547 373.919 158.42C374.052 157.292 373.943 156.116 373.592 154.893C373.243 153.679 372.734 152.66 372.064 151.836C371.393 151.006 370.639 150.352 369.803 149.877L368.66 151.329C368.585 151.417 368.528 151.521 368.487 151.641C368.445 151.753 368.447 151.893 368.496 152.063C368.529 152.178 368.594 152.288 368.691 152.394C368.796 152.497 368.915 152.608 369.049 152.728C369.191 152.845 369.347 152.983 369.518 153.142C369.689 153.302 369.856 153.495 370.022 153.722C370.195 153.947 370.36 154.22 370.519 154.54C370.683 154.851 370.828 155.226 370.954 155.664C371.169 156.41 371.231 157.133 371.14 157.833C371.056 158.523 370.824 159.164 370.444 159.756C370.073 160.345 369.557 160.868 368.897 161.324C368.245 161.778 367.454 162.138 366.524 162.406C365.586 162.675 364.714 162.784 363.908 162.733C363.101 162.673 362.382 162.489 361.751 162.179C361.121 161.869 360.583 161.445 360.137 160.907C359.699 160.367 359.379 159.743 359.175 159.036C359.054 158.613 358.968 158.226 358.916 157.874C358.863 157.515 358.846 157.179 358.864 156.865C358.88 156.545 358.928 156.235 359.009 155.937C359.096 155.629 359.218 155.316 359.375 154.996C359.422 154.899 359.453 154.803 359.467 154.707C359.489 154.609 359.487 154.514 359.46 154.422Z" fill="white"/>
<path d="M365.382 132.709L362.924 133.705L364.89 138.554L351.267 144.077L352.48 147.069L366.103 141.545L368.069 146.394L370.526 145.398L365.382 132.709Z" fill="white"/>
<path d="M347.729 117.466C346.613 118.076 345.68 118.829 344.929 119.723C344.181 120.606 343.643 121.574 343.317 122.628C342.991 123.682 342.89 124.79 343.015 125.953C343.147 127.111 343.53 128.27 344.163 129.428C344.793 130.579 345.559 131.523 346.464 132.259C347.375 132.992 348.364 133.509 349.431 133.809C350.495 134.103 351.602 134.177 352.753 134.031C353.911 133.881 355.048 133.501 356.164 132.891C357.28 132.28 358.21 131.53 358.954 130.64C359.705 129.746 360.244 128.772 360.571 127.718C360.893 126.657 360.989 125.548 360.856 124.389C360.731 123.226 360.354 122.07 359.725 120.918C359.302 120.146 358.814 119.47 358.259 118.889C357.711 118.304 357.117 117.817 356.476 117.429C355.842 117.037 355.168 116.745 354.452 116.553C353.739 116.35 353.008 116.248 352.26 116.247C351.512 116.246 350.757 116.349 349.994 116.556C349.229 116.756 348.474 117.059 347.729 117.466ZM349.313 120.362C350.148 119.905 350.957 119.608 351.74 119.472C352.529 119.332 353.269 119.342 353.959 119.503C354.648 119.664 355.279 119.976 355.851 120.438C356.419 120.893 356.907 121.493 357.313 122.237C357.72 122.981 357.964 123.718 358.045 124.449C358.121 125.173 358.043 125.873 357.81 126.547C357.574 127.214 357.183 127.843 356.639 128.432C356.102 129.017 355.416 129.539 354.581 129.995C353.745 130.452 352.933 130.75 352.143 130.89C351.361 131.027 350.625 131.014 349.935 130.853C349.248 130.682 348.621 130.368 348.053 129.913C347.481 129.451 346.992 128.848 346.585 128.104C346.178 127.36 345.936 126.626 345.859 125.902C345.779 125.171 345.853 124.473 346.083 123.81C346.32 123.142 346.707 122.516 347.244 121.931C347.788 121.341 348.477 120.818 349.313 120.362Z" fill="white"/>
<path d="M340.18 93.7142C340.229 93.5832 340.27 93.4427 340.304 93.2928C340.333 93.1367 340.345 92.9843 340.339 92.8356C340.339 92.682 340.319 92.5345 340.278 92.3932C340.238 92.2407 340.169 92.1019 340.069 91.9767L338.559 90.0808L324.987 100.892L327.005 103.427L335.509 96.6525C335.828 96.3983 336.155 96.1278 336.489 95.8412C336.825 95.5433 337.169 95.2123 337.524 94.8482C337.279 95.2475 337.064 95.6387 336.878 96.0219C336.699 96.4001 336.552 96.7477 336.436 97.0648L332.48 108.7C332.431 108.831 332.392 108.975 332.363 109.131C332.329 109.281 332.312 109.433 332.311 109.586C332.317 109.735 332.34 109.886 332.38 110.038C332.426 110.186 332.496 110.319 332.591 110.438L334.101 112.334L347.673 101.522L345.654 98.9881L337.151 105.762C336.831 106.016 336.501 106.295 336.159 106.598C335.818 106.901 335.47 107.234 335.115 107.598C335.366 107.194 335.584 106.8 335.77 106.417C335.951 106.028 336.099 105.669 336.216 105.34L340.18 93.7142Z" fill="white"/>
<path d="M315.757 85.369C315.632 85.245 315.473 85.1834 315.281 85.1841L313.406 85.2673C313.291 86.3821 313.437 87.4677 313.842 88.5241C314.242 89.5748 314.953 90.6074 315.975 91.6219C316.889 92.5294 317.867 93.1905 318.909 93.6053C319.946 94.0145 320.999 94.1974 322.068 94.1539C323.137 94.1104 324.194 93.8407 325.239 93.3447C326.278 92.8432 327.251 92.1354 328.158 91.2213C329.077 90.2959 329.769 89.3034 330.235 88.2439C330.706 87.1787 330.951 86.103 330.97 85.0168C330.983 83.925 330.77 82.8566 330.33 81.8116C329.897 80.761 329.228 79.7877 328.326 78.8915C327.429 78.001 326.487 77.3595 325.502 76.9671C324.51 76.5691 323.534 76.3661 322.572 76.3583L322.282 78.1837C322.259 78.2969 322.26 78.4157 322.283 78.5401C322.3 78.6588 322.371 78.7802 322.496 78.9042C322.581 78.9887 322.692 79.0534 322.828 79.0981C322.969 79.1372 323.128 79.1763 323.303 79.2152C323.485 79.2485 323.688 79.293 323.915 79.3488C324.141 79.4045 324.382 79.4913 324.637 79.6092C324.898 79.7214 325.176 79.8787 325.47 80.0813C325.765 80.2726 326.074 80.5289 326.398 80.8501C326.949 81.3968 327.355 81.9978 327.618 82.6531C327.881 83.297 327.991 83.9698 327.948 84.6714C327.911 85.3673 327.715 86.0751 327.362 86.7948C327.013 87.5089 326.498 88.2094 325.816 88.8963C325.129 89.589 324.421 90.1092 323.692 90.4569C322.958 90.799 322.24 90.9882 321.539 91.0247C320.838 91.0612 320.161 90.9534 319.51 90.7012C318.864 90.4433 318.28 90.0551 317.758 89.5366C317.445 89.2266 317.181 88.9305 316.965 88.6485C316.744 88.3608 316.564 88.0758 316.428 87.7934C316.285 87.5054 316.177 87.2117 316.102 86.9121C316.027 86.6013 315.981 86.2677 315.963 85.9114C315.957 85.8039 315.936 85.705 315.902 85.6146C315.873 85.5185 315.825 85.4367 315.757 85.369Z" fill="white"/>
<path d="M297.679 75.6507L300.237 77.6584L309.416 65.9619L315.345 70.6143L306.166 82.3107L308.715 84.311L319.427 70.6604L308.391 62.0002L297.679 75.6507Z" fill="white"/>
<path d="M284.266 56.8663C283.611 57.9567 283.185 59.0774 282.988 60.2284C282.788 61.3684 282.814 62.4756 283.064 63.55C283.315 64.6244 283.788 65.6317 284.483 66.5719C285.182 67.5052 286.098 68.3117 287.229 68.9914C288.354 69.667 289.492 70.0943 290.645 70.2733C291.801 70.4454 292.916 70.3918 293.989 70.1125C295.055 69.829 296.048 69.3336 296.968 68.6261C297.891 67.9118 298.681 67.0094 299.336 65.919C299.991 64.8286 300.415 63.7114 300.607 62.5672C300.804 61.4162 300.777 60.3035 300.527 59.2291C300.269 58.1506 299.791 57.1447 299.092 56.2114C298.397 55.2712 297.487 54.4633 296.362 53.7877C295.608 53.3346 294.844 52.9973 294.072 52.776C293.304 52.5479 292.545 52.4281 291.796 52.4168C291.051 52.3985 290.321 52.4873 289.606 52.6832C288.889 52.868 288.207 53.1489 287.56 53.5259C286.914 53.9028 286.314 54.3731 285.761 54.9367C285.201 55.4962 284.702 56.1394 284.266 56.8663ZM287.095 58.5656C287.585 57.7495 288.133 57.0851 288.74 56.5723C289.351 56.0526 289.994 55.688 290.671 55.4785C291.347 55.2689 292.049 55.2192 292.776 55.3293C293.497 55.4353 294.22 55.7067 294.947 56.1434C295.674 56.58 296.257 57.0935 296.696 57.6837C297.127 58.2697 297.413 58.9126 297.553 59.6124C297.685 60.3081 297.666 61.0476 297.494 61.8309C297.326 62.6074 296.997 63.4036 296.507 64.2197C296.017 65.0358 295.466 65.7037 294.855 66.2233C294.249 66.7361 293.607 67.0973 292.931 67.3069C292.251 67.5055 291.552 67.5517 290.831 67.4457C290.104 67.3356 289.377 67.0622 288.65 66.6255C287.923 66.1888 287.344 65.6774 286.912 65.0914C286.473 64.5012 286.186 63.8617 286.049 63.1729C285.916 62.4772 285.934 61.7412 286.101 60.9647C286.273 60.1814 286.604 59.3817 287.095 58.5656Z" fill="white"/>
<path d="M269.75 40.5454L262.812 56.45L265.793 57.7503L271.738 44.1225L276.082 46.0177C275.315 48.057 274.708 49.8478 274.262 51.3902C273.812 52.922 273.495 54.2588 273.311 55.4005C273.131 56.5349 273.066 57.4931 273.118 58.2749C273.17 59.0568 273.315 59.7138 273.554 60.2458C273.797 60.7705 274.117 61.198 274.514 61.5283C274.914 61.8513 275.363 62.1216 275.862 62.3391C276.39 62.5694 276.796 62.6896 277.079 62.6999C277.363 62.7101 277.545 62.6236 277.625 62.4403L278.431 60.5924L277.584 60.223C277.393 60.1398 277.212 60.0346 277.04 59.9075C276.862 59.7771 276.707 59.6007 276.577 59.3782C276.443 59.1452 276.344 58.853 276.279 58.5018C276.207 58.1473 276.185 57.7059 276.215 57.1777C276.241 56.639 276.326 56.004 276.47 55.2728C276.607 54.5383 276.822 53.6762 277.114 52.6865C277.399 51.6935 277.766 50.5619 278.215 49.2916C278.66 48.0108 279.208 46.5652 279.858 44.9548L269.75 40.5454Z" fill="white"/>
<path d="M259.812 36.9505L257.7 43.8088L254.994 42.9753C253.916 42.6434 252.958 42.4782 252.12 42.4798C251.275 42.479 250.548 42.6109 249.939 42.8754C249.325 43.13 248.817 43.501 248.416 43.9885C248.017 44.4684 247.72 45.0256 247.525 45.6602C247.285 46.4401 247.204 47.1897 247.284 47.909C247.356 48.626 247.582 49.2939 247.961 49.9128C248.342 50.524 248.873 51.0684 249.554 51.5462C250.228 52.0216 251.047 52.4076 252.01 52.7042L257.791 54.4841L262.897 37.9005L259.812 36.9505ZM256.959 46.2172L255.447 51.1257L252.752 50.2958C252.179 50.1192 251.72 49.9109 251.375 49.6709C251.025 49.4208 250.766 49.1485 250.597 48.8538C250.428 48.559 250.34 48.2473 250.332 47.9185C250.325 47.5897 250.374 47.2533 250.48 46.9092C250.595 46.5346 250.75 46.2097 250.943 45.9344C251.137 45.6592 251.384 45.4549 251.685 45.3214C251.988 45.1803 252.348 45.1113 252.765 45.1143C253.183 45.1174 253.679 45.2072 254.252 45.3837L256.959 46.2172Z" fill="white"/>
<path d="M233.677 34.8651C233.518 35.6655 233.559 36.4279 233.798 37.1525C234.037 37.877 234.482 38.5119 235.132 39.057C234.703 39.1674 234.301 39.3201 233.928 39.5151C233.549 39.7007 233.214 39.9279 232.924 40.1965C232.628 40.4558 232.381 40.7534 232.184 41.0894C231.979 41.4239 231.837 41.7912 231.757 42.1914C231.604 42.9603 231.607 43.7071 231.765 44.4318C231.915 45.1549 232.215 45.8181 232.666 46.4216C233.109 47.0235 233.698 47.5483 234.433 47.9961C235.17 48.436 236.048 48.7573 237.068 48.96C237.664 49.0785 238.26 49.1397 238.854 49.1436C239.44 49.1538 240.011 49.1123 240.567 49.019C241.124 48.9258 241.658 48.787 242.167 48.6028C242.677 48.4186 243.142 48.1928 243.562 47.9256L242.934 46.2225C242.869 46.0955 242.785 45.985 242.682 45.891C242.572 45.7876 242.442 45.7211 242.293 45.6915C242.089 45.651 241.849 45.6889 241.573 45.8054C241.299 45.914 240.969 46.0321 240.585 46.1596C240.201 46.2872 239.757 46.3866 239.253 46.4579C238.744 46.5197 238.155 46.4844 237.488 46.3519C236.429 46.1414 235.654 45.751 235.164 45.1805C234.674 44.6101 234.522 43.854 234.709 42.9124C234.785 42.5279 234.933 42.1983 235.15 41.9234C235.368 41.6486 235.643 41.4341 235.975 41.2799C236.308 41.1257 236.693 41.035 237.131 41.0078C237.562 40.9711 238.029 41.0027 238.531 41.1025L240.932 41.5795L241.449 39.0395L239.26 38.6046C238.279 38.4097 237.552 38.0655 237.079 37.5719C236.6 37.0689 236.434 36.4486 236.58 35.711C236.71 35.0597 237.075 34.5941 237.677 34.314C238.273 34.0246 239.066 33.9781 240.054 34.1745C240.627 34.2883 241.109 34.4493 241.5 34.6574C241.883 34.864 242.213 35.0723 242.489 35.2822C242.759 35.4826 242.988 35.6667 243.175 35.8343C243.354 36.0004 243.526 36.0998 243.69 36.1326C243.847 36.1637 243.989 36.151 244.114 36.0944C244.239 36.0377 244.365 35.9403 244.49 35.8021L245.566 34.4498C245.019 33.7539 244.326 33.1594 243.486 32.6663C242.638 32.1716 241.661 31.8143 240.555 31.5945C239.637 31.4121 238.787 31.3575 238.006 31.4307C237.217 31.5023 236.523 31.6868 235.926 31.984C235.33 32.2735 234.84 32.6656 234.457 33.1603C234.067 33.6456 233.807 34.2139 233.677 34.8651Z" fill="white"/>
<path d="M224.497 44.1344C224.321 44.1182 224.144 44.0856 223.963 44.0367C223.783 43.9879 223.61 43.9075 223.443 43.7956C223.269 43.683 223.106 43.5314 222.955 43.3406C222.804 43.1498 222.67 42.9044 222.554 42.6043L222 41.167L230.056 29.6824L227.045 29.4029C226.766 29.377 226.537 29.424 226.357 29.5439C226.177 29.6638 226.022 29.8221 225.891 30.0189L221.946 36.04C221.516 36.6831 221.161 37.3531 220.879 38.0501C220.809 37.682 220.722 37.3204 220.619 36.9653C220.515 36.6102 220.396 36.2497 220.261 35.8837L217.921 29.2792C217.85 29.0958 217.734 28.9203 217.573 28.7527C217.411 28.5851 217.195 28.4887 216.924 28.4636L214.26 28.2162L219.857 43.74C220.056 44.2807 220.279 44.7312 220.527 45.0917C220.775 45.4521 221.053 45.7431 221.362 45.9646C221.663 46.1853 221.997 46.3489 222.365 46.4554C222.724 46.569 223.115 46.6455 223.537 46.6846C224.11 46.7379 224.533 46.7249 224.806 46.6458C225.078 46.5666 225.224 46.4274 225.242 46.2283L225.429 44.2209L224.497 44.1344Z" fill="white"/>
<path d="M197.329 28.1267L197.359 30.6946L205.063 30.6053L205.118 35.417L199.047 35.4873L199.076 37.9712L205.147 37.9009L205.204 42.8085L197.5 42.8977L197.53 45.4776L208.474 45.3508L208.273 28L197.329 28.1267Z" fill="white"/>
<path d="M184.074 39.4118C183.974 39.6838 183.887 39.966 183.814 40.2586C183.731 40.5442 183.653 40.8333 183.58 41.1258C183.429 40.8476 183.276 40.5817 183.121 40.3283C182.964 40.067 182.801 39.8186 182.632 39.5833L176.262 30.7473C176.183 30.637 176.103 30.551 176.022 30.4894C175.941 30.4277 175.858 30.3864 175.775 30.3654C175.683 30.3455 175.585 30.3386 175.481 30.3447C175.377 30.3507 175.254 30.3634 175.111 30.3828L172.697 30.7103L175.03 47.9048L177.848 47.5225L176.341 36.4162C176.313 36.2101 176.279 35.9847 176.237 35.74C176.188 35.4964 176.135 35.2494 176.076 34.9989L182.596 44.0447C182.905 44.479 183.313 44.6618 183.82 44.593L184.272 44.5317C184.78 44.4629 185.124 44.1779 185.307 43.6769L189.235 33.1775C189.247 33.4423 189.262 33.7026 189.28 33.9585C189.298 34.2064 189.321 34.4373 189.35 34.6514L190.857 45.7577L193.675 45.3753L191.342 28.1808L188.928 28.5083C188.786 28.5277 188.663 28.5483 188.561 28.5702C188.459 28.5921 188.371 28.6243 188.296 28.6668C188.213 28.7103 188.145 28.772 188.091 28.852C188.029 28.933 187.975 29.0373 187.928 29.1648L184.074 39.4118Z" fill="white"/>
<path d="M161.778 33.0456L163.812 39.9273L161.096 40.73C160.014 41.0497 159.125 41.4419 158.428 41.9064C157.723 42.3733 157.19 42.8853 156.83 43.4424C156.459 43.9941 156.241 44.584 156.176 45.2121C156.109 45.8325 156.17 46.4611 156.358 47.0979C156.59 47.8804 156.937 48.5492 157.402 49.1044C157.858 49.6618 158.416 50.0936 159.073 50.3997C159.729 50.6982 160.473 50.8579 161.305 50.8789C162.129 50.9022 163.025 50.771 163.991 50.4853L169.791 48.7711L164.873 32.1307L161.778 33.0456ZM164.526 42.344L165.982 47.2694L163.277 48.0686C162.702 48.2387 162.204 48.319 161.784 48.3097C161.354 48.2949 160.988 48.2114 160.684 48.0592C160.381 47.907 160.135 47.696 159.947 47.4263C159.758 47.1566 159.613 46.8491 159.511 46.5039C159.4 46.1279 159.349 45.7718 159.358 45.4354C159.367 45.0991 159.46 44.7922 159.637 44.5148C159.811 44.2297 160.073 43.9729 160.422 43.7444C160.772 43.516 161.235 43.3167 161.81 43.1467L164.526 42.344ZM152.357 53.9239L155.464 53.0056L150.546 36.3651L147.439 37.2834L152.357 53.9239Z" fill="white"/>
<path d="M129.654 44.542L130.681 46.8958L137.742 43.8154L139.666 48.226L134.101 50.6538L135.094 52.9306L140.659 50.5028L142.622 55.0014L135.56 58.0818L136.592 60.4466L146.623 56.0707L139.685 40.1661L129.654 44.542Z" fill="white"/>
<path d="M107.869 77.6753L126.267 65.2947L116.579 50.8987L113.891 52.7076L122.192 65.0427L117.035 68.5131L108.734 56.1779L106.046 57.9867L114.347 70.3219L109.17 73.8056L100.869 61.4705L98.1812 63.2793L107.869 77.6753Z" fill="white"/>
<path d="M92.7485 90.9825L94.6009 89.3096C94.8087 89.1219 94.9323 88.9186 94.9718 88.6998C95.0059 88.4749 94.9859 88.2558 94.9118 88.0425L93.501 84.5466L98.8356 79.729L102.17 81.4876C102.341 81.5813 102.546 81.6228 102.784 81.6123C103.022 81.6018 103.245 81.5027 103.453 81.315L105.315 79.6341L88.6262 71.3246L86.1771 73.5364L92.7485 90.9825ZM96.693 78.5919L92.5874 82.2996L90.2862 76.6004C90.1918 76.3407 90.0709 76.0456 89.9235 75.7153C89.7707 75.379 89.5991 75.0219 89.4088 74.644C89.7653 74.8718 90.1031 75.0787 90.4222 75.2649C90.7353 75.4564 91.0189 75.6153 91.273 75.7415L96.693 78.5919Z" fill="white"/>
<path d="M71.3726 92.3694L77.0528 85.987L80.5488 89.0983L78.666 91.2139C77.9161 92.0565 77.3678 92.859 77.0212 93.6215C76.6693 94.39 76.4872 95.106 76.4748 95.7697C76.4511 96.4341 76.5777 97.05 76.8544 97.6176C77.1251 98.1798 77.5085 98.6816 78.0045 99.123C78.614 99.6655 79.2625 100.05 79.95 100.276C80.6322 100.509 81.3334 100.581 82.0536 100.494C82.7678 100.401 83.4838 100.144 84.2016 99.7228C84.9141 99.3073 85.6053 98.7231 86.2755 97.9701L90.2963 93.4522L77.3343 81.9163L69.5081 90.71L71.3726 92.3694ZM82.4312 90.7737L86.2678 94.1882L84.393 96.2948C83.9941 96.743 83.6139 97.0739 83.2524 97.2876C82.8795 97.502 82.524 97.6247 82.1859 97.6557C81.8477 97.6867 81.5275 97.6373 81.2253 97.5076C80.9231 97.3779 80.6375 97.1933 80.3686 96.954C80.0758 96.6934 79.8444 96.4179 79.6745 96.1274C79.5046 95.837 79.4214 95.5274 79.4249 95.1985C79.4225 94.8643 79.5094 94.5079 79.6857 94.1294C79.862 93.7508 80.1495 93.3374 80.5484 92.8892L82.4312 90.7737Z" fill="white"/>
<path d="M57.2294 107.103L71.4093 117.104L73.2836 114.447L61.1336 105.878L63.8656 102.004C65.7084 103.167 67.3402 104.122 68.761 104.869C70.1707 105.619 71.4162 106.199 72.4975 106.609C73.5722 107.015 74.4977 107.271 75.2739 107.378C76.0502 107.485 76.723 107.475 77.2923 107.348C77.8551 107.216 78.3383 106.989 78.7418 106.667C79.1388 106.34 79.4941 105.954 79.8076 105.509C80.1396 105.039 80.3392 104.665 80.4064 104.39C80.4736 104.114 80.4254 103.919 80.262 103.803L78.6145 102.641L78.082 103.396C77.9621 103.566 77.8226 103.723 77.6635 103.865C77.4998 104.014 77.2959 104.129 77.0518 104.212C76.7965 104.296 76.4903 104.335 76.1331 104.327C75.7714 104.327 75.3348 104.259 74.8234 104.123C74.3009 103.99 73.6961 103.778 73.0089 103.49C72.3172 103.207 71.516 102.823 70.6054 102.338C69.6902 101.859 68.6558 101.271 67.5022 100.575C66.3374 99.8805 65.0319 99.0527 63.5856 98.0914L57.2294 107.103Z" fill="white"/>
<path d="M52.7005 132.61C53.8255 133.204 54.968 133.567 56.1281 133.7C57.2774 133.836 58.3815 133.749 59.4404 133.44C60.4993 133.13 61.4789 132.602 62.3792 131.856C63.2725 131.107 64.0271 130.148 64.6432 128.981C65.2556 127.82 65.6193 126.66 65.7343 125.499C65.8422 124.335 65.727 123.225 65.3888 122.169C65.0468 121.12 64.4972 120.156 63.74 119.277C62.9757 118.394 62.031 117.656 60.9061 117.062C59.7812 116.469 58.6422 116.107 57.4891 115.978C56.329 115.845 55.2195 115.934 54.1606 116.243C53.098 116.56 52.12 117.093 51.2268 117.843C50.3265 118.589 49.5702 119.542 48.9578 120.702C48.5471 121.48 48.2525 122.261 48.0743 123.045C47.8889 123.824 47.8113 124.588 47.8414 125.337C47.8644 126.082 47.9934 126.806 48.2285 127.509C48.4527 128.215 48.7709 128.88 49.183 129.505C49.5952 130.13 50.0979 130.702 50.6912 131.224C51.2808 131.752 51.9506 132.214 52.7005 132.61ZM54.2408 129.691C53.3989 129.247 52.7051 128.736 52.1596 128.159C51.6069 127.578 51.2073 126.955 50.9606 126.291C50.714 125.627 50.6255 124.929 50.6953 124.197C50.7614 123.472 50.9922 122.735 51.3881 121.985C51.7839 121.235 52.2643 120.625 52.8293 120.154C53.3906 119.69 54.0168 119.369 54.7078 119.191C55.395 119.02 56.1345 118.999 56.9261 119.127C57.7106 119.252 58.5239 119.536 59.3658 119.981C60.2078 120.425 60.905 120.938 61.4577 121.519C62.0032 122.096 62.3994 122.717 62.646 123.381C62.8818 124.048 62.9668 124.744 62.9007 125.469C62.831 126.201 62.5982 126.942 62.2024 127.692C61.8065 128.442 61.328 129.049 60.7667 129.513C60.2017 129.983 59.5791 130.306 58.8989 130.481C58.2116 130.652 57.4757 130.675 56.6912 130.55C55.8995 130.422 55.0828 130.136 54.2408 129.691Z" fill="white"/>
<path d="M53.3494 154.48L54.4762 151.442L47.3657 148.804L50.1994 141.165L57.31 143.803L58.4368 140.765L42.1681 134.73L41.0412 137.768L48.0393 140.364L45.2055 148.003L38.2074 145.407L37.0806 148.445L53.3494 154.48Z" fill="white"/>
<path d="M33.86 159.028L40.8704 160.56L40.2657 163.327C40.0248 164.429 39.9401 165.397 40.0115 166.232C40.0813 167.074 40.2733 167.788 40.5878 168.372C40.8927 168.963 41.3047 169.438 41.824 169.797C42.3355 170.155 42.9156 170.404 43.5642 170.546C44.3614 170.72 45.1151 170.738 45.8253 170.598C46.5338 170.466 47.1806 170.186 47.7657 169.757C48.3429 169.326 48.8412 168.751 49.2604 168.032C49.6779 167.321 49.9943 166.473 50.2095 165.488L51.501 159.58L34.5493 155.875L33.86 159.028ZM43.3323 161.099L48.3498 162.195L47.7477 164.95C47.6195 165.536 47.4502 166.011 47.2398 166.375C47.0198 166.744 46.77 167.025 46.4904 167.218C46.2108 167.411 45.9075 167.525 45.5804 167.56C45.2534 167.595 44.9141 167.574 44.5624 167.497C44.1794 167.413 43.8427 167.286 43.5523 167.116C43.2619 166.946 43.0377 166.717 42.8796 166.429C42.7138 166.139 42.6149 165.785 42.5831 165.369C42.5513 164.953 42.5995 164.451 42.7276 163.865L43.3323 161.099ZM47.6189 177.341L48.3107 174.175L31.359 170.47L30.6671 173.635L47.6189 177.341Z" fill="white"/>
<path d="M39.0239 189.353C38.7126 189.332 38.4174 189.367 38.1383 189.46C37.8506 189.561 37.6002 189.704 37.3867 189.889C37.1648 190.082 36.9886 190.311 36.8579 190.574C36.7194 190.837 36.6392 191.124 36.6176 191.436C36.5954 191.755 36.6347 192.054 36.7355 192.334C36.8279 192.621 36.9708 192.871 37.1644 193.085C37.3495 193.307 37.5776 193.487 37.8486 193.626C38.1116 193.765 38.3987 193.845 38.71 193.867C39.0212 193.888 39.3167 193.849 39.5963 193.748C39.868 193.646 40.1148 193.499 40.3368 193.306C40.5502 193.12 40.7264 192.892 40.8656 192.621C40.9962 192.358 41.0726 192.066 41.0948 191.747C41.1164 191.436 41.0808 191.14 40.988 190.861C40.8871 190.582 40.7442 190.331 40.5591 190.11C40.3654 189.896 40.1411 189.72 39.8861 189.582C39.6225 189.451 39.3351 189.375 39.0239 189.353Z" fill="white"/>
</svg>
