<svg width="171" height="284" viewBox="0 0 171 284" fill="none" xmlns="http://www.w3.org/2000/svg">
<path d="M77.7151 249.749C77.7151 249.749 70.941 278.249 70.9544 280.402C70.9544 285.686 100.046 284.687 100.046 280.402C100.046 278.558 92.9234 249.749 92.9234 249.749" fill="#39316D"/>
<g opacity="0.6">
<path opacity="0.1" d="M85.1334 253.47C85.1334 253.47 85.2534 253.872 85.4134 254.583C85.5734 255.293 85.76 256.326 85.9734 257.546C86.1867 258.766 86.36 260.227 86.5067 261.716C86.6534 263.204 86.76 264.88 86.8 266.529C86.8 267.361 86.8 268.178 86.8 268.996C86.8 269.814 86.6667 270.672 86.6667 271.383C86.5584 272.803 86.3535 274.214 86.0534 275.607C85.853 276.599 85.5811 277.576 85.24 278.53C85 279.227 84.8267 279.616 84.8267 279.616C84.8267 279.616 84.8267 279.187 84.7067 278.463C84.5867 277.739 84.6267 276.706 84.52 275.486C84.52 274.869 84.44 274.145 84.4267 273.515C84.4134 272.885 84.32 272.094 84.32 271.329C84.32 269.828 84.1734 268.192 84.16 266.583C84.1467 264.974 84.16 263.325 84.16 261.783C84.16 260.241 84.3067 258.806 84.44 257.573C84.5716 256.19 84.8033 254.819 85.1334 253.47Z" fill="white"/>
<path opacity="0.1" d="M91.8 254.475C92.1979 255.65 92.5142 256.85 92.7467 258.069C92.8534 258.618 92.9734 259.208 93.0534 259.825C93.1334 260.442 93.3334 261.072 93.44 261.743C93.6934 263.083 93.92 264.424 94.0934 265.886C94.2667 267.347 94.4667 268.768 94.5734 270.123C94.68 271.477 94.72 272.804 94.7067 273.89C94.7156 275.133 94.6353 276.374 94.4667 277.604C93.944 276.47 93.4986 275.3 93.1334 274.105C92.8134 273.059 92.4934 271.826 92.1867 270.485C91.88 269.144 91.6134 267.709 91.4 266.261C91.1867 264.813 91.1067 263.298 91.04 261.903C91.04 261.22 91.04 260.563 91.04 259.919C91.04 259.275 91.1334 258.686 91.1867 258.149C91.3071 256.912 91.512 255.684 91.8 254.475Z" fill="white"/>
<path opacity="0.1" d="M79.1334 254.811C79.4552 255.972 79.6958 257.155 79.8534 258.35C80.0421 259.552 80.1402 260.767 80.1467 261.984C80.1467 263.325 80.1467 264.773 80.1467 266.194C80.1467 267.615 79.7867 269.05 79.5467 270.364C79.3514 271.582 79.0342 272.777 78.6 273.931C78.2152 275.078 77.7427 276.195 77.1867 277.269C77.0716 276.071 77.036 274.866 77.08 273.662C77.08 273.126 77.08 272.563 77.1734 271.973C77.2667 271.383 77.1734 270.726 77.1734 270.069C77.1734 268.728 77.3067 267.387 77.4534 266.047C77.6 264.706 77.6534 263.271 77.8267 262.024C77.8267 261.367 78.0267 260.75 78.0934 260.134C78.16 259.517 78.2534 258.967 78.3467 258.431C78.5233 257.207 78.7862 255.997 79.1334 254.811Z" fill="white"/>
</g>
<path d="M85.9334 249.723C106.161 249.723 124.269 249.723 145.336 248.496C184.898 246.197 172.298 229.677 150.39 204.323C191.725 204.323 155.457 163.43 139.443 151.16C185.778 151.16 138.243 111.998 121.749 95.5295C140.283 103.705 144.496 87.3536 134.389 75.0832C122.589 59.4805 100.267 41.1266 85.9334 26.4021H85.0666C70.7326 41.1266 48.4114 59.4805 36.6109 75.0832C26.5037 87.3536 30.7172 103.705 49.2515 95.5295C32.7573 111.998 -14.7784 151.185 31.5573 151.185C15.5565 163.456 -20.6854 204.348 20.61 204.348C-1.29774 229.703 -13.8984 246.223 25.6636 248.522C46.7314 249.749 64.8389 249.749 85.0666 249.749" fill="url(#paint0_linear_8444_5674)"/>
<mask id="mask0_8444_5674" style="mask-type:alpha" maskUnits="userSpaceOnUse" x="8" y="52" width="160" height="176">
<path d="M45.6483 55.7156C46.0496 56.4677 46.231 57.3196 46.1711 58.1718C46.2495 59.4924 46.2364 60.6809 46.3018 61.9354C46.4325 64.0615 46.6939 66.7027 48.6152 68.01C50.5366 69.3174 52.7716 68.459 54.6406 67.6931C55.6863 67.2573 56.7188 66.7555 57.7775 66.3725C58.7526 65.7863 59.8588 65.4592 60.9928 65.4217C62.5221 65.7387 63.1625 68.8024 63.6069 70.0305C64.378 72.0245 65.1492 74.4015 66.9268 75.6825C70.9916 78.6009 75.1872 72.7112 78.6901 71.3114C80.5722 70.5455 81.5132 73.0017 82.2844 74.3751C83.3692 76.3296 84.4149 78.7198 86.297 80.0271C90.4534 82.8927 94.296 77.0559 97.2891 75.009C97.8642 74.626 98.4785 74.1506 99.1713 74.4147C99.864 74.6789 100.714 75.8938 101.21 76.6069C102.381 78.6373 103.824 80.4948 105.497 82.1268C109.811 85.5867 113.653 79.5517 116.476 77.003C117.078 76.4484 117.783 75.6825 118.633 76.0258C119.483 76.3692 120.476 77.6237 121.116 78.3896C122.659 80.278 124.07 82.9192 126.449 83.9096C128.828 84.9 131.024 83.1833 132.579 81.4929C133.533 80.4761 134.357 79.3536 135.193 78.284C135.664 77.7294 136.644 76.2503 137.441 76.1711C139.519 75.9598 139.532 72.6452 137.441 72.8697C135.35 73.0942 133.755 74.8769 132.409 76.5276C131.69 77.4124 130.998 78.3236 130.226 79.1688C129.69 79.7498 128.736 80.9251 127.848 80.9119C127.181 80.9119 126.541 80.08 126.135 79.5913C125.286 78.6802 124.554 77.6633 123.783 76.6861C122.476 75.0354 120.881 73.0414 118.659 72.7244C116.437 72.4075 114.738 74.045 113.274 75.458C112.464 76.2635 111.706 77.1219 110.908 77.9274C110.111 78.733 109.314 79.7234 108.294 79.8819C106.804 80.1328 105.38 77.2407 104.687 76.2107C103.484 74.4015 102.073 72.1302 100.021 71.3246C95.4854 69.5287 92.8191 75.9862 89.1463 77.3068C87.5779 77.901 86.5323 75.4316 85.9441 74.3223C84.8331 72.3547 83.8267 69.9777 82.023 68.6043C78.0235 65.6726 73.7625 71.0869 70.4557 72.7376C69.9068 73.0017 69.384 73.2791 68.835 72.9489C68.2861 72.6188 67.6587 71.2058 67.345 70.4795C66.6814 68.3359 65.8056 66.2654 64.7309 64.2992C61.1366 59.017 55.5817 64.9331 51.3077 65.3293C49.3341 65.5142 49.6609 61.6713 49.6216 60.3904C49.6216 58.0134 49.6216 55.2798 48.0663 53.3518C46.7592 51.7275 44.3935 54.0781 45.7528 55.6892L45.6483 55.7156Z" fill="white"/>
<path d="M152.521 118.262C151.294 118.771 149.774 117.94 148.641 117.417C147.087 116.631 145.488 115.937 143.854 115.339C143.185 115.06 142.467 114.922 141.744 114.931C141.02 114.941 140.306 115.099 139.645 115.395C138.984 115.691 138.39 116.119 137.898 116.653C137.407 117.188 137.029 117.817 136.787 118.503C136.054 120.085 135.547 121.761 134.934 123.383C134.601 124.282 134.027 126.186 132.947 126.427C131.867 126.668 130.134 125.395 129.254 124.872C127.758 123.886 126.183 123.025 124.547 122.297C121.347 121.037 119.014 122.525 117.427 125.368C116.601 126.883 115.934 128.546 115.174 130.021C114.761 130.812 114.094 132.407 113.041 132.461C111.707 132.461 110.094 130.986 109.121 130.275C107.76 129.171 106.285 128.218 104.721 127.433C101.507 126.092 99.214 127.795 97.4806 130.476C96.5473 131.924 95.8006 133.48 94.814 134.928C94.2806 135.732 93.6006 136.899 92.5206 136.711C91.094 136.47 89.6806 134.847 88.6406 133.936C87.4355 132.776 86.0919 131.772 84.6406 130.946C81.334 129.296 78.934 131.415 77.014 134.016C75.9206 135.504 73.774 140.372 71.454 139.044C68.574 137.382 67.0273 134.003 63.974 132.541C60.9206 131.08 58.174 133.587 56.214 135.92C55.2077 137.331 54.0397 138.618 52.734 139.755C51.6673 140.546 50.9873 140.063 50.0673 139.192C47.7873 136.966 46.0673 133.158 42.894 132.085C39.7206 131.013 36.9473 134.097 34.894 136.108C33.9873 136.993 32.6806 138.642 31.374 138.91C30.0673 139.178 29.3873 137.677 28.8406 136.872C27.2006 134.472 25.694 130.584 22.6673 129.618C19.6406 128.653 16.4673 131.549 14.1206 133.238C13.3473 133.909 11.774 135.25 10.6006 135.062C8.50731 134.62 7.61397 137.851 9.70731 138.293C13.054 138.991 15.8806 136.041 18.4006 134.271C19.214 133.694 20.7206 132.434 21.8006 132.823C22.8806 133.212 23.8806 135.156 24.4673 136.135C25.974 138.548 27.8806 142.396 31.214 142.302C34.5473 142.209 36.9206 138.682 39.1206 136.711C39.934 135.987 41.0406 134.847 42.174 135.37C43.5073 136.014 44.6273 137.797 45.534 138.95C47.374 141.243 49.854 144.488 53.1873 143.281C56.5206 142.074 58.0273 138.508 60.3473 136.322C61.3873 135.344 62.054 135.102 63.2406 135.947C64.5868 137.057 65.844 138.272 67.0006 139.581C69.1606 141.739 72.0406 143.938 75.0006 141.806C77.6673 139.849 78.7473 136.349 81.2273 134.177C82.2806 133.279 83.0673 133.761 84.134 134.499C85.5873 135.518 86.8006 136.805 88.2273 137.918C90.6806 139.876 93.5606 141.109 96.134 138.588C97.2449 137.385 98.1828 136.031 98.9206 134.566C99.574 133.101 100.476 131.763 101.587 130.61C102.574 129.806 103.641 130.61 104.587 131.16C106.107 132.112 107.494 133.292 109.001 134.271C111.667 136.001 114.561 136.523 116.734 133.775C117.715 132.407 118.53 130.926 119.161 129.364C119.721 128.157 120.347 126.186 121.494 125.341C122.641 124.496 123.814 125.529 124.707 126.011C126.281 126.87 127.761 127.929 129.374 128.693C132.321 130.141 135.107 130.034 136.894 126.963C137.688 125.459 138.339 123.884 138.841 122.257C139.227 121.131 139.681 119.147 140.707 118.409C141.734 117.672 143.201 118.53 144.107 118.919C145.774 119.616 147.361 120.514 149.067 121.131C150.428 121.757 151.971 121.857 153.401 121.412C155.347 120.595 154.494 117.39 152.507 118.181L152.521 118.262Z" fill="white"/>
<path d="M10.0142 167.161C11.1475 168.287 10.9342 170.674 10.9875 172.136C10.9048 174.13 11.1342 176.126 11.6675 178.049C13.1875 182.272 17.8009 181.334 21.2409 180.61C22.5742 180.341 25.1209 179.43 26.4009 180.194C27.6809 180.958 27.7342 183.479 27.8809 184.726C28.3609 188.051 28.6275 193.026 32.8542 193.535C34.7746 193.597 36.6867 193.255 38.4675 192.529C39.9742 192.047 42.1342 190.974 43.8009 191.309C45.1342 191.591 45.5475 193.709 45.8542 194.849C46.2665 196.781 46.8145 198.68 47.4942 200.534C47.7638 201.322 48.2167 202.033 48.815 202.609C49.4134 203.185 50.14 203.609 50.9342 203.846C52.8144 204.076 54.7194 203.716 56.3876 202.813C58.1705 201.867 60.0594 201.138 62.0142 200.641C63.5342 200.413 64.0809 201.754 64.6142 202.988C65.9475 205.911 66.5075 210.496 69.7342 211.985C73.3475 213.647 77.3609 209.866 80.4009 208.485C81.8809 207.828 82.8142 207.681 83.7876 209.075C84.7973 210.762 85.6884 212.519 86.4542 214.331C87.1243 215.975 88.2721 217.377 89.7476 218.354C90.5477 218.708 91.4223 218.859 92.2942 218.794C93.1661 218.728 94.0086 218.448 94.7476 217.978C96.536 216.942 98.2675 215.81 99.9342 214.586C101.081 213.862 102.481 212.829 103.668 213.915C106.414 216.383 106.974 220.794 110.334 222.792C113.841 224.91 117.401 221.223 119.921 219.171C120.868 218.394 122.588 216.678 123.921 217.187C125.254 217.697 126.588 220.03 127.374 221.209C129.414 224.146 132.054 227.645 135.988 225.661C137.697 224.623 139.246 223.34 140.588 221.853C141.508 220.982 143.254 218.917 144.588 219.171C145.921 219.426 147.481 221.759 148.334 222.818C149.426 224.405 150.778 225.793 152.334 226.921C156.094 229.201 159.188 225.581 161.534 223.006C162.468 221.974 163.921 219.896 165.454 219.815C167.588 219.694 167.601 216.342 165.454 216.463C161.454 216.678 159.254 221.075 156.494 223.408C155.161 224.508 154.428 224.521 153.201 223.408C151.708 221.987 150.534 220.217 149.201 218.675C148.135 217.235 146.577 216.242 144.828 215.886C143.044 215.885 141.333 216.594 140.068 217.857C138.468 219.198 137.121 220.794 135.481 222.068C134.148 223.033 133.401 223.408 132.228 222.148C129.761 219.668 128.334 215.109 124.734 213.956C121.134 212.803 117.641 216.973 114.948 218.917C113.854 219.708 112.694 220.62 111.548 219.56C110.29 218.139 109.24 216.545 108.428 214.827C106.521 211.636 104.081 208.954 100.161 210.697C98.3548 211.632 96.6328 212.722 95.0142 213.956C94.0542 214.599 92.3476 215.967 91.1876 215.296C90.0275 214.626 89.0809 212.079 88.5209 210.778C87.856 209.067 86.9094 207.48 85.7209 206.085C82.6942 203.015 78.7209 205.576 75.7076 207.292C74.6542 207.882 72.5876 209.424 71.2675 209.008C69.9475 208.592 69.4142 206.259 69.0142 205.173C67.9209 202.197 66.7875 197.557 62.9609 197.276C61.0508 197.32 59.1778 197.816 57.4942 198.724C55.9075 199.421 54.0409 200.574 52.2675 200.628C50.7609 200.628 50.3876 198.831 50.0409 197.638C49.5075 195.801 49.2009 193.884 48.5209 192.087C48.289 191.246 47.8778 190.467 47.316 189.802C46.7541 189.138 46.0551 188.604 45.2675 188.239C43.4974 187.801 41.6363 187.918 39.9342 188.574C38.0379 189.318 36.0727 189.871 34.0675 190.223C32.3875 190.371 32.0675 189.311 31.7209 187.823C30.9875 184.619 31.4542 179.497 28.3075 177.459C25.1609 175.421 20.5342 177.767 17.0409 177.941C15.3342 178.022 14.7875 177.485 14.5342 175.783C14.2142 173.758 14.3875 171.653 14.1875 169.615C14.1772 167.825 13.5291 166.098 12.3609 164.748C10.8409 163.233 8.48088 165.606 10.0142 167.121V167.161Z" fill="white"/>
</mask>
<g mask="url(#mask0_8444_5674)">
<rect opacity="0.1" x="8.51453" y="52.804" width="158.228" height="174.824" fill="white"/>
<rect x="8.51453" y="52.804" width="158.228" height="175.538" fill="#6EDCFF"/>
</g>
<path d="M63.5406 169.662V181.73C63.5406 182.064 63.6726 182.385 63.9077 182.621C64.1427 182.857 64.4615 182.99 64.7939 182.99C65.1263 182.99 65.4451 182.857 65.6802 182.621C65.9152 182.385 66.0473 182.064 66.0473 181.73V169.662C66.0473 169.328 65.9152 169.008 65.6802 168.771C65.4451 168.535 65.1263 168.402 64.7939 168.402C64.4615 168.402 64.1427 168.535 63.9077 168.771C63.6726 169.008 63.5406 169.328 63.5406 169.662Z" fill="#64FF61"/>
<path d="M58.3806 176.621C62.4709 177.133 66.5983 177.276 70.7139 177.05C71.0463 177.05 71.3651 176.918 71.6002 176.681C71.8352 176.445 71.9673 176.124 71.9673 175.79C71.9673 175.456 71.8352 175.135 71.6002 174.899C71.3651 174.662 71.0463 174.53 70.7139 174.53C66.8233 174.772 62.9189 174.664 59.0473 174.208C58.7281 174.137 58.3942 174.187 58.109 174.348C57.8239 174.508 57.6074 174.769 57.5006 175.079C57.4347 175.4 57.4878 175.734 57.6499 176.018C57.8121 176.302 58.072 176.517 58.3806 176.621Z" fill="#64FF61"/>
<path d="M59.5139 172.223C62.1806 175.468 65.5273 178.016 68.3006 181.126C68.5397 181.332 68.8472 181.44 69.1619 181.429C69.4765 181.417 69.7753 181.287 69.9988 181.064C70.2223 180.841 70.3541 180.541 70.368 180.225C70.3819 179.909 70.2769 179.599 70.0739 179.357C67.2872 176.232 63.9273 173.685 61.2873 170.44C61.0431 170.222 60.7275 170.101 60.4006 170.101C60.0736 170.101 59.7581 170.222 59.5139 170.44C59.2965 170.686 59.1764 171.003 59.1764 171.332C59.1764 171.661 59.2965 171.978 59.5139 172.223Z" fill="#64FF61"/>
<path d="M61.2873 180.764C64.1806 177.935 67.1139 175.16 69.9006 172.223C70.0329 172.111 70.1407 171.973 70.2171 171.816C70.2936 171.66 70.337 171.49 70.3446 171.316C70.3523 171.142 70.324 170.968 70.2616 170.806C70.1992 170.643 70.1041 170.496 69.9821 170.372C69.8601 170.249 69.714 170.152 69.553 170.088C69.392 170.024 69.2196 169.994 69.0465 170.001C68.8735 170.007 68.7037 170.049 68.5478 170.125C68.3919 170.201 68.2532 170.308 68.1406 170.44C65.3406 173.377 62.4073 176.152 59.5139 178.981C59.2788 179.218 59.1467 179.538 59.1467 179.873C59.1467 180.207 59.2788 180.528 59.5139 180.764C59.7491 181.001 60.068 181.134 60.4006 181.134C60.7332 181.134 61.0521 181.001 61.2873 180.764Z" fill="#64FF61"/>
<path d="M107.493 228.624V240.692C107.493 241.026 107.625 241.347 107.86 241.583C108.095 241.819 108.414 241.952 108.747 241.952C109.079 241.952 109.398 241.819 109.633 241.583C109.868 241.347 110 241.026 110 240.692V228.624C110 228.29 109.868 227.97 109.633 227.733C109.398 227.497 109.079 227.364 108.747 227.364C108.414 227.364 108.095 227.497 107.86 227.733C107.625 227.97 107.493 228.29 107.493 228.624Z" fill="#64FF61"/>
<path d="M102.333 235.583C106.424 236.095 110.551 236.238 114.667 236.012C114.999 236.012 115.318 235.879 115.553 235.643C115.788 235.407 115.92 235.086 115.92 234.752C115.92 234.418 115.788 234.097 115.553 233.861C115.318 233.624 114.999 233.492 114.667 233.492C110.776 233.734 106.872 233.626 103 233.17C102.681 233.099 102.347 233.149 102.062 233.31C101.777 233.47 101.56 233.731 101.453 234.041C101.387 234.362 101.441 234.696 101.603 234.98C101.765 235.264 102.025 235.479 102.333 235.583Z" fill="#64FF61"/>
<path d="M103.467 231.185C106.133 234.43 109.48 236.978 112.253 240.088C112.492 240.294 112.8 240.402 113.115 240.391C113.429 240.379 113.728 240.249 113.952 240.026C114.175 239.803 114.307 239.503 114.321 239.187C114.335 238.871 114.23 238.561 114.027 238.318C111.24 235.194 107.88 232.647 105.24 229.402C104.996 229.183 104.68 229.063 104.353 229.063C104.026 229.063 103.711 229.183 103.467 229.402C103.249 229.648 103.129 229.965 103.129 230.294C103.129 230.622 103.249 230.94 103.467 231.185Z" fill="#64FF61"/>
<path d="M105.24 239.726C108.133 236.897 111.067 234.122 113.853 231.185C113.986 231.073 114.093 230.935 114.17 230.778C114.246 230.622 114.29 230.452 114.297 230.278C114.305 230.104 114.277 229.93 114.214 229.768C114.152 229.605 114.057 229.458 113.935 229.334C113.813 229.211 113.667 229.114 113.506 229.05C113.345 228.986 113.172 228.956 112.999 228.962C112.826 228.969 112.656 229.011 112.501 229.087C112.345 229.163 112.206 229.27 112.093 229.402C109.293 232.338 106.36 235.114 103.467 237.943C103.232 238.18 103.099 238.5 103.099 238.835C103.099 239.169 103.232 239.49 103.467 239.726C103.702 239.963 104.021 240.096 104.353 240.096C104.686 240.096 105.005 239.963 105.24 239.726Z" fill="#64FF61"/>
<path d="M83.5968 5.89047C84.1935 4.04364 86.8064 4.04364 87.4031 5.89047L89.274 11.6811C89.5407 12.5067 90.3094 13.0662 91.1771 13.0662L97.2553 13.0662C99.19 13.0662 99.9974 15.5396 98.4352 16.681L93.4984 20.2882C92.8014 20.7975 92.5098 21.6965 92.7752 22.5179L94.6563 28.3401C95.2523 30.1847 93.1385 31.7135 91.5733 30.5699L86.6799 26.9945C85.9771 26.481 85.0229 26.481 84.3201 26.9945L79.4267 30.5699C77.8615 31.7135 75.7477 30.1847 76.3436 28.3401L78.2247 22.5179C78.4901 21.6965 78.1985 20.7975 77.5015 20.2882L72.5647 16.681C71.0026 15.5396 71.8099 13.0662 73.7447 13.0662L79.8229 13.0662C80.6905 13.0662 81.4592 12.5067 81.726 11.6811L83.5968 5.89047Z" fill="#CD2E4F"/>
<path opacity="0.1" d="M127.547 168.287C119.147 168.502 119.173 181.856 128.187 181.789C137.52 181.709 136.547 167.992 127.547 168.287Z" fill="white"/>
<path opacity="0.1" d="M29.5466 215.551C21.1466 215.766 21.1733 229.12 30.1866 229.053C39.5866 228.973 38.5466 215.256 29.5466 215.551Z" fill="white"/>
<path opacity="0.1" d="M102.773 47.8287C94.36 48.0432 94.3867 61.3977 103.4 61.3307C112.813 61.2502 111.773 47.5337 102.773 47.8287Z" fill="white"/>
<path d="M91.2128 109.009V121.076C91.2128 121.411 91.3448 121.731 91.5799 121.968C91.8149 122.204 92.1337 122.337 92.4661 122.337C92.7985 122.337 93.1173 122.204 93.3524 121.968C93.5874 121.731 93.7195 121.411 93.7195 121.076V109.009C93.7195 108.675 93.5874 108.354 93.3524 108.118C93.1173 107.882 92.7985 107.749 92.4661 107.749C92.1337 107.749 91.8149 107.882 91.5799 108.118C91.3448 108.354 91.2128 108.675 91.2128 109.009Z" fill="#64FF61"/>
<path d="M86.0528 115.968C90.143 116.479 94.2705 116.623 98.3861 116.397C98.7185 116.397 99.0373 116.264 99.2724 116.028C99.5074 115.792 99.6395 115.471 99.6395 115.137C99.6395 114.802 99.5074 114.482 99.2724 114.245C99.0373 114.009 98.7185 113.876 98.3861 113.876C94.4955 114.118 90.5911 114.011 86.7195 113.555C86.4002 113.484 86.0664 113.534 85.7812 113.694C85.4961 113.855 85.2796 114.115 85.1728 114.426C85.1069 114.747 85.16 115.081 85.3221 115.365C85.4842 115.649 85.7441 115.863 86.0528 115.968Z" fill="#64FF61"/>
<path d="M87.1861 111.57C89.8528 114.815 93.1994 117.362 95.9728 120.473C96.2119 120.679 96.5194 120.787 96.834 120.775C97.1487 120.764 97.4475 120.634 97.671 120.41C97.8944 120.187 98.0262 119.888 98.0402 119.572C98.0541 119.255 97.9491 118.945 97.7461 118.703C94.9594 115.579 91.5994 113.032 88.9594 109.787C88.7153 109.568 88.3997 109.447 88.0728 109.447C87.7458 109.447 87.4303 109.568 87.1861 109.787C86.9687 110.032 86.8486 110.35 86.8486 110.678C86.8486 111.007 86.9687 111.325 87.1861 111.57Z" fill="#64FF61"/>
<path d="M88.9595 120.111C91.8528 117.282 94.7861 114.507 97.5728 111.57C97.7051 111.458 97.8129 111.319 97.8893 111.163C97.9657 111.007 98.0092 110.836 98.0168 110.662C98.0245 110.489 97.9962 110.315 97.9338 110.152C97.8714 109.99 97.7762 109.842 97.6543 109.719C97.5323 109.595 97.3862 109.498 97.2252 109.434C97.0642 109.371 96.8917 109.341 96.7187 109.347C96.5457 109.354 96.3759 109.396 96.22 109.472C96.0641 109.547 95.9254 109.655 95.8128 109.787C93.0128 112.723 90.0795 115.499 87.1861 118.328C86.951 118.564 86.8188 118.885 86.8188 119.219C86.8188 119.554 86.951 119.875 87.1861 120.111C87.4213 120.348 87.7402 120.48 88.0728 120.48C88.4054 120.48 88.7243 120.348 88.9595 120.111Z" fill="#64FF61"/>
<path opacity="0.1" d="M80.16 43.6318L80.3466 43.7659C80.5138 43.8767 80.6741 43.9976 80.8266 44.1279C81.2894 44.5301 81.7094 44.9794 82.08 45.4688C82.9705 46.5797 83.4678 47.9572 83.4933 49.3839C83.4998 50.8027 83.03 52.1822 82.16 53.2991C81.7595 53.7882 81.313 54.2372 80.8266 54.6399C80.6533 54.7874 80.4533 54.9081 80.3466 55.002L80.16 55.1226L80 54.9081C79.88 54.8142 79.68 54.6936 79.5066 54.5461C79.0435 54.1401 78.6194 53.6912 78.24 53.2053C77.3313 52.1052 76.8339 50.7202 76.8339 49.2901C76.8339 47.86 77.3313 46.475 78.24 45.3749C78.6318 44.878 79.0792 44.4282 79.5733 44.0341C79.7233 43.9006 79.8838 43.7795 80.0533 43.6721L80.16 43.6318Z" fill="white"/>
<path opacity="0.1" d="M88.3867 148.886L88.56 149.02C88.729 149.138 88.8894 149.268 89.04 149.409C89.5323 149.805 89.9795 150.255 90.3734 150.75C91.2657 151.947 91.7602 153.397 91.7867 154.893C91.7733 156.389 91.2825 157.841 90.3867 159.036C89.9964 159.534 89.5488 159.984 89.0534 160.377C88.9027 160.518 88.7423 160.648 88.5734 160.766L88.4 160.9L88.2134 160.766C88.0469 160.644 87.8867 160.514 87.7334 160.377C87.2379 159.984 86.7904 159.534 86.4 159.036C85.4875 157.85 84.9924 156.393 84.9924 154.893C84.9924 153.393 85.4875 151.936 86.4 150.75C86.7724 150.262 87.1923 149.813 87.6534 149.409C87.8067 149.271 87.9669 149.141 88.1334 149.02L88.3867 148.886Z" fill="white"/>
<path opacity="0.1" d="M147.267 179.054L147.467 179.175C147.573 179.269 147.787 179.376 147.973 179.537C148.459 179.941 148.905 180.39 149.307 180.878C149.549 181.165 149.763 181.475 149.947 181.803C150.132 182.161 150.288 182.533 150.413 182.916C150.69 183.732 150.834 184.588 150.84 185.45C150.834 187.032 150.33 188.572 149.4 189.848C149.007 190.368 148.56 190.844 148.067 191.269C147.916 191.414 147.756 191.549 147.587 191.671L147.4 191.819L147.227 191.671C147.058 191.548 146.898 191.414 146.747 191.269C146.275 190.831 145.854 190.341 145.493 189.808C144.617 188.526 144.151 187.005 144.16 185.45C144.155 184.715 144.276 183.984 144.52 183.291C144.775 182.585 145.092 181.903 145.467 181.253C145.792 180.694 146.171 180.168 146.6 179.684C146.76 179.497 146.947 179.349 147.053 179.242L147.267 179.054Z" fill="white"/>
<path opacity="0.1" d="M37.4934 160.511L37.6667 160.658C37.8336 160.783 37.9897 160.922 38.1334 161.074C38.583 161.518 38.9852 162.007 39.3334 162.535C40.1773 163.831 40.6011 165.358 40.5467 166.906C40.3847 168.52 39.7277 170.043 38.6667 171.264C38.2519 171.763 37.7822 172.213 37.2667 172.605C37.08 172.752 36.8667 172.86 36.7467 172.94L36.5467 173.061L36.3867 172.9C36.2934 172.793 36.0933 172.632 35.9467 172.444C35.524 171.978 35.1488 171.47 34.8267 170.929C34.0487 169.662 33.7023 168.175 33.84 166.692C33.9247 165.139 34.4834 163.65 35.44 162.428C35.8344 161.934 36.2815 161.484 36.7734 161.087C36.9304 160.953 37.0952 160.827 37.2667 160.712L37.4934 160.511Z" fill="white"/>
<path opacity="0.1" d="M78.16 223.529L78.3467 223.663C78.4533 223.757 78.6667 223.891 78.84 224.066C79.3355 224.503 79.7826 224.993 80.1733 225.527C80.3991 225.839 80.604 226.166 80.7867 226.506C80.9642 226.893 81.1027 227.298 81.2 227.713C81.4212 228.588 81.5155 229.492 81.48 230.394C81.4415 231.221 81.2704 232.036 80.9733 232.808C80.8287 233.185 80.6595 233.552 80.4667 233.907C80.2925 234.226 80.1011 234.535 79.8933 234.832C79.488 235.363 79.0422 235.86 78.56 236.321C78.4 236.495 78.1867 236.656 78.08 236.763L77.8933 236.924L77.72 236.777C77.5513 236.653 77.391 236.519 77.24 236.374C76.7324 235.909 76.2845 235.382 75.9067 234.806C75.684 234.457 75.4922 234.089 75.3333 233.706C75.1766 233.327 75.0474 232.937 74.9467 232.54C74.7403 231.721 74.6593 230.875 74.7067 230.032C74.7418 229.269 74.9041 228.516 75.1867 227.807C75.32 227.444 75.5067 227.109 75.68 226.747C75.839 226.389 76.017 226.04 76.2133 225.701C76.5637 225.138 76.9654 224.608 77.4133 224.119C77.5578 223.96 77.7137 223.812 77.88 223.677L78.16 223.529Z" fill="white"/>
<path opacity="0.1" d="M140.16 230.233L140.347 230.354C140.453 230.448 140.653 230.568 140.827 230.729C141.316 231.128 141.763 231.578 142.16 232.07C143.064 233.217 143.569 234.63 143.6 236.093C143.597 236.853 143.457 237.608 143.187 238.318C143.067 238.665 142.91 238.997 142.72 239.31C142.535 239.642 142.32 239.956 142.08 240.249C141.692 240.726 141.244 241.149 140.747 241.509C140.56 241.644 140.347 241.737 140.24 241.804L140.04 241.898L139.88 241.737C139.723 241.605 139.576 241.462 139.44 241.308C139.026 240.886 138.639 240.438 138.28 239.967C138.093 239.704 137.919 239.431 137.76 239.15C137.593 238.839 137.451 238.517 137.333 238.184C137.093 237.523 136.976 236.823 136.987 236.119C136.987 234.669 137.454 233.257 138.32 232.097C138.693 231.61 139.113 231.161 139.573 230.756C139.723 230.623 139.884 230.501 140.053 230.394L140.16 230.233Z" fill="white"/>
<path opacity="0.1" d="M106.053 185.611L106.253 185.732C106.437 185.829 106.615 185.936 106.787 186.053C107.319 186.425 107.814 186.847 108.267 187.314C108.527 187.596 108.767 187.896 108.987 188.212C109.186 188.579 109.36 188.96 109.507 189.352C109.836 190.21 110.03 191.115 110.08 192.033C110.126 193.682 109.66 195.303 108.747 196.673C108.359 197.222 107.912 197.725 107.413 198.174C107.262 198.326 107.101 198.47 106.933 198.603L106.76 198.751L106.573 198.603C106.405 198.475 106.245 198.336 106.093 198.188C105.597 197.741 105.15 197.242 104.76 196.699C103.843 195.413 103.323 193.883 103.267 192.302C103.219 191.568 103.305 190.832 103.52 190.129C103.625 189.768 103.754 189.414 103.907 189.07C104.03 188.705 104.173 188.347 104.333 187.997C104.614 187.397 104.954 186.827 105.347 186.295C105.48 186.094 105.653 185.919 105.747 185.799L106.053 185.611Z" fill="white"/>
<path opacity="0.1" d="M115.76 149.382C110.76 149.516 110.773 157.427 116.133 157.427C121.72 157.427 121.107 149.208 115.76 149.382Z" fill="white"/>
<path opacity="0.1" d="M84.8534 189.553C79.8534 189.687 79.8667 197.598 85.2267 197.598C90.8267 197.598 90.2 189.378 84.8534 189.553Z" fill="white"/>
<path opacity="0.1" d="M52.08 229.455C47.0933 229.576 47.1066 237.5 52.4666 237.5C58.0533 237.5 57.44 229.295 52.08 229.455Z" fill="white"/>
<path opacity="0.1" d="M53.4133 149.57C48.4267 149.69 48.44 157.615 53.8 157.615C59.3867 157.615 58.7733 149.409 53.4133 149.57Z" fill="white"/>
<path opacity="0.1" d="M108.44 174.482C109.072 174.436 109.662 174.151 110.093 173.684C110.524 173.218 110.764 172.605 110.764 171.968C110.764 171.331 110.524 170.718 110.093 170.252C109.662 169.786 109.072 169.501 108.44 169.454C107.809 169.501 107.218 169.786 106.787 170.252C106.356 170.718 106.116 171.331 106.116 171.968C106.116 172.605 106.356 173.218 106.787 173.684C107.218 174.151 107.809 174.436 108.44 174.482Z" fill="white"/>
<path opacity="0.1" d="M51.76 218.635C52.3915 218.589 52.9821 218.304 53.4133 217.837C53.8444 217.371 54.084 216.758 54.084 216.121C54.084 215.484 53.8444 214.871 53.4133 214.405C52.9821 213.939 52.3915 213.654 51.76 213.607C51.1285 213.654 50.5379 213.939 50.1068 214.405C49.6757 214.871 49.436 215.484 49.436 216.121C49.436 216.758 49.6757 217.371 50.1068 217.837C50.5379 218.304 51.1285 218.589 51.76 218.635Z" fill="white"/>
<path opacity="0.1" d="M65.3334 54.345C65.8638 54.345 66.3725 54.1331 66.7476 53.7559C67.1227 53.3787 67.3334 52.8671 67.3334 52.3337C67.3334 51.8003 67.1227 51.2888 66.7476 50.9116C66.3725 50.5344 65.8638 50.3225 65.3334 50.3225C64.8029 50.3225 64.2942 50.5344 63.9192 50.9116C63.5441 51.2888 63.3334 51.8003 63.3334 52.3337C63.3334 52.8671 63.5441 53.3787 63.9192 53.7559C64.2942 54.1331 64.8029 54.345 65.3334 54.345Z" fill="white"/>
<g opacity="0.1">
<path d="M53.2133 104.92C44.8133 105.122 44.84 118.476 53.8533 118.409C63.1866 118.329 62.2133 104.625 53.2133 104.92Z" fill="white"/>
<path d="M106.16 89.2195L106.347 89.3536C106.514 89.4643 106.674 89.5852 106.827 89.7156C107.287 90.1202 107.707 90.5693 108.08 91.0564C108.982 92.2023 109.479 93.6174 109.493 95.0789C109.49 96.5399 108.997 97.9572 108.093 99.1013C107.72 99.5928 107.296 100.042 106.827 100.442C106.674 100.576 106.513 100.701 106.347 100.818L106.16 100.952L105.987 100.818C105.813 100.705 105.648 100.58 105.493 100.442C105.001 100.046 104.554 99.5964 104.16 99.1013C103.232 97.9683 102.725 96.5464 102.725 95.0789C102.725 93.6113 103.232 92.1894 104.16 91.0564C104.534 90.5656 104.958 90.1162 105.427 89.7156C105.577 89.5821 105.737 89.461 105.907 89.3536L106.16 89.2195Z" fill="white"/>
<path d="M70.92 90.8687L71.12 90.9893C71.3033 91.0918 71.4813 91.2037 71.6533 91.3245C72.181 91.6916 72.6722 92.1092 73.12 92.5715C73.3724 92.8524 73.6084 93.1479 73.8266 93.4564C74.0509 93.8002 74.2343 94.1692 74.3733 94.5559C74.6939 95.3749 74.8872 96.2387 74.9466 97.1169C74.9884 97.9491 74.8938 98.7826 74.6666 99.584C74.4526 100.354 74.105 101.08 73.64 101.729C73.274 102.263 72.8539 102.757 72.3866 103.204C72.2133 103.378 72.0133 103.526 71.9066 103.62L71.72 103.754L71.5333 103.62C71.4266 103.526 71.2266 103.378 71.0533 103.204C70.5608 102.769 70.114 102.283 69.72 101.756C68.8202 100.502 68.3057 99.0104 68.24 97.4655C68.1831 96.7424 68.26 96.0151 68.4666 95.3202C68.56 94.9581 68.72 94.6229 68.8266 94.2475C68.9333 93.8721 69.1066 93.5235 69.2533 93.2017C69.5477 92.6245 69.8959 92.0768 70.2933 91.5659C70.44 91.3647 70.6133 91.1904 70.7066 91.0832L70.92 90.8687Z" fill="white"/>
<path d="M57.4133 76.1465C52.4267 76.2672 52.44 84.1914 57.8 84.1914C63.3867 84.1914 62.7733 75.9722 57.4133 76.1465Z" fill="white"/>
<path d="M126.427 105.135C121.427 105.269 121.44 113.18 126.8 113.18C132.387 113.18 131.773 104.974 126.427 105.135Z" fill="white"/>
<path d="M90.8799 92.5849C91.5114 92.5385 92.1021 92.2535 92.5332 91.7872C92.9643 91.3208 93.2039 90.7077 93.2039 90.0709C93.2039 89.4342 92.9643 88.821 92.5332 88.3547C92.1021 87.8883 91.5114 87.6033 90.8799 87.5569C90.2484 87.6033 89.6578 87.8883 89.2267 88.3547C88.7956 88.821 88.556 89.4342 88.556 90.0709C88.556 90.7077 88.7956 91.3208 89.2267 91.7872C89.6578 92.2535 90.2484 92.5385 90.8799 92.5849Z" fill="white"/>
<path d="M33.4 123.397C33.9304 123.397 34.4391 123.185 34.8142 122.808C35.1892 122.431 35.4 121.919 35.4 121.386C35.4 120.852 35.1892 120.341 34.8142 119.964C34.4391 119.586 33.9304 119.375 33.4 119.375C32.8695 119.375 32.3608 119.586 31.9858 119.964C31.6107 120.341 31.4 120.852 31.4 121.386C31.4 121.919 31.6107 122.431 31.9858 122.808C32.3608 123.185 32.8695 123.397 33.4 123.397Z" fill="white"/>
</g>
<path opacity="0.1" d="M133.2 205.294C133.73 205.294 134.239 205.082 134.614 204.705C134.989 204.328 135.2 203.816 135.2 203.283C135.2 202.75 134.989 202.238 134.614 201.861C134.239 201.484 133.73 201.272 133.2 201.272C132.67 201.272 132.161 201.484 131.786 201.861C131.411 202.238 131.2 202.75 131.2 203.283C131.2 203.816 131.411 204.328 131.786 204.705C132.161 205.082 132.67 205.294 133.2 205.294Z" fill="white"/>
<path opacity="0.1" d="M15.0267 236.602C15.5571 236.602 16.0658 236.39 16.4409 236.013C16.816 235.636 17.0267 235.124 17.0267 234.591C17.0267 234.057 16.816 233.546 16.4409 233.169C16.0658 232.791 15.5571 232.58 15.0267 232.58C14.4962 232.58 13.9875 232.791 13.6125 233.169C13.2374 233.546 13.0267 234.057 13.0267 234.591C13.0267 235.124 13.2374 235.636 13.6125 236.013C13.9875 236.39 14.4962 236.602 15.0267 236.602Z" fill="white"/>
<path opacity="0.1" d="M145.973 137.046C146.504 137.046 147.012 136.834 147.388 136.457C147.763 136.08 147.973 135.569 147.973 135.035C147.973 134.502 147.763 133.99 147.388 133.613C147.012 133.236 146.504 133.024 145.973 133.024C145.443 133.024 144.934 133.236 144.559 133.613C144.184 133.99 143.973 134.502 143.973 135.035C143.973 135.569 144.184 136.08 144.559 136.457C144.934 136.834 145.443 137.046 145.973 137.046Z" fill="white"/>
<defs>
<linearGradient id="paint0_linear_8444_5674" x1="85.5" y1="26.4021" x2="85.5" y2="249.749" gradientUnits="userSpaceOnUse">
<stop stop-color="#8575EC"/>
<stop offset="1" stop-color="#433791"/>
</linearGradient>
</defs>
</svg>
