<svg width="120" height="120" viewBox="0 0 120 120" fill="none" xmlns="http://www.w3.org/2000/svg">
<g clip-path="url(#clip0_8517_5103)">
<path opacity="0.2" d="M4.5 144.485C13.7904 130.669 33.3786 89.4489 27.67 62.6102C27.3342 59.8924 30.0206 51.3992 39.7587 64.3089M39.7587 64.3089C39.8707 66.687 39.6244 72.8021 37.744 78.2378M39.7587 64.3089C39.9826 60.3454 40.296 49.9044 39.7587 39.8484C39.4229 34.4127 42.4451 30.6757 47.1463 33.7332M47.1463 33.7332C47.1463 34.4127 48.4895 57.854 47.1463 65.6678M47.1463 33.7332C48.0296 30.4095 53.325 26.5989 57.8918 32.0346M57.8918 32.0346C60.914 31.3551 66.2868 31.3551 66.6225 39.8484M57.8918 32.0346C54.198 33.7332 55.2054 37.1305 55.2054 50.7197C55.2054 54.7965 55.004 63.8333 54.198 67.3665M66.6225 39.8484C64.6078 39.6219 60.6454 40.0522 60.914 47.6621C61.5856 51.5124 62.6601 60.7078 61.5856 66.687M66.6225 39.8484C67.4351 39.9397 68.2285 40.1848 68.9731 40.7164M57.2202 146.523C57.9062 144.904 63.1077 128.949 67.0992 115.608M68.9731 40.7164C71.9211 42.8208 74.1032 49.4142 73.6743 68.7254C73.6743 75.7465 73.2042 91.8949 71.3237 100.32C70.5738 103.68 68.9693 109.357 67.0992 115.608M68.9731 40.7164C69.5328 36.9165 72.0625 30.4039 77.7039 34.7524M77.7039 34.7524C76.9203 35.5451 75.3533 42.2265 75.3533 62.6102M77.7039 34.7524C79.3829 32.714 83.0766 29.9962 87.442 35.4319M87.442 35.4319C86.4346 35.7716 84.1512 42.5662 83.0766 65.6678M87.442 35.4319C89.9045 33.9597 94.8967 32.6461 95.1653 39.1689C93.4864 50.7197 92.8148 54.7965 93.8222 66.3473M93.8222 66.3473C92.2551 68.4989 88.718 73.9572 87.1062 78.5775M93.8222 66.3473C96.2847 62.497 102.217 55.8157 106.247 59.8924C111.284 64.9883 103.224 76.5392 102.217 78.9173C101.21 81.2954 97.1801 87.4105 107.254 107.794C109.269 111.645 114.037 120.364 116.992 124.441M76.0249 78.9173C73.7862 81.8616 70.7864 89.8565 76.6965 98.2818M67.0992 115.608C69.9625 123.309 76.6965 139.865 80.726 144.485" stroke="white" stroke-width="2"/>
<path d="M18.9453 15.3744C23.4923 14.7735 34.0175 15.795 39.7422 24.6875" stroke="#FFBE60" stroke-width="2" stroke-linecap="round"/>
<path d="M31.2344 2C33.5977 2 39.0307 3.6422 41.6328 7.19922" stroke="#FFBE60" stroke-width="2" stroke-linecap="round"/>
<path d="M94.2288 1.89062C91.8827 2.17574 86.6875 4.46141 84.5335 8.30637" stroke="#FFBE60" stroke-width="2" stroke-linecap="round"/>
<path d="M18 5.10192C24.4071 3.96031 39.238 5.90105 47.3047 22.7969" stroke="#FFBE60" stroke-width="2" stroke-linecap="round"/>
<path d="M111.92 3.15555C105.165 2.02541 89.7265 4.91679 82.0155 25.5234" stroke="#FFBE60" stroke-width="2" stroke-linecap="round"/>
<path d="M116.63 10.5665C110.897 10.0508 97.7323 11.7531 90.9323 22.6875" stroke="#FFBE60" stroke-width="2" stroke-linecap="round"/>
</g>
<defs>
<clipPath id="clip0_8517_5103">
<rect width="120" height="120" fill="white"/>
</clipPath>
</defs>
</svg>
