<svg width="120" height="120" viewBox="0 0 120 120" fill="none" xmlns="http://www.w3.org/2000/svg">
<g clip-path="url(#clip0_8517_5119)">
<path opacity="0.2" d="M59.566 132C56.0058 118.226 48.7699 90.3319 48.308 88.9449C47.7307 87.2112 44.9563 76.3917 37.3387 67.8508C30.1223 59.7597 28.9678 57.1598 27.8128 55.4256C25.5033 51.958 28.3906 47.6232 33.0091 50.2242C35.607 52.2468 41.0339 56.5811 41.9576 57.737M41.9576 57.737C42.3423 55.329 44.1511 50.5707 48.308 50.8019M41.9576 57.737C41.8614 61.3971 43.8051 69.4687 52.3496 72.4739C54.6589 73.3408 56.3909 70.7402 56.9682 70.1622M48.308 50.8019C45.7676 57.2746 53.023 66.4058 56.9682 70.1622M48.308 50.8019C48.9816 48.9718 51.5413 45.4272 56.3909 45.8896M56.9682 70.1622C58.8926 71.607 63.2611 73.6298 65.3395 70.1622M65.3395 70.1622C65.9168 69.0064 65.9168 67.2726 65.9168 66.6947M65.3395 70.1622C64.7622 72.9555 66.2632 79.2934 76.8861 82.2986M65.9168 66.6947C66.7828 66.6947 68.2262 66.9259 70.5355 65.5389C73.4221 63.8051 71.1128 57.159 65.9168 50.224M65.9168 66.6947C61.0095 64.383 52.2341 53.287 56.3909 45.8896M56.3909 45.8896C56.7758 44.9264 58.3538 43 61.5868 43C65.6282 43 70.8241 48.4902 75.4428 56.0032C79.0992 52.632 87.2203 45.6006 91.608 45.6006C93.6287 45.6006 97.0927 46.6409 97.0927 49.6461C97.0927 50.8019 96.169 53.1714 92.474 55.7142C90.0685 56.7738 85.2574 60.4532 85.2574 66.6947C85.2574 74.4967 100.557 127.087 102 131.422" stroke="white" stroke-width="2" stroke-linecap="round"/>
<path d="M15 38.648C15.8571 34.773 19.5429 27.0228 27.4286 27.0228M27.4286 27.0228C37.2857 27.0228 40.1418 32.378 39.4286 34.9114C38.1429 39.4782 23.1429 46.5366 27.4286 27.0228ZM27.4286 27.0228C29.7143 20.9335 37.5429 10.4985 50.5714 17.4736C66.8571 26.1925 57.2637 30.6543 53.1429 29.5137C47.1429 27.853 44.5714 10 61.2857 10C66.8571 10 77.9143 14.1519 74.1429 22.4556C72.2571 26.6074 65.0571 27.2717 68.1429 19.9645C69.2857 17.3349 72.7714 12.0759 77.5714 12.0759C83.5714 12.0759 94.0565 21.9449 85.7143 26.6074C74.5714 32.8352 84.8571 0.0355492 102 33.6656" stroke="#FFBE60" stroke-width="2"/>
</g>
<defs>
<clipPath id="clip0_8517_5119">
<rect width="120" height="120" fill="white"/>
</clipPath>
</defs>
</svg>
