<svg width="214" height="16" viewBox="0 0 214 16" fill="none" xmlns="http://www.w3.org/2000/svg">
<path d="M12.3281 11.8107L14.3477 13.8525C12.6899 15.2846 10.7548 16 8.5431 16C6.18955 16 4.1795 15.2146 2.50818 13.6468C0.836059 12.079 0 10.1915 0 7.98733C0 5.78688 0.836059 3.9076 2.50818 2.34501C4.1795 0.781669 6.19034 0 8.5431 0C10.7875 0 12.7226 0.702683 14.3477 2.1073L12.3042 4.17139C11.2386 3.24516 9.98489 2.77943 8.54231 2.77943C7.01206 2.77943 5.70178 3.28838 4.61626 4.31148C3.53233 5.33085 2.99196 6.55961 2.99196 7.99106C2.99196 9.4225 3.53153 10.652 4.61626 11.6706C5.70178 12.6893 7.00727 13.2034 8.5431 13.2034C9.99844 13.199 11.2617 12.7377 12.3281 11.8115V11.8107ZM22.0587 2.34501C23.7308 0.781669 25.7457 0 28.0984 0C30.4512 0 32.466 0.781669 34.1477 2.34501C35.8286 3.9076 36.6646 5.78763 36.6646 7.98733C36.6646 10.187 35.8238 12.0708 34.1469 13.6431C32.466 15.2146 30.4512 15.9955 28.0976 15.9955C25.7457 15.9955 23.7356 15.2101 22.0635 13.6423C20.3914 12.0745 19.5553 10.187 19.5553 7.98659C19.5505 5.78689 20.3866 3.9076 22.0587 2.34501ZM24.1724 11.6706C25.2563 12.6893 26.5626 13.2034 28.0984 13.2034C29.6287 13.2034 30.9437 12.6937 32.034 11.6706C33.1236 10.652 33.6727 9.4225 33.6727 7.99106C33.6727 6.56036 33.1283 5.33085 32.034 4.31148C30.9445 3.29285 29.6295 2.77943 28.0984 2.77943C26.5674 2.77943 25.2571 3.28838 24.1724 4.31148C23.0877 5.33085 22.5465 6.55961 22.5465 7.99106C22.5465 9.4225 23.0877 10.6475 24.1724 11.6706ZM54.7543 0.412817H57.7271V8.90015C57.7271 10.8539 56.9859 12.5268 55.4971 13.9151C54.0131 15.3063 52.2142 16 50.1101 16C48.006 16 46.2072 15.307 44.7232 13.9143C43.2391 12.5268 42.4924 10.8539 42.4924 8.90015V0.412817H45.4891V8.90015C45.4891 10.0857 45.9402 11.0999 46.8464 11.9389C47.7526 12.7772 48.8373 13.199 50.1101 13.199C51.3973 13.199 52.4916 12.7772 53.3978 11.9389C54.304 11.0999 54.7551 10.0857 54.7551 8.90015V0.412817H54.7543ZM76.0248 10.3756L80.2051 15.5879H76.6735L72.9348 10.8979H68.0364V15.5879H65.0396V0.412817H73.5644C75.1281 0.412817 76.4663 0.926975 77.5797 1.9538C78.6923 2.98212 79.251 4.21908 79.251 5.66841C79.261 6.66352 78.9539 7.63889 78.3688 8.47019C77.7914 9.29588 76.9802 9.9555 76.0256 10.3756H76.0248ZM73.4704 8.20715C74.2451 8.20715 74.9026 7.96125 75.443 7.46945C75.7049 7.23854 75.9125 6.95913 76.0524 6.64902C76.1924 6.33892 76.2617 6.00495 76.2559 5.66841C76.2559 4.962 75.9825 4.35544 75.443 3.85544C74.9026 3.35469 74.2451 3.10432 73.4704 3.10432H68.0364V8.20641H73.4704V8.20715ZM93.1381 6.75335C93.8339 6.95455 94.3973 7.1304 94.8198 7.27496C95.2469 7.42027 95.7546 7.63562 96.3508 7.91654C96.947 8.19747 97.4124 8.48733 97.7456 8.78614C98.0787 9.0842 98.3704 9.462 98.6143 9.92772C98.863 10.389 98.9857 10.8979 98.9857 11.4471C98.9857 12.2593 98.7976 12.962 98.4174 13.5633C98.0465 14.156 97.5024 14.6374 96.8489 14.9508C96.1818 15.2757 95.4534 15.5171 94.6651 15.6796C93.817 15.8431 92.9528 15.9225 92.0868 15.9165C89.7333 15.9165 87.5216 15.3592 85.4454 14.2437L86.9533 12.0089C88.7665 12.9352 90.5135 13.3964 92.1992 13.3964C94.646 13.3964 95.867 12.7951 95.867 11.5961C95.867 11.2802 95.7682 10.9903 95.5761 10.7399C95.3832 10.4851 95.078 10.2615 94.6604 10.0678C94.2796 9.88594 93.8873 9.72618 93.4856 9.58942C92.982 9.42433 92.4747 9.2693 91.9641 9.12444C91.9394 9.11203 91.9123 9.10442 91.8844 9.10209C91.8593 9.10072 91.835 9.09299 91.8142 9.07973C91.7902 9.06611 91.7627 9.05866 91.7345 9.05812C91.1498 8.89492 90.5687 8.72077 89.9915 8.53577C89.5882 8.40387 89.0757 8.19747 88.4469 7.91729C87.8173 7.63562 87.343 7.34575 87.0187 7.04694C86.6951 6.75335 86.4042 6.36215 86.1499 5.88376C85.8895 5.38331 85.7577 4.83293 85.765 4.27645C85.765 3.04694 86.3053 2.05514 87.3901 1.30402C88.5641 0.508942 90.2314 0.109538 92.3825 0.109538C94.4866 0.109538 96.5764 0.66766 98.6518 1.78241L97.2004 3.95156C95.4677 3.05589 93.8195 2.60358 92.2558 2.60358C91.1567 2.60358 90.3207 2.74441 89.7476 3.02534C89.1746 3.30626 88.8884 3.68852 88.8884 4.16691C88.8884 4.42623 88.9634 4.67213 89.118 4.89568C89.2734 5.11923 89.4424 5.30402 89.6305 5.44933C89.8177 5.59389 90.1142 5.74739 90.5223 5.91431C90.9312 6.08122 91.2691 6.20417 91.5321 6.28316C91.7951 6.36215 92.204 6.48063 92.7627 6.64307C92.9364 6.68778 93.0584 6.72206 93.1381 6.75335Z" fill="white"/>
<path d="M132.983 0.412817C135.194 0.412817 137.083 1.15052 138.637 2.62593C140.192 4.10134 140.971 5.88823 140.971 7.98733C140.971 10.0857 140.192 11.877 138.628 13.3614C137.063 14.8458 135.185 15.5879 132.988 15.5879H125.999V0.412817H132.983ZM132.889 12.8741C134.298 12.8741 135.5 12.3957 136.5 11.4426C137.5 10.4851 137.998 9.33532 137.998 7.9918C137.998 6.64307 137.5 5.49329 136.5 4.54024C135.5 3.58718 134.298 3.10879 132.889 3.10879H128.986V12.8778H132.889V12.8741ZM150.42 15.5879H147.424V0.412817H150.42V15.5879ZM156.901 0.412817H171.253V3.01639H165.566V15.5872H162.593V3.01714H156.906V0.412817H156.901ZM177.983 2.34501C179.655 0.781669 181.67 0 184.023 0C186.376 0 188.391 0.781669 190.071 2.34501C191.753 3.9076 192.589 5.78763 192.589 7.98733C192.589 10.187 191.748 12.0708 190.071 13.6431C188.391 15.2146 186.376 15.9955 184.023 15.9955C181.67 15.9955 179.655 15.2101 177.983 13.6423C176.311 12.0745 175.475 10.187 175.475 7.98659C175.475 5.78689 176.311 3.9076 177.983 2.34501ZM180.097 11.6706C181.182 12.6893 182.487 13.2034 184.023 13.2034C185.554 13.2034 186.869 12.6937 187.959 11.6706C189.048 10.652 189.597 9.4225 189.597 7.99106C189.597 6.56036 189.053 5.33085 187.959 4.31148C186.869 3.29285 185.554 2.77943 184.023 2.77943C182.492 2.77943 181.182 3.28838 180.097 4.31148C179.012 5.33085 178.472 6.55961 178.472 7.99106C178.472 9.4225 179.012 10.6475 180.097 11.6706ZM209.82 10.3756L214 15.5879H210.472L206.734 10.8979H201.836V15.5879H198.84V0.412817H207.364C208.928 0.412817 210.266 0.926975 211.379 1.9538C212.492 2.98212 213.051 4.21908 213.051 5.66841C213.06 6.66349 212.753 7.63879 212.168 8.47019C211.588 9.29514 210.775 9.95443 209.82 10.3756ZM207.265 8.20715C208.04 8.20715 208.697 7.96125 209.238 7.46945C209.5 7.23842 209.707 6.95896 209.847 6.64888C209.987 6.33879 210.056 6.00488 210.05 5.66841C210.05 4.962 209.777 4.35544 209.238 3.85544C208.697 3.35469 208.04 3.10432 207.265 3.10432H201.831V8.20641H207.265V8.20715Z" fill="white"/>
<path fill-rule="evenodd" clip-rule="evenodd" d="M120.236 0.412819H110.717V2.98137H120.236V0.412819ZM105.904 0.413564H108.966V2.98212H107.964V6.71833H108.965V9.28689H107.964V13.0186H108.965V15.5872H105.903V13.0186H106.903V9.28689H105.903V6.71833H106.903V2.98212H105.904V0.413564ZM120.236 13.0186H110.717V15.5872H120.236V13.0186ZM120.236 6.71833H110.717V9.28689H120.236V6.71833Z" fill="white"/>
<path d="M107.435 1.69896H112.38M107.435 8H112.379M107.435 14.301H112.379" stroke="white" stroke-width="1.473" stroke-miterlimit="10"/>
</svg>
