<svg width="120" height="120" viewBox="0 0 120 120" fill="none" xmlns="http://www.w3.org/2000/svg">
<g clip-path="url(#clip0_8517_5116)">
<path opacity="0.2" d="M31.4172 151C29.2434 123.279 26.5623 65.0891 33.2287 54.0972C41.5616 40.3572 46.2716 43.2498 46.9962 43.973C47.7208 44.6961 50.2569 47.2271 43.7355 59.5208C39.7502 66.3908 44.4601 73.9839 52.4308 69.2834C56.7784 66.5113 65.8359 58.1468 67.2851 46.8656C67.2851 42.165 67.6474 38.9108 61.8506 34.5719C56.0538 30.233 62.9375 22.6398 73.082 30.233C80.0059 35.4156 79.3348 45.4831 77.75 51.9277M75.6181 57.7129C76.0782 57.139 77.0129 54.9252 77.75 51.9277M77.75 51.9277C79.7083 51.9277 82.7539 52.8431 83.9225 55.905M83.951 62.0519C84.6157 59.3984 84.4919 57.3969 83.9225 55.905M83.9225 55.905C85.0507 56.0369 86.6877 56.7385 87.7021 58.4361C87.9526 58.8553 88.1651 59.3353 88.3226 59.8824M88.2987 64.9445C88.7594 62.8294 88.6933 61.1699 88.3226 59.8824M88.3226 59.8824C89.8846 60.3645 92.4843 63.473 91.9217 72.176C90.4725 94.5939 83.5887 128.944 86.8494 151" stroke="white" stroke-width="2" stroke-linecap="round"/>
<path d="M37.0157 12.031C26.124 1.86573 21.1044 19.8829 37.7839 27.7072C38.1631 27.8851 38.6355 27.7869 38.9228 27.4822C54.5104 10.9499 43.5891 5.03968 38.7763 11.8095C38.3721 12.378 37.5257 12.5069 37.0157 12.031Z" stroke="#FFBE60" stroke-width="2"/>
</g>
<defs>
<clipPath id="clip0_8517_5116">
<rect width="120" height="120" fill="white"/>
</clipPath>
</defs>
</svg>
