<svg width="120" height="120" viewBox="0 0 120 120" fill="none" xmlns="http://www.w3.org/2000/svg">
<g clip-path="url(#clip0_8517_5111)">
<path opacity="0.2" d="M43.77 54.9499C45.77 42.4499 50.27 39.9495 55.77 43.4495M43.77 54.9499C43.2704 58.0725 42.77 62.4499 45.2702 77.4499M43.77 54.9499C41.7699 51.9499 36.77 50.9499 34.7702 57.4499C32.7704 63.9499 33.77 89.4499 48.7701 136.45M55.77 43.4495C54.77 47.0496 52.27 57.9502 54.77 75.9499M55.77 43.4495C58.27 34.4496 68.27 32.9502 67.212 42.5767M67.212 42.5767C66.2046 42.9165 63.9212 49.711 62.8466 72.8127M67.212 42.5767C69.6745 41.1046 74.6667 39.791 74.9354 46.3138C73.2564 57.8646 72.5848 61.9413 73.5922 73.4921M73.5922 73.4921C72.0251 75.6437 68.488 81.1021 66.8762 85.7224M73.5922 73.4921C76.0547 69.6419 81.9871 62.9605 86.0167 67.0373C91.0536 72.1332 82.9945 83.684 81.9871 86.0621C80.9797 88.4402 76.9501 94.5553 87.0241 114.939C89.0389 118.789 93.8072 127.509 96.7622 131.586M60.5984 83.0856C58.3598 86.0299 55.77 95.9502 62.8466 102.45" stroke="white" stroke-width="2" stroke-linecap="round"/>
<path d="M16.4395 34.5556C16.4317 33.5869 17.6679 33.174 18.2437 33.9531L20.0666 36.4195C20.3241 36.7679 20.7766 36.9109 21.1875 36.7737L24.0965 35.8022C25.0154 35.4954 25.7901 36.5436 25.2271 37.3319L23.4446 39.8277C23.1929 40.1803 23.1967 40.6549 23.4542 41.0033L25.2771 43.4697C25.8528 44.2488 25.0953 45.3094 24.1716 45.0176L21.2471 44.0936C20.834 43.9631 20.3839 44.1135 20.1321 44.466L18.3497 46.9618C17.7867 47.7501 16.5438 47.3575 16.5359 46.3888L16.5109 43.3219C16.5074 42.8887 16.2253 42.5071 15.8122 42.3765L12.8878 41.4526C11.964 41.1608 11.9534 39.8574 12.8723 39.5505L15.7813 38.5791C16.1922 38.4419 16.468 38.0556 16.4645 37.6224L16.4395 34.5556Z" stroke="#FFBE60" stroke-width="2"/>
<path d="M100.351 29.7203C100.359 28.7516 99.123 28.3387 98.5472 29.1178L96.6826 31.6407C96.4251 31.9891 95.9726 32.1321 95.5616 31.9949L92.586 31.0012C91.6672 30.6943 90.8925 31.7425 91.4555 32.5308L93.2787 35.0838C93.5305 35.4363 93.5267 35.9109 93.2692 36.2593L91.4046 38.7822C90.8288 39.5613 91.5863 40.622 92.51 40.3301L95.5015 39.385C95.9146 39.2545 96.3647 39.4048 96.6165 39.7574L98.4398 42.3103C99.0028 43.0987 100.246 42.706 100.253 41.7373L100.279 38.6002C100.283 38.167 100.565 37.7854 100.978 37.6549L103.969 36.7097C104.893 36.4179 104.903 35.1145 103.985 34.8077L101.009 33.814C100.598 33.6768 100.322 33.2906 100.326 32.8573L100.351 29.7203Z" stroke="#FFBE60" stroke-width="2"/>
<path d="M60.4469 2.78744C60.1396 1.88296 58.8604 1.88296 58.5531 2.78744L57.1485 6.92245C57.0108 7.32802 56.63 7.60081 56.2017 7.60081L51.7541 7.60081C50.7746 7.60081 50.3791 8.86304 51.1834 9.42199L54.704 11.8686C55.0701 12.1231 55.2236 12.5892 55.0802 13.0114L53.7176 17.0227C53.4073 17.9363 54.4428 18.7161 55.2351 18.1655L58.9293 15.5982C59.2724 15.3598 59.7276 15.3598 60.0707 15.5982L63.7649 18.1655C64.5572 18.7161 65.5927 17.9363 65.2824 17.0227L63.9198 13.0114C63.7764 12.5892 63.9299 12.1231 64.296 11.8686L67.8166 9.42199C68.6209 8.86303 68.2254 7.60081 67.2459 7.60081L62.7983 7.60081C62.37 7.60081 61.9892 7.32802 61.8515 6.92245L60.4469 2.78744Z" stroke="#FFBE60" stroke-width="2"/>
</g>
<defs>
<clipPath id="clip0_8517_5111">
<rect width="120" height="120" fill="white"/>
</clipPath>
</defs>
</svg>
