<svg width="6" height="21" viewBox="0 0 6 21" fill="none" xmlns="http://www.w3.org/2000/svg">
<path d="M0.833496 17.8C0.833496 17.4534 0.893496 17.1267 1.0135 16.82C1.14683 16.5134 1.32016 16.2467 1.5335 16.02C1.76016 15.7934 2.02683 15.6134 2.3335 15.48C2.64016 15.3467 2.96683 15.28 3.3135 15.28C3.66016 15.28 3.98683 15.3467 4.2935 15.48C4.60016 15.6134 4.86683 15.7934 5.0935 16.02C5.32016 16.2467 5.50016 16.5134 5.6335 16.82C5.76683 17.1267 5.8335 17.4534 5.8335 17.8C5.8335 18.16 5.76683 18.4934 5.6335 18.8C5.50016 19.0934 5.32016 19.3534 5.0935 19.58C4.86683 19.8067 4.60016 19.98 4.2935 20.1C3.98683 20.2334 3.66016 20.3 3.3135 20.3C2.96683 20.3 2.64016 20.2334 2.3335 20.1C2.02683 19.98 1.76016 19.8067 1.5335 19.58C1.32016 19.3534 1.14683 19.0934 1.0135 18.8C0.893496 18.4934 0.833496 18.16 0.833496 17.8ZM0.833496 2.80003C0.833496 2.45336 0.893496 2.1267 1.0135 1.82003C1.14683 1.51336 1.32016 1.2467 1.5335 1.02003C1.76016 0.793363 2.02683 0.613363 2.3335 0.480029C2.64016 0.346696 2.96683 0.280029 3.3135 0.280029C3.66016 0.280029 3.98683 0.346696 4.2935 0.480029C4.60016 0.613363 4.86683 0.793363 5.0935 1.02003C5.32016 1.2467 5.50016 1.51336 5.6335 1.82003C5.76683 2.1267 5.8335 2.45336 5.8335 2.80003C5.8335 3.16003 5.76683 3.49336 5.6335 3.80003C5.50016 4.09336 5.32016 4.35336 5.0935 4.58003C4.86683 4.8067 4.60016 4.9867 4.2935 5.12003C3.98683 5.24003 3.66016 5.30003 3.3135 5.30003C2.96683 5.30003 2.64016 5.24003 2.3335 5.12003C2.02683 4.9867 1.76016 4.8067 1.5335 4.58003C1.32016 4.35336 1.14683 4.09336 1.0135 3.80003C0.893496 3.49336 0.833496 3.16003 0.833496 2.80003Z" fill="white"/>
</svg>
