<svg width="839" height="220" viewBox="0 0 839 220" fill="none" xmlns="http://www.w3.org/2000/svg">
<g opacity="0.1">
<path d="M150.73 215H3.72969V176L73.3297 102.5C80.9297 94.3 86.1297 88 88.9297 83.6C91.9297 79 93.4297 74.5 93.4297 70.1C93.4297 64.7 91.7297 60.5 88.3297 57.5C85.1297 54.3 80.6297 52.7 74.8297 52.7C62.2297 52.7 52.8297 60 46.6297 74.6L0.429688 48.8C7.02969 33.4 16.8297 21.5 29.8297 13.1C43.0297 4.7 57.8297 0.5 74.2297 0.5C94.2297 0.5 111.33 6.5 125.53 18.5C139.93 30.3 147.13 46.5 147.13 67.1C147.13 78.7 144.43 89.7 139.03 100.1C133.63 110.3 125.13 121.4 113.53 133.4L85.0297 163.1H150.73V215Z" fill="url(#paint0_linear_8215_1587)"/>
<path d="M375.205 189.8C360.005 209.6 338.705 219.5 311.305 219.5C283.905 219.5 262.505 209.6 247.105 189.8C231.905 169.8 224.305 143.2 224.305 110C224.305 76.6 231.905 50.1 247.105 30.5C262.305 10.5 283.705 0.5 311.305 0.5C338.705 0.5 360.005 10.5 375.205 30.5C390.605 50.5 398.305 77 398.305 110C398.305 143 390.605 169.6 375.205 189.8ZM311.305 52.7C289.105 52.7 278.005 71.8 278.005 110C278.005 148.2 289.105 167.3 311.305 167.3C333.505 167.3 344.605 148.2 344.605 110C344.605 71.8 333.505 52.7 311.305 52.7Z" fill="url(#paint1_linear_8215_1587)"/>
<path d="M614.675 215H467.675V176L537.275 102.5C544.875 94.3 550.075 88 552.875 83.6C555.875 79 557.375 74.5 557.375 70.1C557.375 64.7 555.675 60.5 552.275 57.5C549.075 54.3 544.575 52.7 538.775 52.7C526.175 52.7 516.775 60 510.575 74.6L464.375 48.8C470.975 33.4 480.775 21.5 493.775 13.1C506.975 4.7 521.775 0.5 538.175 0.5C558.175 0.5 575.275 6.5 589.475 18.5C603.875 30.3 611.075 46.5 611.075 67.1C611.075 78.7 608.375 89.7 602.975 100.1C597.575 110.3 589.075 121.4 577.475 133.4L548.975 163.1H614.675V215Z" fill="url(#paint2_linear_8215_1587)"/>
<path d="M829.215 47.3L794.115 90.5C807.715 94.7 818.515 102 826.515 112.4C834.715 122.6 838.815 134.8 838.815 149C838.815 171.4 831.415 188.8 816.615 201.2C802.015 213.4 783.715 219.5 761.715 219.5C743.915 219.5 728.315 215.5 714.915 207.5C701.515 199.3 691.915 187.5 686.115 172.1L732.915 145.4C737.315 160 746.915 167.3 761.715 167.3C769.315 167.3 775.115 165.5 779.115 161.9C783.315 158.3 785.415 153.5 785.415 147.5C785.415 141.5 783.315 136.8 779.115 133.4C775.115 129.8 769.315 128 761.715 128H750.315L729.615 97.4L763.215 56.3H692.715V5H829.215V47.3Z" fill="url(#paint3_linear_8215_1587)"/>
</g>
<defs>
<linearGradient id="paint0_linear_8215_1587" x1="422" y1="-56" x2="422" y2="323" gradientUnits="userSpaceOnUse">
<stop stop-color="white"/>
<stop offset="0.796875" stop-color="white" stop-opacity="0"/>
</linearGradient>
<linearGradient id="paint1_linear_8215_1587" x1="422" y1="-56" x2="422" y2="323" gradientUnits="userSpaceOnUse">
<stop stop-color="white"/>
<stop offset="0.796875" stop-color="white" stop-opacity="0"/>
</linearGradient>
<linearGradient id="paint2_linear_8215_1587" x1="422" y1="-56" x2="422" y2="323" gradientUnits="userSpaceOnUse">
<stop stop-color="white"/>
<stop offset="0.796875" stop-color="white" stop-opacity="0"/>
</linearGradient>
<linearGradient id="paint3_linear_8215_1587" x1="422" y1="-56" x2="422" y2="323" gradientUnits="userSpaceOnUse">
<stop stop-color="white"/>
<stop offset="0.796875" stop-color="white" stop-opacity="0"/>
</linearGradient>
</defs>
</svg>
