<svg width="28" height="28" viewBox="0 0 28 28" fill="none" xmlns="http://www.w3.org/2000/svg">
<path d="M14 4C19.5228 4 24 8.47715 24 14C24 19.5228 19.5228 24 14 24C8.47715 24 4 19.5228 4 14C4 8.47715 8.47715 4 14 4ZM10.9645 10.6504L10.9105 11.1492L10.8809 11.4832L10.8387 12.0822L10.8151 12.5425L10.7973 13.0482L10.7875 13.5966V14.1752L10.7974 14.7238L10.8151 15.2298L10.8388 15.6902L10.8809 16.2893L10.9524 17.0194C10.9566 17.0561 10.9607 17.0903 10.9646 17.122C11.061 17.9106 11.8827 18.3875 12.6162 18.0757L13.0723 17.8742L13.723 17.5651L14.1135 17.3692L14.543 17.145L15.0086 16.8922L15.5071 16.6102L16.0003 16.3196C16.0791 16.2722 16.1561 16.2255 16.2314 16.1793L16.6618 15.9107L17.0488 15.6603L17.3912 15.4312L18.0443 14.971L18.2213 14.8397C18.8591 14.3596 18.8553 13.4085 18.22 12.9315L17.8141 12.6352L17.5391 12.4423L17.2181 12.224L16.6542 11.8557L16.2255 11.5879L15.7566 11.3058L15.2573 11.0175L14.7787 10.7525L14.3324 10.5153L13.9221 10.3056L13.3821 10.0422L12.9433 9.83964L12.713 9.73796C12.679 9.72323 12.6473 9.7096 12.6179 9.69706C11.8859 9.38489 11.0612 9.85908 10.9645 10.6504Z" fill="white"/>
</svg>
