<svg width="32" height="32" viewBox="0 0 32 32" fill="none" xmlns="http://www.w3.org/2000/svg">
<path d="M19.8798 29.3538L16.2419 19.3896L22.1638 15.9365L26.2029 27.0304C26.4266 27.6447 25.812 28.2311 25.2088 27.9789L23.37 27.2099C22.8782 27.0043 22.3115 27.2205 22.0818 27.7015L21.2611 29.4198C20.9748 30.0194 20.1077 29.9779 19.8798 29.3538Z" fill="url(#paint0_linear_8517_8712)"/>
<path d="M19.8798 29.3538L16.2419 19.3896L22.1638 15.9365L26.2029 27.0304C26.4266 27.6447 25.812 28.2311 25.2088 27.9789L23.37 27.2099C22.8782 27.0043 22.3115 27.2205 22.0818 27.7015L21.2611 29.4198C20.9748 30.0194 20.1077 29.9779 19.8798 29.3538Z" fill="url(#paint1_linear_8517_8712)"/>
<path d="M19.8798 29.3538L16.2419 19.3896L22.1638 15.9365L26.2029 27.0304C26.4266 27.6447 25.812 28.2311 25.2088 27.9789L23.37 27.2099C22.8782 27.0043 22.3115 27.2205 22.0818 27.7015L21.2611 29.4198C20.9748 30.0194 20.1077 29.9779 19.8798 29.3538Z" fill="url(#paint2_linear_8517_8712)"/>
<path d="M19.8798 29.3538L16.2419 19.3896L22.1638 15.9365L26.2029 27.0304C26.4266 27.6447 25.812 28.2311 25.2088 27.9789L23.37 27.2099C22.8782 27.0043 22.3115 27.2205 22.0818 27.7015L21.2611 29.4198C20.9748 30.0194 20.1077 29.9779 19.8798 29.3538Z" fill="url(#paint3_linear_8517_8712)"/>
<path d="M12.2134 29.3538L15.8513 19.3896L9.92944 15.9365L5.89034 27.0304C5.66669 27.6447 6.2813 28.2311 6.88444 27.9789L8.72331 27.2099C9.21509 27.0043 9.78174 27.2205 10.0115 27.7015L10.8321 29.4198C11.1185 30.0194 11.9855 29.9779 12.2134 29.3538Z" fill="url(#paint4_linear_8517_8712)"/>
<path d="M12.2134 29.3538L15.8513 19.3896L9.92944 15.9365L5.89034 27.0304C5.66669 27.6447 6.2813 28.2311 6.88444 27.9789L8.72331 27.2099C9.21509 27.0043 9.78174 27.2205 10.0115 27.7015L10.8321 29.4198C11.1185 30.0194 11.9855 29.9779 12.2134 29.3538Z" fill="url(#paint5_radial_8517_8712)"/>
<path d="M12.2134 29.3538L15.8513 19.3896L9.92944 15.9365L5.89034 27.0304C5.66669 27.6447 6.2813 28.2311 6.88444 27.9789L8.72331 27.2099C9.21509 27.0043 9.78174 27.2205 10.0115 27.7015L10.8321 29.4198C11.1185 30.0194 11.9855 29.9779 12.2134 29.3538Z" fill="url(#paint6_linear_8517_8712)"/>
<path d="M12.2134 29.3538L15.8513 19.3896L9.92944 15.9365L5.89034 27.0304C5.66669 27.6447 6.2813 28.2311 6.88444 27.9789L8.72331 27.2099C9.21509 27.0043 9.78174 27.2205 10.0115 27.7015L10.8321 29.4198C11.1185 30.0194 11.9855 29.9779 12.2134 29.3538Z" fill="url(#paint7_linear_8517_8712)"/>
<path d="M13.4225 9.72399L14.2522 9.32955L8.93186 6.71704C7.74787 6.10363 5.89806 5.54002 4.12769 6.42523C3.7712 6.60348 3.47052 6.81641 3.22137 7.05367C2.69428 7.51673 2.00479 8.42541 2.00479 10.021V16.7854C1.96316 17.3267 2.18387 18.7171 3.02299 19.4944C4.13651 20.7053 6.2073 21.2246 8.49328 20.2216C9.69818 19.6929 11.2328 18.917 12.235 18.4104C12.6387 18.2063 12.9562 18.0457 13.1307 17.9628L14.2522 17.4297L13.4225 17.0222V9.72399Z" fill="url(#paint8_linear_8517_8712)"/>
<path d="M13.4225 9.72399L14.2522 9.32955L8.93186 6.71704C7.74787 6.10363 5.89806 5.54002 4.12769 6.42523C3.7712 6.60348 3.47052 6.81641 3.22137 7.05367C2.69428 7.51673 2.00479 8.42541 2.00479 10.021V16.7854C1.96316 17.3267 2.18387 18.7171 3.02299 19.4944C4.13651 20.7053 6.2073 21.2246 8.49328 20.2216C9.69818 19.6929 11.2328 18.917 12.235 18.4104C12.6387 18.2063 12.9562 18.0457 13.1307 17.9628L14.2522 17.4297L13.4225 17.0222V9.72399Z" fill="url(#paint9_radial_8517_8712)"/>
<path d="M18.5172 9.72399L17.6875 9.32955L23.0078 6.71704C24.1918 6.10363 26.0416 5.54002 27.812 6.42523C28.1685 6.60348 28.4692 6.81641 28.7183 7.05367C29.2454 7.51673 29.9349 8.42541 29.9349 10.021V16.7854C29.9765 17.3267 29.7558 18.7171 28.9167 19.4944C27.8032 20.7053 25.7324 21.2246 23.4464 20.2216C22.2415 19.6929 20.7069 18.917 19.7047 18.4104C19.301 18.2063 18.9834 18.0457 18.809 17.9628L17.6875 17.4297L18.5172 17.0222V9.72399Z" fill="url(#paint10_linear_8517_8712)"/>
<path d="M8.66157 15.3524L12.8732 17.4205C12.2161 17.7329 9.94124 18.9307 8.25228 19.6718C6.14108 20.5981 4.34223 20.0703 3.43743 19.0578C2.53263 18.0453 2.5262 15.9966 4.39611 15.0616C5.91271 14.3033 7.54134 14.7708 8.66157 15.3524Z" fill="#C4C4C4" fill-opacity="0.55"/>
<path d="M23.2781 15.3524L19.0665 17.4205C19.7236 17.7329 21.9985 18.9307 23.6874 19.6718C25.7986 20.5981 27.5975 20.0703 28.5023 19.0578C29.4071 18.0453 29.4135 15.9966 27.5436 15.0616C26.027 14.3033 24.3984 14.7708 23.2781 15.3524Z" fill="#C40E49"/>
<path d="M23.2781 15.3524L19.0665 17.4205C19.7236 17.7329 21.9985 18.9307 23.6874 19.6718C25.7986 20.5981 27.5975 20.0703 28.5023 19.0578C29.4071 18.0453 29.4135 15.9966 27.5436 15.0616C26.027 14.3033 24.3984 14.7708 23.2781 15.3524Z" fill="url(#paint11_radial_8517_8712)"/>
<path d="M8.66157 15.3524L12.8732 17.4205C12.2161 17.7329 9.94124 18.9307 8.25228 19.6718C6.14108 20.5981 4.34223 20.0703 3.43743 19.0578C2.53263 18.0453 2.5262 15.9966 4.39611 15.0616C5.91271 14.3033 7.54134 14.7708 8.66157 15.3524Z" fill="#CC0B30"/>
<path d="M8.66157 15.3524L12.8732 17.4205C12.2161 17.7329 9.94124 18.9307 8.25228 19.6718C6.14108 20.5981 4.34223 20.0703 3.43743 19.0578C2.53263 18.0453 2.5262 15.9966 4.39611 15.0616C5.91271 14.3033 7.54134 14.7708 8.66157 15.3524Z" fill="url(#paint12_radial_8517_8712)"/>
<g filter="url(#filter0_i_8517_8712)">
<path d="M18.9377 17.6915L18.377 17.4249L18.9343 17.1513L23.1429 15.0846C24.2949 14.4871 26.0342 13.9715 27.6778 14.7933C29.7435 15.8262 29.748 18.114 28.726 19.2577C27.7209 20.3824 25.7769 20.9162 23.5669 19.9465C22.3696 19.4212 20.8623 18.659 19.8605 18.1525C19.4485 17.9442 19.122 17.7791 18.9377 17.6915Z" stroke="url(#paint13_linear_8517_8712)" stroke-width="0.6"/>
</g>
<g filter="url(#filter1_i_8517_8712)">
<path d="M13.002 17.6915L13.5627 17.4249L13.0054 17.1513L8.79679 15.0846C7.64478 14.4871 5.90551 13.9715 4.26194 14.7933C2.19616 15.8262 2.19171 18.114 3.21374 19.2577C4.21877 20.3824 6.16283 20.9162 8.37282 19.9465C9.57009 19.4212 11.0774 18.659 12.0792 18.1525C12.4912 17.9442 12.8177 17.7791 13.002 17.6915Z" stroke="url(#paint14_linear_8517_8712)" stroke-width="0.6"/>
</g>
<path d="M18.9377 17.6915L18.377 17.4249L18.9343 17.1513L23.1429 15.0846C24.2949 14.4871 26.0342 13.9715 27.6778 14.7933C29.7435 15.8262 29.748 18.114 28.726 19.2577C27.7209 20.3824 25.7769 20.9162 23.5669 19.9465C22.3696 19.4212 20.8623 18.659 19.8605 18.1525C19.4485 17.9442 19.122 17.7791 18.9377 17.6915Z" stroke="url(#paint15_radial_8517_8712)" stroke-width="0.6"/>
<rect x="12.6039" y="7.1123" width="6.91525" height="12.9903" rx="1.85" fill="url(#paint16_linear_8517_8712)"/>
<rect x="12.6039" y="7.1123" width="6.91525" height="12.9903" rx="1.85" fill="url(#paint17_linear_8517_8712)"/>
<rect x="12.6039" y="7.1123" width="6.91525" height="12.9903" rx="1.85" fill="url(#paint18_radial_8517_8712)"/>
<rect x="12.6039" y="7.1123" width="6.91525" height="12.9903" rx="1.85" fill="url(#paint19_linear_8517_8712)"/>
<rect x="12.6039" y="7.1123" width="6.91525" height="12.9903" rx="1.85" fill="url(#paint20_linear_8517_8712)"/>
<defs>
<filter id="filter0_i_8517_8712" x="17.6875" y="14.0664" width="12.006" height="6.78555" filterUnits="userSpaceOnUse" color-interpolation-filters="sRGB">
<feFlood flood-opacity="0" result="BackgroundImageFix"/>
<feBlend mode="normal" in="SourceGraphic" in2="BackgroundImageFix" result="shape"/>
<feColorMatrix in="SourceAlpha" type="matrix" values="0 0 0 0 0 0 0 0 0 0 0 0 0 0 0 0 0 0 127 0" result="hardAlpha"/>
<feOffset dy="0.1"/>
<feGaussianBlur stdDeviation="0.1"/>
<feComposite in2="hardAlpha" operator="arithmetic" k2="-1" k3="1"/>
<feColorMatrix type="matrix" values="0 0 0 0 0.811765 0 0 0 0 0.254902 0 0 0 0 0.388235 0 0 0 1 0"/>
<feBlend mode="normal" in2="shape" result="effect1_innerShadow_8517_8712"/>
</filter>
<filter id="filter1_i_8517_8712" x="2.24622" y="14.0664" width="12.006" height="6.78555" filterUnits="userSpaceOnUse" color-interpolation-filters="sRGB">
<feFlood flood-opacity="0" result="BackgroundImageFix"/>
<feBlend mode="normal" in="SourceGraphic" in2="BackgroundImageFix" result="shape"/>
<feColorMatrix in="SourceAlpha" type="matrix" values="0 0 0 0 0 0 0 0 0 0 0 0 0 0 0 0 0 0 127 0" result="hardAlpha"/>
<feOffset dy="0.1"/>
<feGaussianBlur stdDeviation="0.1"/>
<feComposite in2="hardAlpha" operator="arithmetic" k2="-1" k3="1"/>
<feColorMatrix type="matrix" values="0 0 0 0 0.843137 0 0 0 0 0.25098 0 0 0 0 0.341176 0 0 0 1 0"/>
<feBlend mode="normal" in2="shape" result="effect1_innerShadow_8517_8712"/>
</filter>
<linearGradient id="paint0_linear_8517_8712" x1="18.3044" y1="19.7021" x2="21.6794" y2="28.0146" gradientUnits="userSpaceOnUse">
<stop stop-color="#BA2950"/>
<stop offset="1" stop-color="#DB1532"/>
</linearGradient>
<linearGradient id="paint1_linear_8517_8712" x1="22.2888" y1="18.2646" x2="20.3513" y2="21.5771" gradientUnits="userSpaceOnUse">
<stop offset="0.283466" stop-color="#980129"/>
<stop offset="1" stop-color="#980129" stop-opacity="0"/>
</linearGradient>
<linearGradient id="paint2_linear_8517_8712" x1="17.3779" y1="22.6236" x2="17.8053" y2="22.4783" gradientUnits="userSpaceOnUse">
<stop stop-color="#A80435"/>
<stop offset="1" stop-color="#A80435" stop-opacity="0"/>
</linearGradient>
<linearGradient id="paint3_linear_8517_8712" x1="24.9928" y1="23.4611" x2="24.6168" y2="23.5979" gradientUnits="userSpaceOnUse">
<stop stop-color="#E04E6F"/>
<stop offset="1" stop-color="#E04E6F" stop-opacity="0"/>
</linearGradient>
<linearGradient id="paint4_linear_8517_8712" x1="13.7888" y1="19.7021" x2="10.4138" y2="28.0146" gradientUnits="userSpaceOnUse">
<stop stop-color="#BA2950"/>
<stop offset="1" stop-color="#DB1532"/>
</linearGradient>
<radialGradient id="paint5_radial_8517_8712" cx="0" cy="0" r="1" gradientUnits="userSpaceOnUse" gradientTransform="translate(14.6638 17.5146) rotate(129.152) scale(6.04469 6.91506)">
<stop offset="0.289654" stop-color="#980129"/>
<stop offset="1" stop-color="#980129" stop-opacity="0"/>
</radialGradient>
<linearGradient id="paint6_linear_8517_8712" x1="7.63653" y1="21.9701" x2="8.16594" y2="22.1652" gradientUnits="userSpaceOnUse">
<stop stop-color="#AA3244"/>
<stop offset="1" stop-color="#AA3244" stop-opacity="0"/>
</linearGradient>
<linearGradient id="paint7_linear_8517_8712" x1="14.2441" y1="24.1839" x2="13.8645" y2="24.0343" gradientUnits="userSpaceOnUse">
<stop offset="0.175676" stop-color="#D24162"/>
<stop offset="1" stop-color="#D24162" stop-opacity="0"/>
</linearGradient>
<linearGradient id="paint8_linear_8517_8712" x1="12.9138" y1="13.8898" x2="2" y2="13.8898" gradientUnits="userSpaceOnUse">
<stop stop-color="#C92D60"/>
<stop offset="0.496726" stop-color="#CD2E4E"/>
<stop offset="1" stop-color="#A1383E"/>
</linearGradient>
<radialGradient id="paint9_radial_8517_8712" cx="0" cy="0" r="1" gradientUnits="userSpaceOnUse" gradientTransform="translate(10.4763 17.5148) rotate(-90) scale(9.9375 3.23171)">
<stop stop-color="#DB3665"/>
<stop offset="1" stop-color="#DB3665" stop-opacity="0"/>
</radialGradient>
<linearGradient id="paint10_linear_8517_8712" x1="20.4763" y1="14.0148" x2="29.9397" y2="14.0148" gradientUnits="userSpaceOnUse">
<stop offset="0.0924616" stop-color="#A52548"/>
<stop offset="1" stop-color="#EC4953"/>
</linearGradient>
<radialGradient id="paint11_radial_8517_8712" cx="0" cy="0" r="1" gradientUnits="userSpaceOnUse" gradientTransform="translate(27.625 12.077) rotate(79.0889) scale(8.66897 11.8263)">
<stop offset="0.656541" stop-color="#932128"/>
<stop offset="1" stop-color="#932128" stop-opacity="0"/>
</radialGradient>
<radialGradient id="paint12_radial_8517_8712" cx="0" cy="0" r="1" gradientUnits="userSpaceOnUse" gradientTransform="translate(4.31468 12.077) rotate(100.911) scale(8.66897 11.8263)">
<stop offset="0.656541" stop-color="#97242A"/>
<stop offset="1" stop-color="#932128" stop-opacity="0"/>
</radialGradient>
<linearGradient id="paint13_linear_8517_8712" x1="19.0665" y1="17.7519" x2="29.8129" y2="17.7519" gradientUnits="userSpaceOnUse">
<stop stop-color="#BB1865"/>
<stop offset="1" stop-color="#DD1836"/>
</linearGradient>
<linearGradient id="paint14_linear_8517_8712" x1="12.8732" y1="17.7519" x2="2.12679" y2="17.7519" gradientUnits="userSpaceOnUse">
<stop stop-color="#C31867"/>
<stop offset="1" stop-color="#C81745"/>
</linearGradient>
<radialGradient id="paint15_radial_8517_8712" cx="0" cy="0" r="1" gradientUnits="userSpaceOnUse" gradientTransform="translate(24.6012 19.1707) rotate(-50.6901) scale(5.82071 6.60842)">
<stop offset="0.827753" stop-color="#EC4C5C" stop-opacity="0"/>
<stop offset="1" stop-color="#EC4C5C"/>
</radialGradient>
<linearGradient id="paint16_linear_8517_8712" x1="16.0615" y1="7.1123" x2="16.0615" y2="20.1026" gradientUnits="userSpaceOnUse">
<stop stop-color="#C83065"/>
<stop offset="1" stop-color="#DF1E30"/>
</linearGradient>
<linearGradient id="paint17_linear_8517_8712" x1="11.7326" y1="12.703" x2="14.3883" y2="12.8894" gradientUnits="userSpaceOnUse">
<stop stop-color="#A2304B"/>
<stop offset="1" stop-color="#A2304B" stop-opacity="0"/>
</linearGradient>
<radialGradient id="paint18_radial_8517_8712" cx="0" cy="0" r="1" gradientUnits="userSpaceOnUse" gradientTransform="translate(20.1192 17.5487) rotate(180) scale(4.61266 0.652294)">
<stop stop-color="#F75053"/>
<stop offset="1" stop-color="#F75053" stop-opacity="0"/>
</radialGradient>
<linearGradient id="paint19_linear_8517_8712" x1="19.6766" y1="12.7496" x2="18.6748" y2="12.7496" gradientUnits="userSpaceOnUse">
<stop stop-color="#C11451"/>
<stop offset="1" stop-color="#C11451" stop-opacity="0"/>
</linearGradient>
<linearGradient id="paint20_linear_8517_8712" x1="16.718" y1="20.5772" x2="16.718" y2="18.6669" gradientUnits="userSpaceOnUse">
<stop stop-color="#D12951"/>
<stop offset="1" stop-color="#D12951" stop-opacity="0"/>
</linearGradient>
</defs>
</svg>
