<svg width="48" height="48" viewBox="0 0 48 48" fill="none" xmlns="http://www.w3.org/2000/svg">
<g clip-path="url(#clip0_8744_4892)">
<path fill-rule="evenodd" clip-rule="evenodd" d="M11.3372 9.52052C11.5745 7.56144 13.6068 6.39124 15.4198 7.16666C17.5414 8.07408 22.302 10.2314 28.3424 13.7188C34.3842 17.2071 38.6334 20.2517 40.4792 21.6349C42.056 22.8165 42.0606 25.1607 40.4822 26.3459C38.6532 27.7193 34.4554 30.7275 28.3402 34.2581C22.223 37.7899 17.5177 39.9215 15.415 40.8183C13.6015 41.5915 11.5746 40.4191 11.3377 38.4641C11.061 36.1805 10.5467 30.9947 10.5467 23.9903C10.5467 16.99 11.0604 11.8062 11.3372 9.52052Z" fill="white"/>
</g>
<defs>
<clipPath id="clip0_8744_4892">
<rect width="48" height="48" fill="white"/>
</clipPath>
</defs>
</svg>
